Amaranth-BoldItalic.ufo
<glyph name="quotedbl" format="1">
  <advance width="441"/>
  <unicode hex="0022"/>
  <outline>
    <contour>
      <point x="111" y="669" type="line"/>
      <point x="72" y="412" type="line"/>
      <point x="193" y="412" type="line"/>
      <point x="250" y="669" type="line"/>
    </contour>
    <contour>
      <point x="300" y="669" type="line"/>
      <point x="261" y="412" type="line"/>
      <point x="382" y="412" type="line"/>
      <point x="439" y="669" type="line"/>
    </contour>
  </outline>
</glyph>
<glyph name="percent" format="1">
  <advance width="903"/>
  <unicode hex="0025"/>
  <outline>
    <contour>
      <point x="175" y="223" type="curve" smooth="yes"/>
      <point x="292" y="223"/>
      <point x="370" y="328"/>
      <point x="370" y="461" type="curve" smooth="yes"/>
      <point x="370" y="544"/>
      <point x="330" y="591"/>
      <point x="243" y="591" type="curve" smooth="yes"/>
      <point x="126" y="591"/>
      <point x="47" y="487"/>
      <point x="47" y="353" type="curve" smooth="yes"/>
      <point x="47" y="270"/>
      <point x="88" y="223"/>
    </contour>
    <contour>
      <point x="228" y="495" type="curve" smooth="yes"/>
      <point x="240" y="495"/>
      <point x="250" y="488"/>
      <point x="250" y="461" type="curve" smooth="yes"/>
      <point x="250" y="408"/>
      <point x="222" y="319"/>
      <point x="189" y="319" type="curve" smooth="yes"/>
      <point x="177" y="319"/>
      <point x="167" y="325"/>
      <point x="167" y="353" type="curve" smooth="yes"/>
      <point x="167" y="406"/>
      <point x="195" y="495"/>
    </contour>
    <contour>
      <point x="640" y="-3" type="curve" smooth="yes"/>
      <point x="757" y="-3"/>
      <point x="836" y="101"/>
      <point x="836" y="234" type="curve" smooth="yes"/>
      <point x="836" y="317"/>
      <point x="796" y="364"/>
      <point x="709" y="364" type="curve" smooth="yes"/>
      <point x="592" y="364"/>
      <point x="513" y="260"/>
      <point x="513" y="127" type="curve" smooth="yes"/>
      <point x="513" y="44"/>
      <point x="554" y="-3"/>
    </contour>
    <contour>
      <point x="693" y="269" type="curve" smooth="yes"/>
      <point x="705" y="269"/>
      <point x="716" y="262"/>
      <point x="716" y="235" type="curve" smooth="yes"/>
      <point x="716" y="181"/>
      <point x="688" y="93"/>
      <point x="655" y="93" type="curve" smooth="yes"/>
      <point x="643" y="93"/>
      <point x="633" y="99"/>
      <point x="633" y="126" type="curve" smooth="yes"/>
      <point x="633" y="180"/>
      <point x="660" y="269"/>
    </contour>
    <contour>
      <point x="179" y="0" type="line"/>
      <point x="328" y="0" type="line"/>
      <point x="704" y="587" type="line"/>
      <point x="554" y="587" type="line"/>
    </contour>
  </outline>
</glyph>
<glyph name="ampersand" format="1">
  <advance width="563"/>
  <unicode hex="0026"/>
  <outline>
    <contour>
      <point x="471" y="502" type="line"/>
      <point x="444" y="559"/>
      <point x="408" y="595"/>
      <point x="333" y="595" type="curve" smooth="yes"/>
      <point x="204" y="595"/>
      <point x="128" y="510"/>
      <point x="128" y="412" type="curve" smooth="yes"/>
      <point x="128" y="395"/>
      <point x="130" y="379"/>
      <point x="134" y="362" type="curve"/>
      <point x="50" y="316"/>
      <point x="-3" y="256"/>
      <point x="-3" y="144" type="curve" smooth="yes"/>
      <point x="-3" y="43"/>
      <point x="72" y="-11"/>
      <point x="164" y="-11" type="curve" smooth="yes"/>
      <point x="241" y="-11"/>
      <point x="306" y="14"/>
      <point x="360" y="54" type="curve"/>
      <point x="378" y="35"/>
      <point x="406" y="7"/>
      <point x="427" y="-13" type="curve"/>
      <point x="523" y="85" type="line"/>
      <point x="505" y="103"/>
      <point x="476" y="133"/>
      <point x="458" y="153" type="curve"/>
      <point x="487" y="190"/>
      <point x="510" y="230"/>
      <point x="530" y="268" type="curve"/>
      <point x="430" y="338" type="line"/>
      <point x="412" y="311"/>
      <point x="390" y="280"/>
      <point x="368" y="251" type="curve"/>
      <point x="312" y="315"/>
      <point x="277" y="371"/>
      <point x="277" y="421" type="curve" smooth="yes"/>
      <point x="277" y="458"/>
      <point x="305" y="478"/>
      <point x="339" y="478" type="curve" smooth="yes"/>
      <point x="366" y="478"/>
      <point x="381" y="462"/>
      <point x="391" y="443" type="curve"/>
    </contour>
    <contour>
      <point x="270" y="148" type="curve"/>
      <point x="248" y="131"/>
      <point x="226" y="121"/>
      <point x="206" y="121" type="curve" smooth="yes"/>
      <point x="179" y="121"/>
      <point x="156" y="136"/>
      <point x="156" y="171" type="curve" smooth="yes"/>
      <point x="156" y="203"/>
      <point x="166" y="228"/>
      <point x="186" y="253" type="curve"/>
      <point x="209" y="218"/>
      <point x="238" y="183"/>
    </contour>
  </outline>
</glyph>
<glyph name="quotesingle" format="1">
  <advance width="252"/>
  <unicode hex="0027"/>
  <outline>
    <contour>
      <point x="111" y="669" type="line"/>
      <point x="72" y="412" type="line"/>
      <point x="193" y="412" type="line"/>
      <point x="250" y="669" type="line"/>
    </contour>
  </outline>
</glyph>
<glyph name="parenleft" format="1">
  <advance width="392"/>
  <unicode hex="0028"/>
  <outline>
    <contour>
      <point x="47" y="146" type="curve" smooth="yes"/>
      <point x="47" y="-28"/>
      <point x="138" y="-135"/>
      <point x="198" y="-186" type="curve"/>
      <point x="290" y="-103" type="line"/>
      <point x="246" y="-49"/>
      <point x="199" y="13"/>
      <point x="199" y="155" type="curve" smooth="yes"/>
      <point x="199" y="346"/>
      <point x="293" y="526"/>
      <point x="437" y="629" type="curve"/>
      <point x="369" y="726" type="line"/>
      <point x="171" y="594"/>
      <point x="47" y="376"/>
    </contour>
  </outline>
</glyph>
<glyph name="comma" format="1">
  <advance width="280"/>
  <unicode hex="002C"/>
  <outline>
    <contour>
      <point x="25" y="74" type="curve" smooth="yes"/>
      <point x="25" y="29"/>
      <point x="17" y="-14"/>
      <point x="-60" y="-63" type="curve"/>
      <point x="-8" y="-148" type="line"/>
      <point x="90" y="-97"/>
      <point x="180" y="-5"/>
      <point x="180" y="95" type="curve" smooth="yes"/>
      <point x="180" y="139"/>
      <point x="159" y="166"/>
      <point x="105" y="166" type="curve" smooth="yes"/>
      <point x="50" y="166"/>
      <point x="20" y="145"/>
      <point x="20" y="145" type="curve"/>
      <point x="22" y="127"/>
      <point x="25" y="101"/>
    </contour>
  </outline>
</glyph>
<glyph name="hyphen" format="1">
  <advance width="405"/>
  <unicode hex="002D"/>
  <outline>
    <contour>
      <point x="40" y="259" type="line"/>
      <point x="343" y="259" type="line"/>
      <point x="365" y="376" type="line"/>
      <point x="63" y="376" type="line"/>
    </contour>
  </outline>
</glyph>
<glyph name="period" format="1">
  <advance width="270"/>
  <unicode hex="002E"/>
  <outline>
    <contour>
      <point x="96" y="170" type="curve" smooth="yes"/>
      <point x="33" y="170"/>
      <point x="-5" y="125"/>
      <point x="-5" y="72" type="curve" smooth="yes"/>
      <point x="-5" y="22"/>
      <point x="23" y="-13"/>
      <point x="83" y="-13" type="curve" smooth="yes"/>
      <point x="146" y="-13"/>
      <point x="185" y="32"/>
      <point x="185" y="85" type="curve" smooth="yes"/>
      <point x="185" y="138"/>
      <point x="156" y="170"/>
    </contour>
  </outline>
</glyph>
<glyph name="slash" format="1">
  <advance width="463"/>
  <unicode hex="002F"/>
  <outline>
    <contour>
      <point x="-103" y="-126" type="line"/>
      <point x="56" y="-126" type="line"/>
      <point x="525" y="729" type="line"/>
      <point x="363" y="729" type="line"/>
    </contour>
  </outline>
</glyph>
<glyph name="zero" format="1">
  <advance width="568"/>
  <unicode hex="0030"/>
  <outline>
    <contour>
      <point x="340" y="637" type="curve" smooth="yes"/>
      <point x="133" y="637"/>
      <point x="29" y="412"/>
      <point x="29" y="180" type="curve" smooth="yes"/>
      <point x="29" y="56"/>
      <point x="92" y="-16"/>
      <point x="221" y="-16" type="curve" smooth="yes"/>
      <point x="428" y="-16"/>
      <point x="532" y="209"/>
      <point x="532" y="441" type="curve" smooth="yes"/>
      <point x="532" y="565"/>
      <point x="468" y="637"/>
    </contour>
    <contour>
      <point x="325" y="516" type="curve" smooth="yes"/>
      <point x="358" y="516"/>
      <point x="369" y="475"/>
      <point x="369" y="424" type="curve" smooth="yes"/>
      <point x="369" y="286"/>
      <point x="321" y="105"/>
      <point x="236" y="105" type="curve" smooth="yes"/>
      <point x="203" y="105"/>
      <point x="193" y="146"/>
      <point x="193" y="197" type="curve" smooth="yes"/>
      <point x="193" y="334"/>
      <point x="240" y="516"/>
    </contour>
  </outline>
</glyph>
<glyph name="one" format="1">
  <advance width="400"/>
  <unicode hex="0031"/>
  <outline>
    <contour>
      <point x="93" y="0" type="line"/>
      <point x="251" y="0" type="line"/>
      <point x="373" y="629" type="line"/>
      <point x="259" y="629" type="line"/>
      <point x="179" y="552"/>
      <point x="87" y="524"/>
      <point x="15" y="504" type="curve"/>
      <point x="62" y="389" type="line"/>
      <point x="95" y="398"/>
      <point x="137" y="418"/>
      <point x="179" y="444" type="curve"/>
    </contour>
  </outline>
</glyph>
<glyph name="two" format="1">
  <advance width="499"/>
  <unicode hex="0032"/>
  <outline>
    <contour>
      <point x="115" y="470" type="line"/>
      <point x="173" y="497"/>
      <point x="212" y="510"/>
      <point x="250" y="510" type="curve" smooth="yes"/>
      <point x="283" y="510"/>
      <point x="294" y="488"/>
      <point x="294" y="462" type="curve" smooth="yes"/>
      <point x="294" y="404"/>
      <point x="246" y="363"/>
      <point x="121" y="243" type="curve" smooth="yes"/>
      <point x="-1" y="126" type="line"/>
      <point x="-1" y="0" type="line"/>
      <point x="397" y="0" type="line"/>
      <point x="421" y="126" type="line"/>
      <point x="201" y="126" type="line"/>
      <point x="297" y="212" type="line" smooth="yes"/>
      <point x="424" y="328"/>
      <point x="466" y="408"/>
      <point x="466" y="496" type="curve" smooth="yes"/>
      <point x="466" y="582"/>
      <point x="394" y="637"/>
      <point x="292" y="637" type="curve" smooth="yes"/>
      <point x="220" y="637"/>
      <point x="152" y="619"/>
      <point x="69" y="582" type="curve"/>
    </contour>
  </outline>
</glyph>
<glyph name="three" format="1">
  <advance width="503"/>
  <unicode hex="0033"/>
  <outline>
    <contour>
      <point x="312" y="637" type="curve" smooth="yes"/>
      <point x="230" y="637"/>
      <point x="165" y="619"/>
      <point x="82" y="582" type="curve"/>
      <point x="127" y="470" type="line"/>
      <point x="185" y="497"/>
      <point x="224" y="510"/>
      <point x="269" y="510" type="curve" smooth="yes"/>
      <point x="290" y="510"/>
      <point x="305" y="498"/>
      <point x="305" y="478" type="curve" smooth="yes"/>
      <point x="305" y="426"/>
      <point x="221" y="408"/>
      <point x="111" y="369" type="curve"/>
      <point x="132" y="266" type="line"/>
      <point x="159" y="271"/>
      <point x="192" y="279"/>
      <point x="224" y="279" type="curve" smooth="yes"/>
      <point x="259" y="279"/>
      <point x="279" y="252"/>
      <point x="279" y="212" type="curve" smooth="yes"/>
      <point x="279" y="158"/>
      <point x="244" y="115"/>
      <point x="185" y="115" type="curve" smooth="yes"/>
      <point x="132" y="115"/>
      <point x="93" y="134"/>
      <point x="35" y="167" type="curve"/>
      <point x="-21" y="51" type="line"/>
      <point x="50" y="7"/>
      <point x="115" y="-6"/>
      <point x="185" y="-6" type="curve" smooth="yes"/>
      <point x="352" y="-6"/>
      <point x="449" y="95"/>
      <point x="449" y="228" type="curve" smooth="yes"/>
      <point x="449" y="285"/>
      <point x="419" y="342"/>
      <point x="352" y="366" type="curve"/>
      <point x="433" y="388"/>
      <point x="475" y="436"/>
      <point x="475" y="512" type="curve" smooth="yes"/>
      <point x="475" y="587"/>
      <point x="422" y="637"/>
    </contour>
  </outline>
</glyph>
<glyph name="four" format="1">
  <advance width="532"/>
  <unicode hex="0034"/>
  <outline>
    <contour>
      <point x="298" y="422" type="line"/>
      <point x="270" y="282" type="line"/>
      <point x="175" y="282" type="line"/>
      <point x="399" y="631" type="line"/>
      <point x="243" y="631" type="line"/>
      <point x="-4" y="240" type="line"/>
      <point x="-4" y="160" type="line"/>
      <point x="246" y="160" type="line"/>
      <point x="216" y="0" type="line"/>
      <point x="374" y="0" type="line"/>
      <point x="405" y="160" type="line"/>
      <point x="477" y="160" type="line"/>
      <point x="501" y="282" type="line"/>
      <point x="429" y="282" type="line"/>
      <point x="462" y="450" type="line"/>
    </contour>
  </outline>
</glyph>
<glyph name="five" format="1">
  <advance width="490"/>
  <unicode hex="0035"/>
  <outline>
    <contour>
      <point x="181" y="115" type="curve" smooth="yes"/>
      <point x="129" y="115"/>
      <point x="89" y="134"/>
      <point x="31" y="167" type="curve"/>
      <point x="-25" y="51" type="line"/>
      <point x="47" y="7"/>
      <point x="112" y="-6"/>
      <point x="182" y="-6" type="curve" smooth="yes"/>
      <point x="348" y="-6"/>
      <point x="445" y="76"/>
      <point x="445" y="244" type="curve" smooth="yes"/>
      <point x="445" y="340"/>
      <point x="386" y="413"/>
      <point x="290" y="413" type="curve" smooth="yes"/>
      <point x="269" y="413"/>
      <point x="247" y="409"/>
      <point x="224" y="402" type="curve"/>
      <point x="255" y="500" type="line"/>
      <point x="458" y="500" type="line"/>
      <point x="483" y="626" type="line"/>
      <point x="141" y="626" type="line"/>
      <point x="48" y="315" type="line"/>
      <point x="98" y="270" type="line"/>
      <point x="144" y="288"/>
      <point x="179" y="295"/>
      <point x="212" y="295" type="curve" smooth="yes"/>
      <point x="255" y="295"/>
      <point x="275" y="268"/>
      <point x="275" y="212" type="curve" smooth="yes"/>
      <point x="275" y="143"/>
      <point x="237" y="115"/>
    </contour>
  </outline>
</glyph>
<glyph name="seven" format="1">
  <advance width="411"/>
  <unicode hex="0037"/>
  <outline>
    <contour>
      <point x="443" y="524" type="line"/>
      <point x="443" y="626" type="line"/>
      <point x="19" y="626" type="line"/>
      <point x="43" y="500" type="line"/>
      <point x="257" y="500" type="line"/>
      <point x="-11" y="0" type="line"/>
      <point x="162" y="0" type="line"/>
    </contour>
  </outline>
</glyph>
<glyph name="eight" format="1">
  <advance width="510"/>
  <unicode hex="0038"/>
  <outline>
    <contour>
      <point x="196" y="-16" type="curve" smooth="yes"/>
      <point x="92" y="-16"/>
      <point x="9" y="26"/>
      <point x="9" y="129" type="curve" smooth="yes"/>
      <point x="9" y="232"/>
      <point x="84" y="288"/>
      <point x="156" y="329" type="curve"/>
      <point x="116" y="357"/>
      <point x="81" y="391"/>
      <point x="81" y="454" type="curve" smooth="yes"/>
      <point x="81" y="564"/>
      <point x="188" y="637"/>
      <point x="323" y="637" type="curve" smooth="yes"/>
      <point x="418" y="637"/>
      <point x="489" y="590"/>
      <point x="489" y="508" type="curve" smooth="yes"/>
      <point x="489" y="416"/>
      <point x="429" y="372"/>
      <point x="363" y="334" type="curve"/>
      <point x="415" y="300"/>
      <point x="451" y="244"/>
      <point x="451" y="190" type="curve" smooth="yes"/>
      <point x="451" y="53"/>
      <point x="320" y="-16"/>
    </contour>
    <contour>
      <point x="167" y="149" type="curve" smooth="yes"/>
      <point x="167" y="114"/>
      <point x="201" y="102"/>
      <point x="220" y="102" type="curve" smooth="yes"/>
      <point x="255" y="102"/>
      <point x="289" y="130"/>
      <point x="289" y="174" type="curve" smooth="yes"/>
      <point x="289" y="197"/>
      <point x="273" y="227"/>
      <point x="248" y="254" type="curve"/>
      <point x="206" y="227"/>
      <point x="167" y="195"/>
    </contour>
    <contour>
      <point x="330" y="487" type="curve" smooth="yes"/>
      <point x="330" y="508"/>
      <point x="317" y="524"/>
      <point x="294" y="524" type="curve" smooth="yes"/>
      <point x="260" y="524"/>
      <point x="239" y="496"/>
      <point x="239" y="459" type="curve" smooth="yes"/>
      <point x="239" y="437"/>
      <point x="252" y="421"/>
      <point x="268" y="406" type="curve"/>
      <point x="311" y="431"/>
      <point x="330" y="460"/>
    </contour>
  </outline>
</glyph>
<glyph name="nine" format="1">
  <advance width="497"/>
  <unicode hex="0039"/>
  <outline>
    <contour>
      <point x="17" y="14" type="line"/>
      <point x="53" y="-6"/>
      <point x="98" y="-16"/>
      <point x="146" y="-16" type="curve" smooth="yes"/>
      <point x="378" y="-16"/>
      <point x="472" y="186"/>
      <point x="472" y="427" type="curve" smooth="yes"/>
      <point x="472" y="579"/>
      <point x="395" y="637"/>
      <point x="273" y="637" type="curve" smooth="yes"/>
      <point x="126" y="637"/>
      <point x="24" y="523"/>
      <point x="24" y="344" type="curve" smooth="yes"/>
      <point x="24" y="269"/>
      <point x="63" y="200"/>
      <point x="164" y="200" type="curve" smooth="yes"/>
      <point x="212" y="200"/>
      <point x="253" y="221"/>
      <point x="285" y="245" type="curve"/>
      <point x="263" y="169"/>
      <point x="223" y="109"/>
      <point x="159" y="109" type="curve" smooth="yes"/>
      <point x="124" y="109"/>
      <point x="98" y="113"/>
      <point x="65" y="125" type="curve"/>
    </contour>
    <contour>
      <point x="232" y="317" type="curve" smooth="yes"/>
      <point x="199" y="317"/>
      <point x="185" y="339"/>
      <point x="185" y="381" type="curve" smooth="yes"/>
      <point x="185" y="447"/>
      <point x="213" y="514"/>
      <point x="262" y="514" type="curve" smooth="yes"/>
      <point x="294" y="514"/>
      <point x="310" y="483"/>
      <point x="310" y="424" type="curve" smooth="yes"/>
      <point x="310" y="400"/>
      <point x="308" y="373"/>
      <point x="305" y="346" type="curve"/>
      <point x="287" y="333"/>
      <point x="261" y="317"/>
    </contour>
  </outline>
</glyph>
<glyph name="semicolon" format="1">
  <advance width="319"/>
  <unicode hex="003B"/>
  <outline>
    <contour>
      <point x="80" y="74" type="curve" smooth="yes"/>
      <point x="80" y="29"/>
      <point x="72" y="-14"/>
      <point x="-5" y="-63" type="curve"/>
      <point x="47" y="-148" type="line"/>
      <point x="145" y="-97"/>
      <point x="235" y="-5"/>
      <point x="235" y="95" type="curve" smooth="yes"/>
      <point x="235" y="139"/>
      <point x="214" y="166"/>
      <point x="160" y="166" type="curve" smooth="yes"/>
      <point x="105" y="166"/>
      <point x="75" y="145"/>
      <point x="75" y="145" type="curve"/>
      <point x="77" y="127"/>
      <point x="80" y="101"/>
    </contour>
    <contour>
      <point x="204" y="502" type="curve" smooth="yes"/>
      <point x="141" y="502"/>
      <point x="103" y="457"/>
      <point x="103" y="403" type="curve" smooth="yes"/>
      <point x="103" y="354"/>
      <point x="131" y="319"/>
      <point x="191" y="319" type="curve" smooth="yes"/>
      <point x="254" y="319"/>
      <point x="293" y="364"/>
      <point x="293" y="416" type="curve" smooth="yes"/>
      <point x="293" y="469"/>
      <point x="264" y="502"/>
    </contour>
  </outline>
</glyph>
<glyph name="equal" format="1">
  <advance width="534"/>
  <unicode hex="003D"/>
  <outline>
    <contour>
      <point x="85" y="326" type="line"/>
      <point x="459" y="326" type="line"/>
      <point x="482" y="448" type="line"/>
      <point x="107" y="448" type="line"/>
    </contour>
    <contour>
      <point x="52" y="150" type="line"/>
      <point x="427" y="150" type="line"/>
      <point x="449" y="272" type="line"/>
      <point x="75" y="272" type="line"/>
    </contour>
  </outline>
</glyph>
<glyph name="greater" format="1">
  <advance width="455"/>
  <unicode hex="003E"/>
  <outline>
    <contour>
      <point x="51" y="388" type="line"/>
      <point x="207" y="309" type="line" smooth="yes"/>
      <point x="219" y="303"/>
      <point x="244" y="292"/>
      <point x="257" y="288" type="curve"/>
      <point x="242" y="284"/>
      <point x="218" y="275"/>
      <point x="205" y="269" type="curve" smooth="yes"/>
      <point x="17" y="193" type="line"/>
      <point x="63" y="73" type="line"/>
      <point x="438" y="244" type="line"/>
      <point x="438" y="337" type="line"/>
      <point x="123" y="510" type="line"/>
    </contour>
  </outline>
</glyph>
<glyph name="at" format="1">
  <advance width="880"/>
  <unicode hex="0040"/>
  <outline>
    <contour>
      <point x="636" y="262" type="curve" smooth="yes"/>
      <point x="670" y="434" type="line"/>
      <point x="590" y="438" type="line"/>
      <point x="554" y="454"/>
      <point x="524" y="461"/>
      <point x="483" y="461" type="curve" smooth="yes"/>
      <point x="303" y="461"/>
      <point x="205" y="324"/>
      <point x="205" y="145" type="curve" smooth="yes"/>
      <point x="205" y="72"/>
      <point x="240" y="-8"/>
      <point x="338" y="-8" type="curve" smooth="yes"/>
      <point x="398" y="-8"/>
      <point x="456" y="26"/>
      <point x="495" y="115" type="curve" smooth="yes"/>
      <point x="508" y="144" type="line"/>
      <point x="506" y="125"/>
      <point x="503" y="108"/>
      <point x="503" y="91" type="curve" smooth="yes"/>
      <point x="503" y="34"/>
      <point x="535" y="-8"/>
      <point x="591" y="-8" type="curve" smooth="yes"/>
      <point x="760" y="-8"/>
      <point x="857" y="148"/>
      <point x="857" y="363" type="curve" smooth="yes"/>
      <point x="857" y="552"/>
      <point x="727" y="639"/>
      <point x="539" y="639" type="curve" smooth="yes"/>
      <point x="260" y="639"/>
      <point x="12" y="446"/>
      <point x="12" y="105" type="curve" smooth="yes"/>
      <point x="12" y="-109"/>
      <point x="150" y="-186"/>
      <point x="314" y="-186" type="curve" smooth="yes"/>
      <point x="427" y="-186"/>
      <point x="525" y="-139"/>
      <point x="525" y="-139" type="curve"/>
      <point x="494" y="-37" type="line"/>
      <point x="494" y="-37"/>
      <point x="414" y="-69"/>
      <point x="337" y="-69" type="curve" smooth="yes"/>
      <point x="193" y="-69"/>
      <point x="143" y="22"/>
      <point x="143" y="122" type="curve" smooth="yes"/>
      <point x="143" y="368"/>
      <point x="324" y="523"/>
      <point x="514" y="523" type="curve" smooth="yes"/>
      <point x="656" y="523"/>
      <point x="726" y="465"/>
      <point x="726" y="341" type="curve" smooth="yes"/>
      <point x="726" y="252"/>
      <point x="683" y="104"/>
      <point x="638" y="104" type="curve" smooth="yes"/>
      <point x="620" y="104"/>
      <point x="619" y="125"/>
      <point x="619" y="146" type="curve" smooth="yes"/>
      <point x="619" y="182"/>
      <point x="628" y="222"/>
    </contour>
    <contour>
      <point x="385" y="106" type="curve" smooth="yes"/>
      <point x="366" y="106"/>
      <point x="362" y="122"/>
      <point x="362" y="143" type="curve" smooth="yes"/>
      <point x="362" y="207"/>
      <point x="387" y="350"/>
      <point x="476" y="350" type="curve" smooth="yes"/>
      <point x="489" y="350"/>
      <point x="496" y="349"/>
      <point x="503" y="347" type="curve"/>
      <point x="495" y="312" type="line" smooth="yes"/>
      <point x="473" y="225"/>
      <point x="424" y="106"/>
    </contour>
  </outline>
</glyph>
<glyph name="A" format="1">
  <advance width="604"/>
  <unicode hex="0041"/>
  <outline>
    <contour>
      <point x="374" y="669" type="move" name="topUC"/>
    </contour>
    <contour>
      <point x="-60" y="19" type="line"/>
      <point x="98" y="-8" type="line"/>
      <point x="184" y="160" type="line"/>
      <point x="380" y="160" type="line"/>
      <point x="405" y="0" type="line"/>
      <point x="571" y="0" type="line"/>
      <point x="443" y="669" type="line"/>
      <point x="305" y="669" type="line"/>
    </contour>
    <contour>
      <point x="361" y="281" type="curve"/>
      <point x="245" y="281" type="line"/>
      <point x="278" y="348"/>
      <point x="312" y="416"/>
      <point x="336" y="463" type="curve"/>
      <point x="342" y="418"/>
      <point x="350" y="349"/>
    </contour>
  </outline>
</glyph>
<glyph name="B" format="1">
  <advance width="559"/>
  <unicode hex="0042"/>
  <outline>
    <contour>
      <point x="7" y="0" type="line"/>
      <point x="53" y="0" type="line" smooth="yes"/>
      <point x="66" y="0"/>
      <point x="143" y="-1"/>
      <point x="212" y="-1" type="curve" smooth="yes"/>
      <point x="378" y="-1"/>
      <point x="518" y="78"/>
      <point x="518" y="223" type="curve" smooth="yes"/>
      <point x="518" y="285"/>
      <point x="492" y="325"/>
      <point x="423" y="352" type="curve"/>
      <point x="505" y="388"/>
      <point x="551" y="441"/>
      <point x="551" y="522" type="curve" smooth="yes"/>
      <point x="551" y="636"/>
      <point x="462" y="675"/>
      <point x="353" y="675" type="curve" smooth="yes"/>
      <point x="319" y="675"/>
      <point x="282" y="670"/>
      <point x="253" y="666" type="curve"/>
      <point x="137" y="673" type="line"/>
    </contour>
    <contour>
      <point x="272" y="289" type="line" smooth="yes"/>
      <point x="323" y="289"/>
      <point x="346" y="266"/>
      <point x="346" y="214" type="curve" smooth="yes"/>
      <point x="346" y="143"/>
      <point x="284" y="108"/>
      <point x="224" y="108" type="curve" smooth="yes"/>
      <point x="190" y="108" type="line"/>
      <point x="224" y="289" type="line"/>
    </contour>
    <contour>
      <point x="311" y="567" type="curve" smooth="yes"/>
      <point x="358" y="567"/>
      <point x="381" y="547"/>
      <point x="381" y="494" type="curve" smooth="yes"/>
      <point x="381" y="443"/>
      <point x="344" y="402"/>
      <point x="272" y="402" type="curve" smooth="yes"/>
      <point x="247" y="402" type="line"/>
      <point x="278" y="563" type="line"/>
      <point x="289" y="566"/>
      <point x="299" y="567"/>
    </contour>
  </outline>
</glyph>
<glyph name="C" format="1">
  <advance width="524"/>
  <unicode hex="0043"/>
  <outline>
    <contour>
      <point x="265" y="0" type="move" name="bottom"/>
    </contour>
    <contour>
      <point x="557" y="555" type="line"/>
      <point x="544" y="625"/>
      <point x="502" y="681"/>
      <point x="389" y="681" type="curve" smooth="yes"/>
      <point x="151" y="681"/>
      <point x="32" y="452"/>
      <point x="32" y="215" type="curve" smooth="yes"/>
      <point x="32" y="71"/>
      <point x="98" y="-13"/>
      <point x="264" y="-13" type="curve" smooth="yes"/>
      <point x="350" y="-13"/>
      <point x="405" y="5"/>
      <point x="460" y="29" type="curve"/>
      <point x="433" y="144" type="line"/>
      <point x="378" y="122"/>
      <point x="345" y="109"/>
      <point x="297" y="109" type="curve" smooth="yes"/>
      <point x="227" y="109"/>
      <point x="206" y="164"/>
      <point x="206" y="233" type="curve" smooth="yes"/>
      <point x="206" y="366"/>
      <point x="256" y="557"/>
      <point x="372" y="557" type="curve" smooth="yes"/>
      <point x="408" y="557"/>
      <point x="422" y="530"/>
      <point x="429" y="499" type="curve"/>
    </contour>
  </outline>
</glyph>
<glyph name="D" format="1">
  <advance width="651"/>
  <unicode hex="0044"/>
  <outline>
    <contour>
      <point x="7" y="0" type="line"/>
      <point x="68" y="0" type="line" smooth="yes"/>
      <point x="82" y="0"/>
      <point x="143" y="-2"/>
      <point x="208" y="-2" type="curve" smooth="yes"/>
      <point x="521" y="-2"/>
      <point x="619" y="190"/>
      <point x="619" y="453" type="curve" smooth="yes"/>
      <point x="619" y="597"/>
      <point x="550" y="681"/>
      <point x="387" y="681" type="curve" smooth="yes"/>
      <point x="338" y="681"/>
      <point x="284" y="675"/>
      <point x="241" y="666" type="curve"/>
      <point x="137" y="674" type="line"/>
    </contour>
    <contour>
      <point x="354" y="559" type="curve" smooth="yes"/>
      <point x="423" y="559"/>
      <point x="446" y="506"/>
      <point x="446" y="437" type="curve" smooth="yes"/>
      <point x="446" y="269"/>
      <point x="386" y="125"/>
      <point x="236" y="125" type="curve" smooth="yes"/>
      <point x="194" y="125" type="line"/>
      <point x="276" y="551" type="line"/>
      <point x="300" y="557"/>
      <point x="323" y="559"/>
    </contour>
  </outline>
</glyph>
<glyph name="E" format="1">
  <advance width="520"/>
  <unicode hex="0045"/>
  <outline>
    <contour>
      <point x="331" y="669" type="move" name="topUC"/>
    </contour>
    <contour>
      <point x="7" y="0" type="line"/>
      <point x="448" y="0" type="line"/>
      <point x="448" y="121" type="line"/>
      <point x="192" y="121" type="line"/>
      <point x="226" y="290" type="line"/>
      <point x="427" y="290" type="line"/>
      <point x="453" y="411" type="line"/>
      <point x="248" y="411" type="line"/>
      <point x="276" y="548" type="line"/>
      <point x="526" y="548" type="line"/>
      <point x="553" y="669" type="line"/>
      <point x="137" y="669" type="line"/>
    </contour>
  </outline>
</glyph>
<glyph name="G" format="1">
  <advance width="631"/>
  <unicode hex="0047"/>
  <outline>
    <contour>
      <point x="350" y="-25" type="line" smooth="yes"/>
      <point x="341" y="-64"/>
      <point x="307" y="-91"/>
      <point x="260" y="-91" type="curve" smooth="yes"/>
      <point x="216" y="-91"/>
      <point x="171" y="-77"/>
      <point x="84" y="-39" type="curve"/>
      <point x="28" y="-162" type="line"/>
      <point x="80" y="-189"/>
      <point x="172" y="-222"/>
      <point x="253" y="-222" type="curve" smooth="yes"/>
      <point x="384" y="-222"/>
      <point x="478" y="-133"/>
      <point x="500" y="-20" type="curve" smooth="yes"/>
      <point x="571" y="350" type="line"/>
      <point x="413" y="350" type="line"/>
      <point x="390" y="232" type="line" smooth="yes"/>
      <point x="376" y="162"/>
      <point x="322" y="112"/>
      <point x="280" y="112" type="curve" smooth="yes"/>
      <point x="231" y="112"/>
      <point x="211" y="164"/>
      <point x="211" y="233" type="curve" smooth="yes"/>
      <point x="211" y="365"/>
      <point x="263" y="557"/>
      <point x="387" y="557" type="curve" smooth="yes"/>
      <point x="446" y="557"/>
      <point x="460" y="528"/>
      <point x="471" y="499" type="curve"/>
      <point x="598" y="557" type="line"/>
      <point x="582" y="625"/>
      <point x="544" y="681"/>
      <point x="419" y="681" type="curve" smooth="yes"/>
      <point x="155" y="681"/>
      <point x="38" y="452"/>
      <point x="38" y="215" type="curve" smooth="yes"/>
      <point x="38" y="71"/>
      <point x="100" y="-12"/>
      <point x="226" y="-12" type="curve" smooth="yes"/>
      <point x="289" y="-12"/>
      <point x="341" y="22"/>
      <point x="374" y="77" type="curve"/>
    </contour>
  </outline>
</glyph>
<glyph name="H" format="1">
  <advance width="661"/>
  <unicode hex="0048"/>
  <outline>
    <contour>
      <point x="362" y="0" type="line"/>
      <point x="524" y="0" type="line"/>
      <point x="654" y="669" type="line"/>
      <point x="492" y="669" type="line"/>
      <point x="441" y="411" type="line"/>
      <point x="247" y="411" type="line"/>
      <point x="297" y="669" type="line"/>
      <point x="135" y="669" type="line"/>
      <point x="5" y="0" type="line"/>
      <point x="167" y="0" type="line"/>
      <point x="223" y="290" type="line"/>
      <point x="418" y="290" type="line"/>
    </contour>
  </outline>
</glyph>
<glyph name="I" format="1">
  <advance width="307"/>
  <unicode hex="0049"/>
  <outline>
    <contour>
      <point x="203" y="669" type="move" name="topUC"/>
    </contour>
    <contour>
      <point x="7" y="0" type="line"/>
      <point x="169" y="0" type="line"/>
      <point x="299" y="669" type="line"/>
      <point x="137" y="669" type="line"/>
    </contour>
  </outline>
</glyph>
<glyph name="J" format="1">
  <advance width="300"/>
  <unicode hex="004A"/>
  <outline>
    <contour>
      <point x="7" y="38" type="line" smooth="yes"/>
      <point x="-6" y="-30"/>
      <point x="-40" y="-74"/>
      <point x="-123" y="-112" type="curve"/>
      <point x="-66" y="-223" type="line"/>
      <point x="62" y="-162"/>
      <point x="142" y="-105"/>
      <point x="170" y="41" type="curve" smooth="yes"/>
      <point x="292" y="669" type="line"/>
      <point x="130" y="669" type="line"/>
    </contour>
  </outline>
</glyph>
<glyph name="L" format="1">
  <advance width="440"/>
  <unicode hex="004C"/>
  <outline>
    <contour>
      <point x="12" y="0" type="line"/>
      <point x="417" y="0" type="line"/>
      <point x="417" y="121" type="line"/>
      <point x="198" y="121" type="line"/>
      <point x="305" y="669" type="line"/>
      <point x="143" y="669" type="line"/>
    </contour>
  </outline>
</glyph>
<glyph name="N" format="1">
  <advance width="686"/>
  <unicode hex="004E"/>
  <outline>
    <contour>
      <point x="391" y="669" type="move" name="topUC"/>
    </contour>
    <contour>
      <point x="462" y="326" type="line" smooth="yes"/>
      <point x="458" y="303"/>
      <point x="454" y="261"/>
      <point x="452" y="231" type="curve"/>
      <point x="440" y="260"/>
      <point x="424" y="303"/>
      <point x="413" y="329" type="curve" smooth="yes"/>
      <point x="265" y="669" type="line"/>
      <point x="131" y="669" type="line"/>
      <point x="7" y="18" type="line"/>
      <point x="161" y="-6" type="line"/>
      <point x="217" y="341" type="line" smooth="yes"/>
      <point x="221" y="367"/>
      <point x="224" y="406"/>
      <point x="227" y="435" type="curve"/>
      <point x="237" y="409"/>
      <point x="251" y="369"/>
      <point x="263" y="343" type="curve" smooth="yes"/>
      <point x="415" y="-1" type="line"/>
      <point x="550" y="-1" type="line"/>
      <point x="673" y="653" type="line"/>
      <point x="518" y="678" type="line"/>
    </contour>
  </outline>
</glyph>
<glyph name="O" format="1">
  <advance width="669"/>
  <unicode hex="004F"/>
  <outline>
    <contour>
      <point x="399" y="669" type="move" name="topUC"/>
    </contour>
    <contour>
      <point x="403" y="681" type="curve" smooth="yes"/>
      <point x="150" y="681"/>
      <point x="32" y="452"/>
      <point x="32" y="215" type="curve" smooth="yes"/>
      <point x="32" y="71"/>
      <point x="100" y="-15"/>
      <point x="264" y="-15" type="curve" smooth="yes"/>
      <point x="518" y="-15"/>
      <point x="636" y="217"/>
      <point x="636" y="453" type="curve" smooth="yes"/>
      <point x="636" y="598"/>
      <point x="567" y="681"/>
    </contour>
    <contour>
      <point x="372" y="557" type="curve" smooth="yes"/>
      <point x="441" y="557"/>
      <point x="463" y="505"/>
      <point x="463" y="437" type="curve" smooth="yes"/>
      <point x="463" y="303"/>
      <point x="412" y="109"/>
      <point x="297" y="109" type="curve" smooth="yes"/>
      <point x="227" y="109"/>
      <point x="206" y="164"/>
      <point x="206" y="233" type="curve" smooth="yes"/>
      <point x="206" y="366"/>
      <point x="257" y="557"/>
    </contour>
  </outline>
</glyph>
<glyph name="P" format="1">
  <advance width="554"/>
  <unicode hex="0050"/>
  <outline>
    <contour>
      <point x="7" y="0" type="line"/>
      <point x="169" y="0" type="line"/>
      <point x="217" y="250" type="line"/>
      <point x="235" y="248"/>
      <point x="252" y="248"/>
      <point x="271" y="248" type="curve" smooth="yes"/>
      <point x="409" y="248"/>
      <point x="551" y="336"/>
      <point x="551" y="515" type="curve" smooth="yes"/>
      <point x="551" y="636"/>
      <point x="462" y="675"/>
      <point x="345" y="675" type="curve" smooth="yes"/>
      <point x="308" y="675"/>
      <point x="274" y="671"/>
      <point x="248" y="666" type="curve"/>
      <point x="137" y="673" type="line"/>
    </contour>
    <contour>
      <point x="311" y="567" type="curve" smooth="yes"/>
      <point x="354" y="567"/>
      <point x="381" y="547"/>
      <point x="381" y="494" type="curve" smooth="yes"/>
      <point x="381" y="418"/>
      <point x="332" y="367"/>
      <point x="259" y="367" type="curve" smooth="yes"/>
      <point x="240" y="367" type="line"/>
      <point x="278" y="565" type="line"/>
      <point x="289" y="567"/>
      <point x="299" y="567"/>
    </contour>
  </outline>
</glyph>
<glyph name="Q" format="1">
  <advance width="669"/>
  <unicode hex="0051"/>
  <outline>
    <contour>
      <point x="533" y="-53" type="line"/>
      <point x="465" y="-93"/>
      <point x="399" y="-125"/>
      <point x="328" y="-125" type="curve" smooth="yes"/>
      <point x="295" y="-125"/>
      <point x="259" y="-115"/>
      <point x="241" y="-77" type="curve"/>
      <point x="450" y="-55"/>
      <point x="636" y="183"/>
      <point x="636" y="453" type="curve" smooth="yes"/>
      <point x="636" y="598"/>
      <point x="567" y="681"/>
      <point x="403" y="681" type="curve" smooth="yes"/>
      <point x="181" y="681"/>
      <point x="47" y="502"/>
      <point x="47" y="348" type="curve" smooth="yes"/>
      <point x="47" y="231"/>
      <point x="135" y="166"/>
      <point x="232" y="166" type="curve" smooth="yes"/>
      <point x="243" y="166"/>
      <point x="262" y="166"/>
      <point x="292" y="175" type="curve"/>
      <point x="304" y="287" type="line"/>
      <point x="249" y="294"/>
      <point x="223" y="307"/>
      <point x="223" y="353" type="curve" smooth="yes"/>
      <point x="223" y="442"/>
      <point x="283" y="557"/>
      <point x="370" y="557" type="curve" smooth="yes"/>
      <point x="440" y="557"/>
      <point x="463" y="506"/>
      <point x="463" y="437" type="curve" smooth="yes"/>
      <point x="463" y="230"/>
      <point x="328" y="17"/>
      <point x="175" y="17" type="curve" smooth="yes"/>
      <point x="164" y="17"/>
      <point x="147" y="17"/>
      <point x="123" y="23" type="curve"/>
      <point x="81" y="-59" type="line"/>
      <point x="110" y="-212"/>
      <point x="210" y="-258"/>
      <point x="319" y="-258" type="curve" smooth="yes"/>
      <point x="410" y="-258"/>
      <point x="511" y="-221"/>
      <point x="586" y="-174" type="curve"/>
    </contour>
  </outline>
</glyph>
<glyph name="S" format="1">
  <advance width="517"/>
  <unicode hex="0053"/>
  <outline>
    <contour>
      <point x="305" y="681" type="curve" smooth="yes"/>
      <point x="436" y="681"/>
      <point x="473" y="616"/>
      <point x="494" y="550" type="curve"/>
      <point x="368" y="492" type="line"/>
      <point x="353" y="534"/>
      <point x="341" y="557"/>
      <point x="305" y="557" type="curve" smooth="yes"/>
      <point x="267" y="557"/>
      <point x="242" y="532"/>
      <point x="242" y="501" type="curve" smooth="yes"/>
      <point x="242" y="463"/>
      <point x="261" y="447"/>
      <point x="289" y="427" type="curve" smooth="yes"/>
      <point x="377" y="362" type="line" smooth="yes"/>
      <point x="429" y="324"/>
      <point x="461" y="271"/>
      <point x="461" y="197" type="curve" smooth="yes"/>
      <point x="461" y="55"/>
      <point x="336" y="-13"/>
      <point x="200" y="-13" type="curve" smooth="yes"/>
      <point x="103" y="-13"/>
      <point x="33" y="13"/>
      <point x="-23" y="43" type="curve"/>
      <point x="47" y="167" type="line"/>
      <point x="96" y="138"/>
      <point x="145" y="112"/>
      <point x="197" y="112" type="curve" smooth="yes"/>
      <point x="251" y="112"/>
      <point x="287" y="135"/>
      <point x="287" y="184" type="curve" smooth="yes"/>
      <point x="287" y="223"/>
      <point x="267" y="245"/>
      <point x="236" y="267" type="curve" smooth="yes"/>
      <point x="165" y="319" type="line" smooth="yes"/>
      <point x="102" y="366"/>
      <point x="68" y="414"/>
      <point x="68" y="496" type="curve" smooth="yes"/>
      <point x="68" y="613"/>
      <point x="170" y="681"/>
    </contour>
  </outline>
</glyph>
<glyph name="U" format="1">
  <advance width="656"/>
  <unicode hex="0055"/>
  <outline>
    <contour>
      <point x="390" y="669" type="move" name="topUC"/>
    </contour>
    <contour>
      <point x="125" y="669" type="line"/>
      <point x="45" y="259" type="line" smooth="yes"/>
      <point x="40" y="234"/>
      <point x="37" y="209"/>
      <point x="37" y="187" type="curve" smooth="yes"/>
      <point x="37" y="76"/>
      <point x="95" y="-7"/>
      <point x="256" y="-7" type="curve" smooth="yes"/>
      <point x="452" y="-7"/>
      <point x="541" y="112"/>
      <point x="568" y="251" type="curve" smooth="yes"/>
      <point x="649" y="669" type="line"/>
      <point x="487" y="669" type="line"/>
      <point x="408" y="268" type="line" smooth="yes"/>
      <point x="390" y="177"/>
      <point x="348" y="112"/>
      <point x="283" y="112" type="curve" smooth="yes"/>
      <point x="233" y="112"/>
      <point x="202" y="146"/>
      <point x="202" y="208" type="curve" smooth="yes"/>
      <point x="202" y="224"/>
      <point x="203" y="241"/>
      <point x="207" y="260" type="curve" smooth="yes"/>
      <point x="287" y="669" type="line"/>
    </contour>
  </outline>
</glyph>
<glyph name="V" format="1">
  <advance width="596"/>
  <unicode hex="0056"/>
  <outline>
    <contour>
      <point x="654" y="642" type="line"/>
      <point x="498" y="678" type="line"/>
      <point x="304" y="292" type="line" smooth="yes"/>
      <point x="290" y="266"/>
      <point x="271" y="224"/>
      <point x="263" y="205" type="curve"/>
      <point x="260" y="228"/>
      <point x="255" y="265"/>
      <point x="251" y="292" type="curve" smooth="yes"/>
      <point x="196" y="669" type="line"/>
      <point x="27" y="669" type="line"/>
      <point x="155" y="0" type="line"/>
      <point x="293" y="0" type="line"/>
    </contour>
  </outline>
</glyph>
<glyph name="W" format="1">
  <advance width="857"/>
  <unicode hex="0057"/>
  <outline>
    <contour>
      <point x="454" y="0" type="line"/>
      <point x="592" y="0" type="line"/>
      <point x="925" y="640" type="line"/>
      <point x="769" y="677" type="line"/>
      <point x="610" y="310" type="line" smooth="yes"/>
      <point x="603" y="293"/>
      <point x="583" y="246"/>
      <point x="573" y="217" type="curve"/>
      <point x="573" y="247"/>
      <point x="572" y="291"/>
      <point x="571" y="310" type="curve" smooth="yes"/>
      <point x="554" y="669" type="line"/>
      <point x="406" y="669" type="line"/>
      <point x="255" y="322" type="line" smooth="yes"/>
      <point x="247" y="304"/>
      <point x="227" y="254"/>
      <point x="219" y="226" type="curve"/>
      <point x="219" y="257"/>
      <point x="218" y="300"/>
      <point x="218" y="322" type="curve" smooth="yes"/>
      <point x="206" y="669" type="line"/>
      <point x="37" y="669" type="line"/>
      <point x="101" y="0" type="line"/>
      <point x="232" y="0" type="line"/>
      <point x="384" y="318" type="line" smooth="yes"/>
      <point x="391" y="332"/>
      <point x="412" y="378"/>
      <point x="422" y="409" type="curve"/>
      <point x="422" y="377"/>
      <point x="426" y="334"/>
      <point x="427" y="317" type="curve" smooth="yes"/>
    </contour>
  </outline>
</glyph>
<glyph name="X" format="1">
  <advance width="582"/>
  <unicode hex="0058"/>
  <outline>
    <contour>
      <point x="104" y="-8" type="line"/>
      <point x="249" y="205" type="line" smooth="yes"/>
      <point x="257" y="217"/>
      <point x="269" y="234"/>
      <point x="281" y="255" type="curve"/>
      <point x="288" y="235"/>
      <point x="294" y="217"/>
      <point x="299" y="205" type="curve" smooth="yes"/>
      <point x="371" y="0" type="line"/>
      <point x="542" y="0" type="line"/>
      <point x="401" y="348" type="line"/>
      <point x="615" y="630" type="line"/>
      <point x="476" y="679" type="line"/>
      <point x="361" y="509" type="line" smooth="yes"/>
      <point x="352" y="496"/>
      <point x="337" y="473"/>
      <point x="327" y="458" type="curve"/>
      <point x="322" y="474"/>
      <point x="314" y="497"/>
      <point x="309" y="510" type="curve" smooth="yes"/>
      <point x="250" y="669" type="line"/>
      <point x="80" y="669" type="line"/>
      <point x="209" y="367" type="line"/>
      <point x="-48" y="28" type="line"/>
    </contour>
  </outline>
</glyph>
<glyph name="Y" format="1">
  <advance width="469"/>
  <unicode hex="0059"/>
  <outline>
    <contour>
      <point x="284" y="669" type="move" name="topUC"/>
    </contour>
    <contour>
      <point x="268" y="0" type="line"/>
      <point x="268" y="38" type="line" smooth="yes"/>
      <point x="268" y="345"/>
      <point x="387" y="466"/>
      <point x="536" y="608" type="curve"/>
      <point x="440" y="685" type="line"/>
      <point x="377" y="643"/>
      <point x="302" y="569"/>
      <point x="244" y="457" type="curve"/>
      <point x="192" y="669" type="line"/>
      <point x="28" y="669" type="line"/>
      <point x="152" y="273" type="line"/>
      <point x="123" y="205"/>
      <point x="107" y="126"/>
      <point x="107" y="40" type="curve" smooth="yes"/>
      <point x="107" y="0" type="line"/>
    </contour>
  </outline>
</glyph>
<glyph name="Z" format="1">
  <advance width="512"/>
  <unicode hex="005A"/>
  <outline>
    <contour>
      <point x="452" y="0" type="line"/>
      <point x="452" y="122" type="line"/>
      <point x="243" y="122" type="line" smooth="yes"/>
      <point x="226" y="122"/>
      <point x="207" y="121"/>
      <point x="194" y="119" type="curve"/>
      <point x="524" y="582" type="line"/>
      <point x="524" y="669" type="line"/>
      <point x="104" y="669" type="line"/>
      <point x="80" y="545" type="line"/>
      <point x="267" y="545" type="line" smooth="yes"/>
      <point x="280" y="545"/>
      <point x="302" y="548"/>
      <point x="314" y="549" type="curve"/>
      <point x="-18" y="85" type="line"/>
      <point x="-18" y="0" type="line"/>
    </contour>
  </outline>
</glyph>
<glyph name="backslash" format="1">
  <advance width="441"/>
  <unicode hex="005C"/>
  <outline>
    <contour>
      <point x="246" y="729" type="line"/>
      <point x="98" y="729" type="line"/>
      <point x="247" y="-126" type="line"/>
      <point x="392" y="-126" type="line"/>
    </contour>
  </outline>
</glyph>
<glyph name="bracketright" format="1">
  <advance width="434"/>
  <unicode hex="005D"/>
  <outline>
    <contour>
      <point x="374" y="720" type="line"/>
      <point x="112" y="720" type="line"/>
      <point x="90" y="598" type="line"/>
      <point x="201" y="598" type="line"/>
      <point x="72" y="-64" type="line"/>
      <point x="-36" y="-64" type="line"/>
      <point x="-60" y="-186" type="line"/>
      <point x="197" y="-186" type="line"/>
    </contour>
  </outline>
</glyph>
<glyph name="underscore" format="1">
  <advance width="487"/>
  <unicode hex="005F"/>
  <outline>
    <contour>
      <point x="-22" y="-180" type="line"/>
      <point x="473" y="-180" type="line"/>
      <point x="494" y="-63" type="line"/>
      <point x="1" y="-63" type="line"/>
    </contour>
  </outline>
</glyph>
<glyph name="b" format="1">
  <advance width="515"/>
  <unicode hex="0062"/>
  <outline>
    <contour>
      <point x="493" y="330" type="curve" smooth="yes"/>
      <point x="493" y="411"/>
      <point x="456" y="502"/>
      <point x="356" y="502" type="curve" smooth="yes"/>
      <point x="303" y="502"/>
      <point x="257" y="472"/>
      <point x="221" y="413" type="curve"/>
      <point x="244" y="469"/>
      <point x="261" y="517"/>
      <point x="270" y="562" type="curve" smooth="yes"/>
      <point x="302" y="725" type="line"/>
      <point x="144" y="705" type="line"/>
      <point x="17" y="48" type="line"/>
      <point x="82" y="15"/>
      <point x="144" y="-9"/>
      <point x="207" y="-9" type="curve" smooth="yes"/>
      <point x="392" y="-9"/>
      <point x="493" y="139"/>
    </contour>
    <contour>
      <point x="308" y="384" type="curve" smooth="yes"/>
      <point x="327" y="384"/>
      <point x="332" y="361"/>
      <point x="332" y="333" type="curve" smooth="yes"/>
      <point x="332" y="263"/>
      <point x="306" y="106"/>
      <point x="213" y="106" type="curve" smooth="yes"/>
      <point x="200" y="106"/>
      <point x="193" y="107"/>
      <point x="183" y="110" type="curve"/>
      <point x="193" y="151" type="line" smooth="yes"/>
      <point x="217" y="259"/>
      <point x="268" y="384"/>
    </contour>
  </outline>
</glyph>
<glyph name="c" format="1">
  <advance width="402"/>
  <unicode hex="0063"/>
  <outline>
    <contour>
      <point x="211" y="0" type="move" name="bottom"/>
    </contour>
    <contour>
      <point x="327" y="129" type="line"/>
      <point x="309" y="123"/>
      <point x="253" y="105"/>
      <point x="230" y="105" type="curve" smooth="yes"/>
      <point x="202" y="105"/>
      <point x="183" y="120"/>
      <point x="183" y="165" type="curve" smooth="yes"/>
      <point x="183" y="252"/>
      <point x="216" y="385"/>
      <point x="283" y="385" type="curve" smooth="yes"/>
      <point x="306" y="385"/>
      <point x="309" y="365"/>
      <point x="315" y="349" type="curve"/>
      <point x="429" y="393" type="line"/>
      <point x="415" y="453"/>
      <point x="385" y="505"/>
      <point x="304" y="505" type="curve" smooth="yes"/>
      <point x="123" y="505"/>
      <point x="22" y="347"/>
      <point x="22" y="163" type="curve" smooth="yes"/>
      <point x="22" y="75"/>
      <point x="66" y="-13"/>
      <point x="201" y="-13" type="curve" smooth="yes"/>
      <point x="281" y="-13"/>
      <point x="359" y="22"/>
      <point x="362" y="23" type="curve"/>
    </contour>
  </outline>
</glyph>
<glyph name="d" format="1">
  <advance width="518"/>
  <unicode hex="0064"/>
  <outline>
    <contour>
      <point x="552" y="725" type="line"/>
      <point x="396" y="705" type="line"/>
      <point x="356" y="498" type="line"/>
      <point x="339" y="501"/>
      <point x="323" y="502"/>
      <point x="309" y="502" type="curve" smooth="yes"/>
      <point x="123" y="502"/>
      <point x="22" y="354"/>
      <point x="22" y="163" type="curve" smooth="yes"/>
      <point x="22" y="81"/>
      <point x="59" y="-9"/>
      <point x="159" y="-9" type="curve" smooth="yes"/>
      <point x="221" y="-9"/>
      <point x="276" y="27"/>
      <point x="319" y="118" type="curve" smooth="yes"/>
      <point x="332" y="146" type="line"/>
      <point x="329" y="119"/>
      <point x="329" y="100"/>
      <point x="329" y="84" type="curve" smooth="yes"/>
      <point x="329" y="44"/>
      <point x="345" y="11"/>
      <point x="365" y="-12" type="curve"/>
      <point x="491" y="38" type="line"/>
      <point x="464" y="79"/>
      <point x="451" y="114"/>
      <point x="451" y="170" type="curve" smooth="yes"/>
      <point x="451" y="186"/>
      <point x="452" y="205"/>
      <point x="456" y="225" type="curve" smooth="yes"/>
    </contour>
    <contour>
      <point x="207" y="109" type="curve" smooth="yes"/>
      <point x="188" y="109"/>
      <point x="184" y="132"/>
      <point x="184" y="160" type="curve" smooth="yes"/>
      <point x="184" y="230"/>
      <point x="210" y="387"/>
      <point x="302" y="387" type="curve" smooth="yes"/>
      <point x="316" y="387"/>
      <point x="324" y="386"/>
      <point x="332" y="383" type="curve"/>
      <point x="322" y="338" type="line" smooth="yes"/>
      <point x="299" y="241"/>
      <point x="248" y="109"/>
    </contour>
  </outline>
</glyph>
<glyph name="g" format="1">
  <advance width="539"/>
  <unicode hex="0067"/>
  <outline>
    <contour>
      <point x="432" y="478" type="line"/>
      <point x="400" y="492"/>
      <point x="367" y="502"/>
      <point x="317" y="502" type="curve" smooth="yes"/>
      <point x="132" y="502"/>
      <point x="31" y="354"/>
      <point x="31" y="163" type="curve" smooth="yes"/>
      <point x="31" y="81"/>
      <point x="67" y="-9"/>
      <point x="167" y="-9" type="curve" smooth="yes"/>
      <point x="229" y="-9"/>
      <point x="285" y="27"/>
      <point x="327" y="118" type="curve" smooth="yes"/>
      <point x="340" y="147" type="line"/>
      <point x="337" y="116"/>
      <point x="332" y="84"/>
      <point x="332" y="62" type="curve" smooth="yes"/>
      <point x="332" y="25"/>
      <point x="333" y="13"/>
      <point x="333" y="-12" type="curve" smooth="yes"/>
      <point x="333" y="-52"/>
      <point x="306" y="-89"/>
      <point x="251" y="-89" type="curve" smooth="yes"/>
      <point x="197" y="-89"/>
      <point x="128" y="-63"/>
      <point x="80" y="-43" type="curve"/>
      <point x="24" y="-162" type="line"/>
      <point x="70" y="-184"/>
      <point x="152" y="-222"/>
      <point x="260" y="-222" type="curve" smooth="yes"/>
      <point x="389" y="-222"/>
      <point x="472" y="-158"/>
      <point x="472" y="-27" type="curve" smooth="yes"/>
      <point x="472" y="45"/>
      <point x="456" y="86"/>
      <point x="456" y="156" type="curve" smooth="yes"/>
      <point x="456" y="198"/>
      <point x="472" y="273"/>
      <point x="512" y="473" type="curve"/>
    </contour>
    <contour>
      <point x="216" y="109" type="curve" smooth="yes"/>
      <point x="196" y="109"/>
      <point x="192" y="132"/>
      <point x="192" y="160" type="curve" smooth="yes"/>
      <point x="192" y="230"/>
      <point x="218" y="387"/>
      <point x="311" y="387" type="curve" smooth="yes"/>
      <point x="323" y="387"/>
      <point x="331" y="385"/>
      <point x="340" y="383" type="curve"/>
      <point x="333" y="351" type="line" smooth="yes"/>
      <point x="309" y="241"/>
      <point x="256" y="109"/>
    </contour>
  </outline>
</glyph>
<glyph name="i" format="1">
  <advance width="296"/>
  <unicode hex="0069"/>
  <outline>
    <contour>
      <point x="211" y="724" type="curve" smooth="yes"/>
      <point x="153" y="724"/>
      <point x="117" y="682"/>
      <point x="117" y="634" type="curve" smooth="yes"/>
      <point x="117" y="588"/>
      <point x="143" y="555"/>
      <point x="200" y="555" type="curve" smooth="yes"/>
      <point x="257" y="555"/>
      <point x="294" y="596"/>
      <point x="294" y="644" type="curve" smooth="yes"/>
      <point x="294" y="693"/>
      <point x="268" y="724"/>
    </contour>
    <contour>
      <point x="138" y="-7" type="curve" smooth="yes"/>
      <point x="194" y="-7"/>
      <point x="247" y="18"/>
      <point x="247" y="18" type="curve"/>
      <point x="247" y="126" type="line"/>
      <point x="244" y="125"/>
      <point x="216" y="115"/>
      <point x="202" y="115" type="curve" smooth="yes"/>
      <point x="190" y="115"/>
      <point x="189" y="124"/>
      <point x="189" y="133" type="curve" smooth="yes"/>
      <point x="189" y="139"/>
      <point x="190" y="142"/>
      <point x="193" y="159" type="curve" smooth="yes"/>
      <point x="258" y="490" type="line"/>
      <point x="105" y="490" type="line"/>
      <point x="31" y="121" type="line" smooth="yes"/>
      <point x="29" y="110"/>
      <point x="27" y="99"/>
      <point x="27" y="90" type="curve" smooth="yes"/>
      <point x="27" y="32"/>
      <point x="68" y="-7"/>
    </contour>
  </outline>
</glyph>
<glyph name="j" format="1">
  <advance width="257"/>
  <unicode hex="006A"/>
  <outline>
    <contour>
      <point x="95" y="490" type="line"/>
      <point x="7" y="46" type="line" smooth="yes"/>
      <point x="-10" y="-38"/>
      <point x="-48" y="-75"/>
      <point x="-138" y="-115" type="curve"/>
      <point x="-82" y="-223" type="line"/>
      <point x="60" y="-154"/>
      <point x="127" y="-114"/>
      <point x="158" y="39" type="curve" smooth="yes"/>
      <point x="247" y="490" type="line"/>
    </contour>
    <contour>
      <point x="203" y="724" type="curve" smooth="yes"/>
      <point x="145" y="724"/>
      <point x="110" y="682"/>
      <point x="110" y="634" type="curve" smooth="yes"/>
      <point x="110" y="588"/>
      <point x="136" y="555"/>
      <point x="193" y="555" type="curve" smooth="yes"/>
      <point x="250" y="555"/>
      <point x="287" y="596"/>
      <point x="287" y="644" type="curve" smooth="yes"/>
      <point x="287" y="693"/>
      <point x="261" y="724"/>
    </contour>
  </outline>
</glyph>
<glyph name="k" format="1">
  <advance width="571"/>
  <unicode hex="006B"/>
  <outline>
    <contour>
      <point x="202" y="160" type="line" smooth="yes"/>
      <point x="220" y="253"/>
      <point x="263" y="382"/>
      <point x="325" y="382" type="curve" smooth="yes"/>
      <point x="346" y="382"/>
      <point x="352" y="372"/>
      <point x="352" y="353" type="curve" smooth="yes"/>
      <point x="352" y="305"/>
      <point x="271" y="268"/>
      <point x="250" y="261" type="curve"/>
      <point x="248" y="244" type="line"/>
      <point x="280" y="120"/>
      <point x="338" y="-4"/>
      <point x="441" y="-99" type="curve"/>
      <point x="563" y="-33" type="line"/>
      <point x="489" y="52"/>
      <point x="434" y="130"/>
      <point x="404" y="218" type="curve"/>
      <point x="404" y="218"/>
      <point x="516" y="267"/>
      <point x="516" y="381" type="curve" smooth="yes"/>
      <point x="516" y="460"/>
      <point x="466" y="502"/>
      <point x="393" y="502" type="curve" smooth="yes"/>
      <point x="320" y="502"/>
      <point x="261" y="473"/>
      <point x="210" y="388" type="curve"/>
      <point x="235" y="451"/>
      <point x="271" y="519"/>
      <point x="282" y="578" type="curve" smooth="yes"/>
      <point x="310" y="725" type="line"/>
      <point x="155" y="705" type="line"/>
      <point x="17" y="0" type="line"/>
      <point x="171" y="0" type="line"/>
    </contour>
  </outline>
</glyph>
<glyph name="l" format="1">
  <advance width="302"/>
  <unicode hex="006C"/>
  <outline>
    <contour>
      <point x="255" y="127" type="line"/>
      <point x="251" y="126"/>
      <point x="213" y="115"/>
      <point x="198" y="115" type="curve" smooth="yes"/>
      <point x="185" y="115"/>
      <point x="183" y="124"/>
      <point x="183" y="133" type="curve" smooth="yes"/>
      <point x="183" y="139"/>
      <point x="184" y="142"/>
      <point x="187" y="159" type="curve" smooth="yes"/>
      <point x="295" y="725" type="line"/>
      <point x="139" y="705" type="line"/>
      <point x="26" y="123" type="line" smooth="yes"/>
      <point x="24" y="112"/>
      <point x="22" y="101"/>
      <point x="22" y="92" type="curve" smooth="yes"/>
      <point x="22" y="34"/>
      <point x="59" y="-4"/>
      <point x="133" y="-4" type="curve" smooth="yes"/>
      <point x="195" y="-4"/>
      <point x="255" y="20"/>
      <point x="255" y="20" type="curve"/>
    </contour>
  </outline>
</glyph>
<glyph name="m" format="1">
  <advance width="802"/>
  <unicode hex="006D"/>
  <outline>
    <contour>
      <point x="770" y="378" type="curve" smooth="yes"/>
      <point x="770" y="457"/>
      <point x="731" y="502"/>
      <point x="645" y="502" type="curve" smooth="yes"/>
      <point x="581" y="502"/>
      <point x="537" y="474"/>
      <point x="501" y="408" type="curve"/>
      <point x="491" y="470"/>
      <point x="453" y="502"/>
      <point x="382" y="502" type="curve" smooth="yes"/>
      <point x="305" y="502"/>
      <point x="257" y="462"/>
      <point x="217" y="375" type="curve" smooth="yes"/>
      <point x="204" y="347" type="line"/>
      <point x="209" y="389"/>
      <point x="211" y="406"/>
      <point x="211" y="421" type="curve" smooth="yes"/>
      <point x="211" y="453"/>
      <point x="202" y="483"/>
      <point x="183" y="504" type="curve"/>
      <point x="57" y="455" type="line"/>
      <point x="65" y="442"/>
      <point x="88" y="404"/>
      <point x="88" y="342" type="curve" smooth="yes"/>
      <point x="88" y="318"/>
      <point x="85" y="289"/>
      <point x="78" y="256" type="curve" smooth="yes"/>
      <point x="27" y="0" type="line"/>
      <point x="182" y="0" type="line"/>
      <point x="214" y="167" type="line" smooth="yes"/>
      <point x="232" y="258"/>
      <point x="281" y="374"/>
      <point x="328" y="374" type="curve" smooth="yes"/>
      <point x="345" y="374"/>
      <point x="351" y="361"/>
      <point x="351" y="343" type="curve" smooth="yes"/>
      <point x="351" y="320"/>
      <point x="347" y="289"/>
      <point x="341" y="256" type="curve" smooth="yes"/>
      <point x="290" y="0" type="line"/>
      <point x="445" y="0" type="line"/>
      <point x="477" y="168" type="line"/>
      <point x="495" y="258"/>
      <point x="543" y="374"/>
      <point x="591" y="374" type="curve" smooth="yes"/>
      <point x="607" y="374"/>
      <point x="613" y="361"/>
      <point x="613" y="343" type="curve" smooth="yes"/>
      <point x="613" y="261"/>
      <point x="560" y="171"/>
      <point x="560" y="76" type="curve" smooth="yes"/>
      <point x="560" y="59"/>
      <point x="560" y="40"/>
      <point x="567" y="0" type="curve"/>
      <point x="723" y="0" type="line"/>
      <point x="713" y="44"/>
      <point x="710" y="84"/>
      <point x="710" y="108" type="curve" smooth="yes"/>
      <point x="710" y="182"/>
      <point x="770" y="266"/>
    </contour>
  </outline>
</glyph>
<glyph name="n" format="1">
  <advance width="552"/>
  <unicode hex="006E"/>
  <outline>
    <contour>
      <point x="370" y="498" type="move" name="top"/>
    </contour>
    <contour>
      <point x="519" y="378" type="curve" smooth="yes"/>
      <point x="519" y="457"/>
      <point x="482" y="502"/>
      <point x="394" y="502" type="curve" smooth="yes"/>
      <point x="315" y="502"/>
      <point x="258" y="463"/>
      <point x="217" y="375" type="curve" smooth="yes"/>
      <point x="204" y="347" type="line"/>
      <point x="211" y="399"/>
      <point x="211" y="406"/>
      <point x="211" y="421" type="curve" smooth="yes"/>
      <point x="211" y="453"/>
      <point x="202" y="483"/>
      <point x="183" y="504" type="curve"/>
      <point x="57" y="455" type="line"/>
      <point x="65" y="442"/>
      <point x="88" y="404"/>
      <point x="88" y="342" type="curve" smooth="yes"/>
      <point x="88" y="318"/>
      <point x="85" y="289"/>
      <point x="78" y="256" type="curve" smooth="yes"/>
      <point x="27" y="0" type="line"/>
      <point x="182" y="0" type="line"/>
      <point x="213" y="162" type="line" smooth="yes"/>
      <point x="231" y="254"/>
      <point x="288" y="374"/>
      <point x="339" y="374" type="curve" smooth="yes"/>
      <point x="357" y="374"/>
      <point x="363" y="361"/>
      <point x="363" y="343" type="curve" smooth="yes"/>
      <point x="363" y="261"/>
      <point x="309" y="171"/>
      <point x="309" y="76" type="curve" smooth="yes"/>
      <point x="309" y="59"/>
      <point x="309" y="40"/>
      <point x="316" y="0" type="curve"/>
      <point x="472" y="0" type="line"/>
      <point x="462" y="44"/>
      <point x="459" y="84"/>
      <point x="459" y="108" type="curve" smooth="yes"/>
      <point x="459" y="182"/>
      <point x="519" y="266"/>
    </contour>
  </outline>
</glyph>
<glyph name="o" format="1">
  <advance width="505"/>
  <unicode hex="006F"/>
  <outline>
    <contour>
      <point x="308" y="502" type="move" name="top"/>
    </contour>
    <contour>
      <point x="304" y="505" type="curve" smooth="yes"/>
      <point x="123" y="505"/>
      <point x="22" y="347"/>
      <point x="22" y="163" type="curve" smooth="yes"/>
      <point x="22" y="75"/>
      <point x="66" y="-13"/>
      <point x="201" y="-13" type="curve" smooth="yes"/>
      <point x="383" y="-13"/>
      <point x="483" y="141"/>
      <point x="483" y="327" type="curve" smooth="yes"/>
      <point x="483" y="415"/>
      <point x="440" y="505"/>
    </contour>
    <contour>
      <point x="283" y="393" type="curve" smooth="yes"/>
      <point x="306" y="393"/>
      <point x="321" y="375"/>
      <point x="321" y="334" type="curve" smooth="yes"/>
      <point x="321" y="241"/>
      <point x="286" y="99"/>
      <point x="222" y="99" type="curve" smooth="yes"/>
      <point x="198" y="99"/>
      <point x="183" y="116"/>
      <point x="183" y="156" type="curve" smooth="yes"/>
      <point x="183" y="251"/>
      <point x="218" y="393"/>
    </contour>
  </outline>
</glyph>
<glyph name="p" format="1">
  <advance width="537"/>
  <unicode hex="0070"/>
  <outline>
    <contour>
      <point x="-13" y="-222" type="line"/>
      <point x="143" y="-202" type="line"/>
      <point x="181" y="-5" type="line"/>
      <point x="195" y="-7"/>
      <point x="211" y="-9"/>
      <point x="228" y="-9" type="curve" smooth="yes"/>
      <point x="414" y="-9"/>
      <point x="515" y="139"/>
      <point x="515" y="330" type="curve" smooth="yes"/>
      <point x="515" y="411"/>
      <point x="478" y="502"/>
      <point x="378" y="502" type="curve" smooth="yes"/>
      <point x="316" y="502"/>
      <point x="261" y="470"/>
      <point x="218" y="377" type="curve" smooth="yes"/>
      <point x="205" y="349" type="line"/>
      <point x="211" y="389"/>
      <point x="212" y="407"/>
      <point x="212" y="421" type="curve" smooth="yes"/>
      <point x="212" y="453"/>
      <point x="203" y="483"/>
      <point x="184" y="504" type="curve"/>
      <point x="58" y="455" type="line"/>
      <point x="66" y="442"/>
      <point x="89" y="404"/>
      <point x="89" y="342" type="curve" smooth="yes"/>
      <point x="89" y="318"/>
      <point x="86" y="289"/>
      <point x="79" y="256" type="curve" smooth="yes"/>
    </contour>
    <contour>
      <point x="204" y="110" type="curve"/>
      <point x="212" y="143" type="line" smooth="yes"/>
      <point x="240" y="261"/>
      <point x="289" y="384"/>
      <point x="330" y="384" type="curve" smooth="yes"/>
      <point x="349" y="384"/>
      <point x="353" y="361"/>
      <point x="353" y="333" type="curve" smooth="yes"/>
      <point x="353" y="263"/>
      <point x="327" y="106"/>
      <point x="235" y="106" type="curve" smooth="yes"/>
      <point x="222" y="106"/>
      <point x="214" y="107"/>
    </contour>
  </outline>
</glyph>
<glyph name="q" format="1">
  <advance width="522"/>
  <unicode hex="0071"/>
  <outline>
    <contour>
      <point x="22" y="163" type="curve" smooth="yes"/>
      <point x="22" y="81"/>
      <point x="59" y="-9"/>
      <point x="159" y="-9" type="curve" smooth="yes"/>
      <point x="212" y="-9"/>
      <point x="257" y="20"/>
      <point x="292" y="78" type="curve"/>
      <point x="270" y="22"/>
      <point x="253" y="-24"/>
      <point x="244" y="-69" type="curve" smooth="yes"/>
      <point x="214" y="-222" type="line"/>
      <point x="372" y="-202" type="line"/>
      <point x="497" y="447" type="line"/>
      <point x="504" y="473" type="line"/>
      <point x="424" y="478" type="line"/>
      <point x="392" y="492"/>
      <point x="359" y="502"/>
      <point x="309" y="502" type="curve" smooth="yes"/>
      <point x="123" y="502"/>
      <point x="22" y="354"/>
    </contour>
    <contour>
      <point x="207" y="109" type="curve" smooth="yes"/>
      <point x="188" y="109"/>
      <point x="184" y="132"/>
      <point x="184" y="160" type="curve" smooth="yes"/>
      <point x="184" y="230"/>
      <point x="210" y="387"/>
      <point x="302" y="387" type="curve" smooth="yes"/>
      <point x="315" y="387"/>
      <point x="322" y="385"/>
      <point x="332" y="383" type="curve"/>
      <point x="321" y="335" type="line" smooth="yes"/>
      <point x="298" y="230"/>
      <point x="246" y="109"/>
    </contour>
  </outline>
</glyph>
<glyph name="r" format="1">
  <advance width="407"/>
  <unicode hex="0072"/>
  <outline>
    <contour>
      <point x="450" y="465" type="line"/>
      <point x="426" y="492"/>
      <point x="393" y="502"/>
      <point x="354" y="502" type="curve" smooth="yes"/>
      <point x="283" y="502"/>
      <point x="238" y="460"/>
      <point x="204" y="346" type="curve"/>
      <point x="209" y="389"/>
      <point x="211" y="406"/>
      <point x="211" y="421" type="curve" smooth="yes"/>
      <point x="211" y="453"/>
      <point x="202" y="483"/>
      <point x="183" y="504" type="curve"/>
      <point x="57" y="455" type="line"/>
      <point x="65" y="442"/>
      <point x="88" y="404"/>
      <point x="88" y="342" type="curve" smooth="yes"/>
      <point x="88" y="318"/>
      <point x="85" y="289"/>
      <point x="78" y="256" type="curve" smooth="yes"/>
      <point x="27" y="0" type="line"/>
      <point x="182" y="0" type="line"/>
      <point x="230" y="244" type="line"/>
      <point x="243" y="303"/>
      <point x="273" y="364"/>
      <point x="311" y="364" type="curve" smooth="yes"/>
      <point x="338" y="364"/>
      <point x="354" y="350"/>
      <point x="368" y="335" type="curve"/>
    </contour>
  </outline>
</glyph>
<glyph name="s" format="1">
  <advance width="425"/>
  <unicode hex="0073"/>
  <outline>
    <contour>
      <point x="258" y="505" type="curve" smooth="yes"/>
      <point x="350" y="505"/>
      <point x="396" y="465"/>
      <point x="408" y="385" type="curve"/>
      <point x="294" y="346" type="line"/>
      <point x="287" y="370"/>
      <point x="286" y="394"/>
      <point x="253" y="394" type="curve" smooth="yes"/>
      <point x="227" y="394"/>
      <point x="220" y="372"/>
      <point x="220" y="358" type="curve" smooth="yes"/>
      <point x="220" y="333"/>
      <point x="241" y="318"/>
      <point x="256" y="309" type="curve" smooth="yes"/>
      <point x="282" y="294" type="line" smooth="yes"/>
      <point x="329" y="266"/>
      <point x="372" y="239"/>
      <point x="372" y="154" type="curve" smooth="yes"/>
      <point x="372" y="64"/>
      <point x="303" y="-13"/>
      <point x="169" y="-13" type="curve" smooth="yes"/>
      <point x="82" y="-13"/>
      <point x="-13" y="45"/>
      <point x="-13" y="45" type="curve"/>
      <point x="49" y="157" type="line"/>
      <point x="49" y="157"/>
      <point x="122" y="103"/>
      <point x="164" y="103" type="curve" smooth="yes"/>
      <point x="198" y="103"/>
      <point x="214" y="118"/>
      <point x="214" y="141" type="curve" smooth="yes"/>
      <point x="214" y="167"/>
      <point x="201" y="183"/>
      <point x="173" y="197" type="curve" smooth="yes"/>
      <point x="140" y="214" type="line" smooth="yes"/>
      <point x="106" y="231"/>
      <point x="62" y="264"/>
      <point x="62" y="349" type="curve" smooth="yes"/>
      <point x="62" y="439"/>
      <point x="129" y="505"/>
    </contour>
  </outline>
</glyph>
<glyph name="t" format="1">
  <advance width="376"/>
  <unicode hex="0074"/>
  <outline>
    <contour>
      <point x="42" y="374" type="line"/>
      <point x="116" y="374" type="line"/>
      <point x="66" y="127" type="line" smooth="yes"/>
      <point x="64" y="115"/>
      <point x="62" y="99"/>
      <point x="62" y="89" type="curve" smooth="yes"/>
      <point x="62" y="27"/>
      <point x="97" y="-7"/>
      <point x="189" y="-7" type="curve" smooth="yes"/>
      <point x="270" y="-7"/>
      <point x="332" y="16"/>
      <point x="332" y="16" type="curve"/>
      <point x="332" y="129" type="line"/>
      <point x="332" y="129"/>
      <point x="278" y="112"/>
      <point x="253" y="112" type="curve" smooth="yes"/>
      <point x="230" y="112"/>
      <point x="224" y="119"/>
      <point x="224" y="132" type="curve" smooth="yes"/>
      <point x="224" y="139"/>
      <point x="225" y="155"/>
      <point x="227" y="162" type="curve" smooth="yes"/>
      <point x="269" y="374" type="line"/>
      <point x="375" y="374" type="line"/>
      <point x="393" y="490" type="line"/>
      <point x="291" y="490" type="line"/>
      <point x="320" y="636" type="line"/>
      <point x="181" y="605" type="line"/>
      <point x="140" y="490" type="line"/>
      <point x="42" y="490" type="line"/>
    </contour>
  </outline>
</glyph>
<glyph name="v" format="1">
  <advance width="523"/>
  <unicode hex="0076"/>
  <outline>
    <contour>
      <point x="344" y="468" type="line"/>
      <point x="351" y="445"/>
      <point x="354" y="411"/>
      <point x="354" y="391" type="curve" smooth="yes"/>
      <point x="354" y="273"/>
      <point x="286" y="105"/>
      <point x="221" y="105" type="curve" smooth="yes"/>
      <point x="202" y="105"/>
      <point x="192" y="120"/>
      <point x="192" y="141" type="curve" smooth="yes"/>
      <point x="192" y="151"/>
      <point x="196" y="183"/>
      <point x="198" y="193" type="curve" smooth="yes"/>
      <point x="255" y="490" type="line"/>
      <point x="103" y="490" type="line"/>
      <point x="46" y="197" type="line" smooth="yes"/>
      <point x="43" y="179"/>
      <point x="37" y="134"/>
      <point x="37" y="117" type="curve" smooth="yes"/>
      <point x="37" y="34"/>
      <point x="93" y="-7"/>
      <point x="181" y="-7" type="curve" smooth="yes"/>
      <point x="264" y="-7"/>
      <point x="316" y="11"/>
      <point x="365" y="53" type="curve" smooth="yes"/>
      <point x="452" y="126"/>
      <point x="506" y="264"/>
      <point x="506" y="385" type="curve" smooth="yes"/>
      <point x="506" y="415"/>
      <point x="499" y="458"/>
      <point x="478" y="501" type="curve"/>
    </contour>
  </outline>
</glyph>
<glyph name="w" format="1">
  <advance width="745"/>
  <unicode hex="0077"/>
  <outline>
    <contour>
      <point x="566" y="468" type="line"/>
      <point x="573" y="445"/>
      <point x="576" y="411"/>
      <point x="576" y="391" type="curve" smooth="yes"/>
      <point x="576" y="273"/>
      <point x="506" y="105"/>
      <point x="443" y="105" type="curve" smooth="yes"/>
      <point x="423" y="105"/>
      <point x="413" y="118"/>
      <point x="410" y="137" type="curve"/>
      <point x="455" y="209"/>
      <point x="480" y="300"/>
      <point x="480" y="385" type="curve" smooth="yes"/>
      <point x="480" y="415"/>
      <point x="473" y="458"/>
      <point x="452" y="501" type="curve"/>
      <point x="318" y="468" type="line"/>
      <point x="325" y="445"/>
      <point x="328" y="411"/>
      <point x="328" y="391" type="curve" smooth="yes"/>
      <point x="328" y="273"/>
      <point x="283" y="105"/>
      <point x="220" y="105" type="curve" smooth="yes"/>
      <point x="201" y="105"/>
      <point x="192" y="120"/>
      <point x="192" y="141" type="curve" smooth="yes"/>
      <point x="192" y="151"/>
      <point x="196" y="183"/>
      <point x="198" y="193" type="curve" smooth="yes"/>
      <point x="255" y="490" type="line"/>
      <point x="103" y="490" type="line"/>
      <point x="46" y="197" type="line" smooth="yes"/>
      <point x="43" y="179"/>
      <point x="37" y="134"/>
      <point x="37" y="117" type="curve" smooth="yes"/>
      <point x="37" y="34"/>
      <point x="94" y="-7"/>
      <point x="182" y="-7" type="curve" smooth="yes"/>
      <point x="234" y="-7"/>
      <point x="277" y="10"/>
      <point x="315" y="36" type="curve"/>
      <point x="342" y="3"/>
      <point x="374" y="-7"/>
      <point x="416" y="-7" type="curve" smooth="yes"/>
      <point x="484" y="-7"/>
      <point x="539" y="13"/>
      <point x="588" y="56" type="curve" smooth="yes"/>
      <point x="675" y="131"/>
      <point x="728" y="266"/>
      <point x="728" y="385" type="curve" smooth="yes"/>
      <point x="728" y="415"/>
      <point x="720" y="458"/>
      <point x="700" y="501" type="curve"/>
    </contour>
  </outline>
</glyph>
<glyph name="x" format="1">
  <advance width="488"/>
  <unicode hex="0078"/>
  <outline>
    <contour>
      <point x="117" y="0" type="line"/>
      <point x="209" y="116" type="line" smooth="yes"/>
      <point x="217" y="126"/>
      <point x="228" y="140"/>
      <point x="235" y="151" type="curve"/>
      <point x="238" y="142"/>
      <point x="241" y="130"/>
      <point x="246" y="120" type="curve" smooth="yes"/>
      <point x="291" y="0" type="line"/>
      <point x="454" y="0" type="line"/>
      <point x="345" y="246" type="line"/>
      <point x="386" y="283"/>
      <point x="428" y="321"/>
      <point x="452" y="357" type="curve" smooth="yes"/>
      <point x="471" y="386"/>
      <point x="476" y="412"/>
      <point x="476" y="431" type="curve" smooth="yes"/>
      <point x="476" y="452"/>
      <point x="464" y="480"/>
      <point x="454" y="501" type="curve"/>
      <point x="321" y="468" type="line"/>
      <point x="325" y="451"/>
      <point x="328" y="436"/>
      <point x="328" y="426" type="curve" smooth="yes"/>
      <point x="328" y="416"/>
      <point x="325" y="404"/>
      <point x="314" y="390" type="curve" smooth="yes"/>
      <point x="306" y="379"/>
      <point x="296" y="366"/>
      <point x="284" y="352" type="curve"/>
      <point x="277" y="366"/>
      <point x="272" y="379"/>
      <point x="265" y="397" type="curve" smooth="yes"/>
      <point x="223" y="490" type="line"/>
      <point x="60" y="490" type="line"/>
      <point x="175" y="261" type="line"/>
      <point x="-63" y="0" type="line"/>
    </contour>
  </outline>
</glyph>
<glyph name="z" format="1">
  <advance width="406"/>
  <unicode hex="007A"/>
  <outline>
    <contour>
      <point x="366" y="136" type="line"/>
      <point x="336" y="118"/>
      <point x="312" y="111"/>
      <point x="283" y="111" type="curve" smooth="yes"/>
      <point x="254" y="111"/>
      <point x="231" y="116"/>
      <point x="196" y="116" type="curve" smooth="yes"/>
      <point x="190" y="116"/>
      <point x="179" y="115"/>
      <point x="167" y="113" type="curve"/>
      <point x="399" y="401" type="line"/>
      <point x="399" y="490" type="line"/>
      <point x="53" y="490" type="line"/>
      <point x="53" y="373" type="line"/>
      <point x="124" y="373" type="line" smooth="yes"/>
      <point x="152" y="373"/>
      <point x="182" y="374"/>
      <point x="210" y="376" type="curve"/>
      <point x="-28" y="90" type="line"/>
      <point x="-28" y="0" type="line"/>
      <point x="29" y="0" type="line" smooth="yes"/>
      <point x="113" y="0"/>
      <point x="191" y="-13"/>
      <point x="272" y="-13" type="curve" smooth="yes"/>
      <point x="321" y="-13"/>
      <point x="370" y="-3"/>
      <point x="402" y="17" type="curve"/>
    </contour>
  </outline>
</glyph>
<glyph name="bar" format="1">
  <advance width="360"/>
  <unicode hex="007C"/>
  <outline>
    <contour>
      <point x="180" y="729" type="line"/>
      <point x="12" y="-126" type="line"/>
      <point x="160" y="-126" type="line"/>
      <point x="327" y="729" type="line"/>
    </contour>
  </outline>
</glyph>
<glyph name="braceright" format="1">
  <advance width="397"/>
  <unicode hex="007D"/>
  <outline>
    <contour>
      <point x="302" y="534" type="line" smooth="yes"/>
      <point x="312" y="575"/>
      <point x="317" y="596"/>
      <point x="317" y="620" type="curve" smooth="yes"/>
      <point x="317" y="691"/>
      <point x="258" y="724"/>
      <point x="188" y="724" type="curve" smooth="yes"/>
      <point x="163" y="724"/>
      <point x="125" y="719"/>
      <point x="101" y="715" type="curve"/>
      <point x="74" y="572" type="line"/>
      <point x="93" y="579"/>
      <point x="115" y="584"/>
      <point x="133" y="584" type="curve" smooth="yes"/>
      <point x="146" y="584"/>
      <point x="154" y="576"/>
      <point x="154" y="564" type="curve" smooth="yes"/>
      <point x="154" y="556"/>
      <point x="149" y="542"/>
      <point x="147" y="532" type="curve" smooth="yes"/>
      <point x="119" y="422" type="line" smooth="yes"/>
      <point x="114" y="402"/>
      <point x="108" y="374"/>
      <point x="108" y="354" type="curve" smooth="yes"/>
      <point x="108" y="320"/>
      <point x="127" y="293"/>
      <point x="161" y="271" type="curve"/>
      <point x="88" y="231"/>
      <point x="66" y="179"/>
      <point x="60" y="125" type="curve" smooth="yes"/>
      <point x="43" y="-15" type="line" smooth="yes"/>
      <point x="41" y="-32"/>
      <point x="29" y="-61"/>
      <point x="-2" y="-61" type="curve" smooth="yes"/>
      <point x="-13" y="-61"/>
      <point x="-30" y="-58"/>
      <point x="-46" y="-52" type="curve"/>
      <point x="-70" y="-180" type="line"/>
      <point x="-40" y="-186"/>
      <point x="-19" y="-192"/>
      <point x="11" y="-192" type="curve" smooth="yes"/>
      <point x="100" y="-192"/>
      <point x="183" y="-157"/>
      <point x="196" y="-51" type="curve" smooth="yes"/>
      <point x="217" y="126" type="line" smooth="yes"/>
      <point x="224" y="185"/>
      <point x="268" y="207"/>
      <point x="312" y="220" type="curve"/>
      <point x="312" y="323" type="line"/>
      <point x="269" y="330"/>
      <point x="265" y="354"/>
      <point x="265" y="374" type="curve" smooth="yes"/>
      <point x="265" y="387"/>
      <point x="268" y="406"/>
      <point x="271" y="416" type="curve" smooth="yes"/>
    </contour>
  </outline>
</glyph>
<glyph name="asciitilde" format="1">
  <advance width="538"/>
  <unicode hex="007E"/>
  <outline>
    <contour>
      <point x="194" y="404" type="curve" smooth="yes"/>
      <point x="121" y="404"/>
      <point x="74" y="354"/>
      <point x="37" y="308" type="curve"/>
      <point x="95" y="241" type="line"/>
      <point x="132" y="279"/>
      <point x="150" y="287"/>
      <point x="181" y="287" type="curve" smooth="yes"/>
      <point x="240" y="287"/>
      <point x="260" y="227"/>
      <point x="345" y="227" type="curve" smooth="yes"/>
      <point x="417" y="227"/>
      <point x="465" y="276"/>
      <point x="501" y="322" type="curve"/>
      <point x="444" y="390" type="line"/>
      <point x="406" y="352"/>
      <point x="388" y="344"/>
      <point x="358" y="344" type="curve" smooth="yes"/>
      <point x="299" y="344"/>
      <point x="279" y="404"/>
    </contour>
  </outline>
</glyph>
<glyph name="cent" format="1">
  <advance width="555"/>
  <unicode hex="00A2"/>
  <outline>
    <contour>
      <point x="300" y="636" type="line"/>
      <point x="409" y="636" type="line"/>
      <point x="395" y="549" type="line"/>
      <point x="470" y="542"/>
      <point x="502" y="505"/>
      <point x="513" y="449" type="curve"/>
      <point x="415" y="406" type="line"/>
      <point x="407" y="427"/>
      <point x="400" y="443"/>
      <point x="380" y="448" type="curve"/>
      <point x="334" y="154" type="line"/>
      <point x="371" y="161"/>
      <point x="395" y="177"/>
      <point x="416" y="193" type="curve"/>
      <point x="453" y="111" type="line"/>
      <point x="432" y="91"/>
      <point x="390" y="65"/>
      <point x="319" y="56" type="curve"/>
      <point x="301" y="-60" type="line"/>
      <point x="192" y="-60" type="line"/>
      <point x="209" y="54" type="line"/>
      <point x="87" y="61"/>
      <point x="47" y="151"/>
      <point x="47" y="236" type="curve" smooth="yes"/>
      <point x="47" y="392"/>
      <point x="132" y="529"/>
      <point x="286" y="548" type="curve"/>
    </contour>
    <contour>
      <point x="204" y="237" type="curve" smooth="yes"/>
      <point x="204" y="206"/>
      <point x="210" y="178"/>
      <point x="227" y="164" type="curve"/>
      <point x="269" y="440" type="line"/>
      <point x="217" y="406"/>
      <point x="204" y="297"/>
    </contour>
  </outline>
</glyph>
<glyph name="sterling" format="1">
  <advance width="610"/>
  <unicode hex="00A3"/>
  <outline>
    <contour>
      <point x="447" y="133" type="line"/>
      <point x="420" y="118"/>
      <point x="395" y="110"/>
      <point x="360" y="110" type="curve" smooth="yes"/>
      <point x="332" y="110"/>
      <point x="303" y="115"/>
      <point x="267" y="115" type="curve" smooth="yes"/>
      <point x="251" y="115"/>
      <point x="225" y="114"/>
      <point x="208" y="111" type="curve"/>
      <point x="230" y="135"/>
      <point x="249" y="168"/>
      <point x="263" y="212" type="curve" smooth="yes"/>
      <point x="268" y="231" type="line"/>
      <point x="412" y="231" type="line"/>
      <point x="456" y="354" type="line"/>
      <point x="304" y="354" type="line"/>
      <point x="323" y="417" type="line" smooth="yes"/>
      <point x="338" y="470"/>
      <point x="372" y="505"/>
      <point x="419" y="505" type="curve" smooth="yes"/>
      <point x="459" y="505"/>
      <point x="470" y="484"/>
      <point x="481" y="455" type="curve"/>
      <point x="602" y="509" type="line"/>
      <point x="590" y="573"/>
      <point x="556" y="636"/>
      <point x="430" y="636" type="curve" smooth="yes"/>
      <point x="291" y="636"/>
      <point x="201" y="554"/>
      <point x="168" y="429" type="curve" smooth="yes"/>
      <point x="149" y="354" type="line"/>
      <point x="81" y="354" type="line"/>
      <point x="57" y="231" type="line"/>
      <point x="117" y="231" type="line"/>
      <point x="103" y="175" type="line" smooth="yes"/>
      <point x="88" y="118"/>
      <point x="36" y="91"/>
      <point x="32" y="88" type="curve"/>
      <point x="63" y="-2" type="line"/>
      <point x="75" y="-1"/>
      <point x="84" y="0"/>
      <point x="97" y="0" type="curve" smooth="yes"/>
      <point x="194" y="0"/>
      <point x="269" y="-13"/>
      <point x="356" y="-13" type="curve" smooth="yes"/>
      <point x="405" y="-13"/>
      <point x="449" y="-1"/>
      <point x="481" y="19" type="curve"/>
    </contour>
  </outline>
</glyph>
<glyph name="currency" format="1">
  <advance width="647"/>
  <unicode hex="00A4"/>
  <outline>
    <contour>
      <point x="536" y="569" type="line"/>
      <point x="445" y="479" type="line"/>
      <point x="418" y="491"/>
      <point x="385" y="498"/>
      <point x="350" y="498" type="curve" smooth="yes"/>
      <point x="312" y="498"/>
      <point x="275" y="490"/>
      <point x="240" y="475" type="curve"/>
      <point x="183" y="569" type="line"/>
      <point x="78" y="497" type="line"/>
      <point x="147" y="410" type="line"/>
      <point x="107" y="364"/>
      <point x="81" y="303"/>
      <point x="81" y="228" type="curve" smooth="yes"/>
      <point x="81" y="200"/>
      <point x="86" y="175"/>
      <point x="96" y="153" type="curve"/>
      <point x="2" y="81" type="line"/>
      <point x="86" y="-13" type="line"/>
      <point x="176" y="75" type="line"/>
      <point x="203" y="64"/>
      <point x="234" y="58"/>
      <point x="270" y="58" type="curve" smooth="yes"/>
      <point x="307" y="58"/>
      <point x="343" y="64"/>
      <point x="377" y="79" type="curve"/>
      <point x="434" y="-13" type="line"/>
      <point x="538" y="59" type="line"/>
      <point x="471" y="143" type="line"/>
      <point x="513" y="188"/>
      <point x="540" y="251"/>
      <point x="540" y="328" type="curve" smooth="yes"/>
      <point x="540" y="355"/>
      <point x="534" y="380"/>
      <point x="525" y="401" type="curve"/>
      <point x="620" y="475" type="line"/>
    </contour>
    <contour>
      <point x="285" y="164" type="curve" smooth="yes"/>
      <point x="229" y="164"/>
      <point x="210" y="200"/>
      <point x="210" y="245" type="curve" smooth="yes"/>
      <point x="210" y="317"/>
      <point x="267" y="387"/>
      <point x="334" y="387" type="curve" smooth="yes"/>
      <point x="391" y="387"/>
      <point x="409" y="352"/>
      <point x="409" y="307" type="curve" smooth="yes"/>
      <point x="409" y="235"/>
      <point x="352" y="164"/>
    </contour>
  </outline>
</glyph>
<glyph name="brokenbar" format="1">
  <advance width="359"/>
  <unicode hex="00A6"/>
  <outline>
    <contour>
      <point x="180" y="729" type="line"/>
      <point x="104" y="341" type="line"/>
      <point x="252" y="341" type="line"/>
      <point x="327" y="729" type="line"/>
    </contour>
    <contour>
      <point x="87" y="260" type="line"/>
      <point x="12" y="-126" type="line"/>
      <point x="160" y="-126" type="line"/>
      <point x="235" y="260" type="line"/>
    </contour>
  </outline>
</glyph>
<glyph name="section" format="1">
  <advance width="513"/>
  <unicode hex="00A7"/>
  <outline>
    <contour>
      <point x="155" y="-216" type="curve" smooth="yes"/>
      <point x="100" y="-216"/>
      <point x="70" y="-203"/>
      <point x="37" y="-175" type="curve"/>
      <point x="100" y="-72" type="line"/>
      <point x="114" y="-85"/>
      <point x="130" y="-98"/>
      <point x="153" y="-98" type="curve" smooth="yes"/>
      <point x="178" y="-98"/>
      <point x="199" y="-82"/>
      <point x="199" y="-48" type="curve" smooth="yes"/>
      <point x="199" y="24"/>
      <point x="22" y="73"/>
      <point x="22" y="205" type="curve" smooth="yes"/>
      <point x="22" y="283"/>
      <point x="72" y="349"/>
      <point x="157" y="383" type="curve"/>
      <point x="141" y="407"/>
      <point x="131" y="434"/>
      <point x="131" y="465" type="curve" smooth="yes"/>
      <point x="131" y="549"/>
      <point x="206" y="643"/>
      <point x="333" y="643" type="curve" smooth="yes"/>
      <point x="388" y="643"/>
      <point x="418" y="630"/>
      <point x="451" y="602" type="curve"/>
      <point x="388" y="499" type="line"/>
      <point x="374" y="512"/>
      <point x="358" y="525"/>
      <point x="335" y="525" type="curve" smooth="yes"/>
      <point x="310" y="525"/>
      <point x="289" y="509"/>
      <point x="289" y="475" type="curve" smooth="yes"/>
      <point x="289" y="403"/>
      <point x="466" y="354"/>
      <point x="466" y="222" type="curve" smooth="yes"/>
      <point x="466" y="143"/>
      <point x="415" y="77"/>
      <point x="331" y="43" type="curve"/>
      <point x="346" y="19"/>
      <point x="357" y="-7"/>
      <point x="357" y="-38" type="curve" smooth="yes"/>
      <point x="357" y="-123"/>
      <point x="282" y="-216"/>
    </contour>
    <contour>
      <point x="310" y="192" type="curve" smooth="yes"/>
      <point x="310" y="230"/>
      <point x="273" y="264"/>
      <point x="235" y="300" type="curve"/>
      <point x="201" y="289"/>
      <point x="178" y="270"/>
      <point x="178" y="235" type="curve" smooth="yes"/>
      <point x="178" y="196"/>
      <point x="215" y="163"/>
      <point x="254" y="126" type="curve"/>
      <point x="287" y="138"/>
      <point x="310" y="157"/>
    </contour>
  </outline>
</glyph>
<glyph name="dieresis" format="1">
  <advance width="528"/>
  <unicode hex="00A8"/>
  <outline>
    <contour>
      <point x="217" y="498" type="move" name="_top"/>
    </contour>
    <contour>
      <point x="217" y="498" type="move" name="_topUC"/>
    </contour>
    <contour>
      <point x="164" y="720" type="curve" smooth="yes"/>
      <point x="111" y="720"/>
      <point x="80" y="683"/>
      <point x="80" y="638" type="curve" smooth="yes"/>
      <point x="80" y="597"/>
      <point x="103" y="568"/>
      <point x="153" y="568" type="curve" smooth="yes"/>
      <point x="205" y="568"/>
      <point x="239" y="605"/>
      <point x="239" y="648" type="curve" smooth="yes"/>
      <point x="239" y="693"/>
      <point x="215" y="720"/>
    </contour>
    <contour>
      <point x="381" y="720" type="curve" smooth="yes"/>
      <point x="329" y="720"/>
      <point x="298" y="683"/>
      <point x="298" y="638" type="curve" smooth="yes"/>
      <point x="298" y="597"/>
      <point x="321" y="568"/>
      <point x="371" y="568" type="curve" smooth="yes"/>
      <point x="423" y="568"/>
      <point x="456" y="605"/>
      <point x="456" y="648" type="curve" smooth="yes"/>
      <point x="456" y="693"/>
      <point x="432" y="720"/>
    </contour>
  </outline>
</glyph>
<glyph name="copyright" format="1">
  <advance width="757"/>
  <unicode hex="00A9"/>
  <outline>
    <contour>
      <point x="27" y="261" type="curve" smooth="yes"/>
      <point x="27" y="102"/>
      <point x="132" y="-14"/>
      <point x="309" y="-14" type="curve" smooth="yes"/>
      <point x="550" y="-14"/>
      <point x="729" y="170"/>
      <point x="729" y="419" type="curve" smooth="yes"/>
      <point x="729" y="579"/>
      <point x="624" y="693"/>
      <point x="447" y="693" type="curve" smooth="yes"/>
      <point x="206" y="693"/>
      <point x="27" y="511"/>
    </contour>
    <contour>
      <point x="429" y="597" type="curve" smooth="yes"/>
      <point x="550" y="597"/>
      <point x="620" y="527"/>
      <point x="620" y="396" type="curve" smooth="yes"/>
      <point x="620" y="214"/>
      <point x="477" y="83"/>
      <point x="326" y="83" type="curve" smooth="yes"/>
      <point x="208" y="83"/>
      <point x="136" y="153"/>
      <point x="136" y="285" type="curve" smooth="yes"/>
      <point x="136" y="481"/>
      <point x="297" y="597"/>
    </contour>
    <contour>
      <point x="456" y="262" type="line"/>
      <point x="432" y="251"/>
      <point x="415" y="245"/>
      <point x="392" y="245" type="curve" smooth="yes"/>
      <point x="364" y="245"/>
      <point x="351" y="267"/>
      <point x="351" y="301" type="curve" smooth="yes"/>
      <point x="351" y="365"/>
      <point x="375" y="439"/>
      <point x="426" y="439" type="curve" smooth="yes"/>
      <point x="443" y="439"/>
      <point x="451" y="431"/>
      <point x="459" y="418" type="curve"/>
      <point x="532" y="485" type="line"/>
      <point x="521" y="520"/>
      <point x="487" y="545"/>
      <point x="432" y="545" type="curve" smooth="yes"/>
      <point x="295" y="545"/>
      <point x="211" y="420"/>
      <point x="211" y="287" type="curve" smooth="yes"/>
      <point x="211" y="207"/>
      <point x="247" y="143"/>
      <point x="348" y="143" type="curve" smooth="yes"/>
      <point x="413" y="143"/>
      <point x="464" y="170"/>
      <point x="480" y="179" type="curve"/>
    </contour>
  </outline>
</glyph>
<glyph name="ordfeminine" format="1">
  <advance width="424"/>
  <unicode hex="00AA"/>
  <outline>
    <contour>
      <point x="193" y="401" type="curve" smooth="yes"/>
      <point x="181" y="401"/>
      <point x="179" y="415"/>
      <point x="179" y="431" type="curve" smooth="yes"/>
      <point x="179" y="475"/>
      <point x="197" y="577"/>
      <point x="253" y="577" type="curve" smooth="yes"/>
      <point x="262" y="577"/>
      <point x="266" y="577"/>
      <point x="271" y="576" type="curve"/>
      <point x="264" y="546" type="line" smooth="yes"/>
      <point x="250" y="486"/>
      <point x="219" y="401"/>
    </contour>
    <contour>
      <point x="151" y="304" type="curve" smooth="yes"/>
      <point x="194" y="304"/>
      <point x="236" y="331"/>
      <point x="275" y="414" type="curve"/>
      <point x="274" y="395"/>
      <point x="274" y="385"/>
      <point x="274" y="377" type="curve" smooth="yes"/>
      <point x="274" y="346"/>
      <point x="285" y="318"/>
      <point x="299" y="302" type="curve"/>
      <point x="399" y="341" type="line"/>
      <point x="378" y="370"/>
      <point x="369" y="395"/>
      <point x="369" y="434" type="curve" smooth="yes"/>
      <point x="369" y="450"/>
      <point x="371" y="470"/>
      <point x="376" y="493" type="curve" smooth="yes"/>
      <point x="407" y="650" type="line"/>
      <point x="342" y="653" type="line"/>
      <point x="315" y="666"/>
      <point x="288" y="670"/>
      <point x="257" y="670" type="curve" smooth="yes"/>
      <point x="125" y="670"/>
      <point x="52" y="565"/>
      <point x="52" y="428" type="curve" smooth="yes"/>
      <point x="52" y="369"/>
      <point x="79" y="304"/>
    </contour>
  </outline>
</glyph>
<glyph name="guillemotleft" format="1">
  <advance width="632"/>
  <unicode hex="00AB"/>
  <outline>
    <contour>
      <point x="310" y="80" type="line"/>
      <point x="283" y="125"/>
      <point x="238" y="196"/>
      <point x="207" y="245" type="curve"/>
      <point x="356" y="392" type="line"/>
      <point x="291" y="472" type="line"/>
      <point x="251" y="441"/>
      <point x="129" y="347"/>
      <point x="35" y="245" type="curve"/>
      <point x="96" y="145"/>
      <point x="227" y="15"/>
      <point x="227" y="15" type="curve"/>
    </contour>
    <contour>
      <point x="566" y="80" type="line"/>
      <point x="539" y="125"/>
      <point x="493" y="196"/>
      <point x="463" y="245" type="curve"/>
      <point x="612" y="392" type="line"/>
      <point x="547" y="472" type="line"/>
      <point x="507" y="441"/>
      <point x="385" y="347"/>
      <point x="291" y="245" type="curve"/>
      <point x="352" y="145"/>
      <point x="483" y="15"/>
      <point x="483" y="15" type="curve"/>
    </contour>
  </outline>
</glyph>
<glyph name="logicalnot" format="1">
  <advance width="526"/>
  <unicode hex="00AC"/>
  <outline>
    <contour>
      <point x="42" y="290" type="line"/>
      <point x="333" y="290" type="line"/>
      <point x="311" y="168" type="line"/>
      <point x="438" y="168" type="line"/>
      <point x="484" y="412" type="line"/>
      <point x="65" y="412" type="line"/>
    </contour>
  </outline>
</glyph>
<glyph name="uni00AD" format="1">
  <advance width="400"/>
  <unicode hex="00AD"/>
  <outline>
    <contour>
      <point x="37" y="260" type="line"/>
      <point x="341" y="260" type="line"/>
      <point x="362" y="377" type="line"/>
      <point x="60" y="377" type="line"/>
    </contour>
  </outline>
</glyph>
<glyph name="registered" format="1">
  <advance width="580"/>
  <unicode hex="00AE"/>
  <outline>
    <contour>
      <point x="67" y="402" type="curve" smooth="yes"/>
      <point x="67" y="286"/>
      <point x="144" y="214"/>
      <point x="259" y="214" type="curve" smooth="yes"/>
      <point x="434" y="214"/>
      <point x="542" y="357"/>
      <point x="542" y="506" type="curve" smooth="yes"/>
      <point x="542" y="621"/>
      <point x="466" y="693"/>
      <point x="351" y="693" type="curve" smooth="yes"/>
      <point x="175" y="693"/>
      <point x="67" y="551"/>
    </contour>
    <contour>
      <point x="338" y="625" type="curve" smooth="yes"/>
      <point x="425" y="625"/>
      <point x="462" y="566"/>
      <point x="462" y="491" type="curve" smooth="yes"/>
      <point x="462" y="376"/>
      <point x="381" y="283"/>
      <point x="272" y="283" type="curve" smooth="yes"/>
      <point x="184" y="283"/>
      <point x="147" y="344"/>
      <point x="147" y="417" type="curve" smooth="yes"/>
      <point x="147" y="532"/>
      <point x="230" y="625"/>
    </contour>
    <contour>
      <point x="399" y="354" type="line"/>
      <point x="380" y="383"/>
      <point x="360" y="416"/>
      <point x="352" y="441" type="curve"/>
      <point x="384" y="457"/>
      <point x="408" y="483"/>
      <point x="408" y="523" type="curve" smooth="yes"/>
      <point x="408" y="563"/>
      <point x="375" y="582"/>
      <point x="331" y="582" type="curve" smooth="yes"/>
      <point x="319" y="582"/>
      <point x="303" y="580"/>
      <point x="291" y="578" type="curve"/>
      <point x="246" y="585" type="line"/>
      <point x="196" y="325" type="line"/>
      <point x="263" y="325" type="line"/>
      <point x="283" y="428" type="line"/>
      <point x="286" y="428"/>
      <point x="289" y="426"/>
      <point x="294" y="426" type="curve"/>
      <point x="308" y="386"/>
      <point x="320" y="358"/>
      <point x="345" y="317" type="curve"/>
    </contour>
    <contour>
      <point x="314" y="534" type="line" smooth="yes"/>
      <point x="328" y="534"/>
      <point x="341" y="527"/>
      <point x="341" y="512" type="curve" smooth="yes"/>
      <point x="341" y="493"/>
      <point x="329" y="485"/>
      <point x="308" y="481" type="curve" smooth="yes"/>
      <point x="302" y="480"/>
      <point x="295" y="480"/>
      <point x="293" y="480" type="curve"/>
      <point x="303" y="533" type="line"/>
    </contour>
  </outline>
</glyph>
<glyph name="macron" format="1">
  <advance width="495"/>
  <unicode hex="00AF"/>
  <outline>
    <contour>
      <point x="217" y="498" type="move" name="_top"/>
    </contour>
    <contour>
      <point x="72" y="603" type="line"/>
      <point x="412" y="603" type="line"/>
      <point x="428" y="720" type="line"/>
      <point x="91" y="720" type="line"/>
    </contour>
  </outline>
</glyph>
<glyph name="degree" format="1">
  <advance width="262"/>
  <unicode hex="00B0"/>
  <outline>
    <contour>
      <point x="180" y="638" type="curve" smooth="yes"/>
      <point x="200" y="638"/>
      <point x="211" y="623"/>
      <point x="211" y="602" type="curve" smooth="yes"/>
      <point x="211" y="573"/>
      <point x="193" y="543"/>
      <point x="163" y="543" type="curve" smooth="yes"/>
      <point x="142" y="543"/>
      <point x="131" y="557"/>
      <point x="131" y="577" type="curve" smooth="yes"/>
      <point x="131" y="607"/>
      <point x="150" y="638"/>
    </contour>
    <contour>
      <point x="150" y="463" type="curve" smooth="yes"/>
      <point x="239" y="463"/>
      <point x="300" y="531"/>
      <point x="300" y="611" type="curve" smooth="yes"/>
      <point x="300" y="672"/>
      <point x="261" y="718"/>
      <point x="192" y="718" type="curve" smooth="yes"/>
      <point x="104" y="718"/>
      <point x="42" y="650"/>
      <point x="42" y="570" type="curve" smooth="yes"/>
      <point x="42" y="508"/>
      <point x="81" y="463"/>
    </contour>
  </outline>
</glyph>
<glyph name="plusminus" format="1">
  <advance width="568"/>
  <unicode hex="00B1"/>
  <outline>
    <contour>
      <point x="270" y="499" type="line"/>
      <point x="244" y="360" type="line"/>
      <point x="110" y="360" type="line"/>
      <point x="87" y="238" type="line"/>
      <point x="222" y="238" type="line"/>
      <point x="204" y="144" type="line"/>
      <point x="70" y="144" type="line"/>
      <point x="47" y="22" type="line"/>
      <point x="448" y="22" type="line"/>
      <point x="471" y="144" type="line"/>
      <point x="335" y="144" type="line"/>
      <point x="352" y="238" type="line"/>
      <point x="488" y="238" type="line"/>
      <point x="510" y="360" type="line"/>
      <point x="374" y="360" type="line"/>
      <point x="400" y="499" type="line"/>
    </contour>
  </outline>
</glyph>
<glyph name="uni00B2" format="1">
  <advance width="325"/>
  <unicode hex="00B2"/>
  <outline>
    <contour>
      <point x="90" y="556" type="line"/>
      <point x="122" y="571"/>
      <point x="140" y="577"/>
      <point x="157" y="577" type="curve" smooth="yes"/>
      <point x="167" y="577"/>
      <point x="171" y="572"/>
      <point x="171" y="564" type="curve" smooth="yes"/>
      <point x="171" y="548"/>
      <point x="153" y="529"/>
      <point x="87" y="471" type="curve" smooth="yes"/>
      <point x="22" y="414" type="line"/>
      <point x="22" y="315" type="line"/>
      <point x="274" y="315" type="line"/>
      <point x="292" y="414" type="line"/>
      <point x="176" y="414" type="line"/>
      <point x="217" y="447" type="line" smooth="yes"/>
      <point x="281" y="498"/>
      <point x="313" y="535"/>
      <point x="313" y="590" type="curve" smooth="yes"/>
      <point x="313" y="652"/>
      <point x="257" y="679"/>
      <point x="196" y="679" type="curve" smooth="yes"/>
      <point x="148" y="679"/>
      <point x="102" y="668"/>
      <point x="56" y="647" type="curve"/>
    </contour>
  </outline>
</glyph>
<glyph name="uni00B3" format="1">
  <advance width="346"/>
  <unicode hex="00B3"/>
  <outline>
    <contour>
      <point x="22" y="352" type="line"/>
      <point x="56" y="330"/>
      <point x="91" y="313"/>
      <point x="150" y="313" type="curve" smooth="yes"/>
      <point x="247" y="313"/>
      <point x="311" y="372"/>
      <point x="311" y="444" type="curve" smooth="yes"/>
      <point x="311" y="485"/>
      <point x="292" y="512"/>
      <point x="258" y="525" type="curve"/>
      <point x="304" y="538"/>
      <point x="324" y="567"/>
      <point x="324" y="602" type="curve" smooth="yes"/>
      <point x="324" y="656"/>
      <point x="273" y="679"/>
      <point x="224" y="679" type="curve" smooth="yes"/>
      <point x="168" y="679"/>
      <point x="126" y="668"/>
      <point x="79" y="644" type="curve"/>
      <point x="110" y="570" type="line"/>
      <point x="140" y="585"/>
      <point x="163" y="594"/>
      <point x="180" y="594" type="curve" smooth="yes"/>
      <point x="189" y="594"/>
      <point x="193" y="591"/>
      <point x="193" y="583" type="curve" smooth="yes"/>
      <point x="193" y="562"/>
      <point x="153" y="551"/>
      <point x="94" y="533" type="curve"/>
      <point x="113" y="458" type="line"/>
      <point x="133" y="463"/>
      <point x="146" y="467"/>
      <point x="159" y="467" type="curve" smooth="yes"/>
      <point x="171" y="467"/>
      <point x="181" y="463"/>
      <point x="181" y="444" type="curve" smooth="yes"/>
      <point x="181" y="418"/>
      <point x="165" y="400"/>
      <point x="134" y="400" type="curve" smooth="yes"/>
      <point x="109" y="400"/>
      <point x="90" y="410"/>
      <point x="57" y="427" type="curve"/>
    </contour>
  </outline>
</glyph>
<glyph name="acute" format="1">
  <advance width="499"/>
  <unicode hex="00B4"/>
  <outline>
    <contour>
      <point x="159" y="498" type="move" name="_top"/>
    </contour>
    <contour>
      <point x="180" y="526" type="line"/>
      <point x="180" y="526"/>
      <point x="278" y="625"/>
      <point x="386" y="677" type="curve"/>
      <point x="355" y="754"/>
      <point x="301" y="789"/>
      <point x="301" y="789" type="curve"/>
      <point x="195" y="730"/>
      <point x="114" y="600"/>
      <point x="114" y="600" type="curve"/>
    </contour>
  </outline>
</glyph>
<glyph name="paragraph" format="1">
  <advance width="572"/>
  <unicode hex="00B6"/>
  <outline>
    <contour>
      <point x="351" y="669" type="line"/>
      <point x="169" y="661"/>
      <point x="52" y="563"/>
      <point x="52" y="411" type="curve" smooth="yes"/>
      <point x="52" y="309"/>
      <point x="124" y="247"/>
      <point x="272" y="247" type="curve"/>
    </contour>
    <contour>
      <point x="402" y="669" type="line"/>
      <point x="282" y="48" type="line" smooth="yes"/>
      <point x="266" y="-35"/>
      <point x="225" y="-75"/>
      <point x="139" y="-115" type="curve"/>
      <point x="194" y="-223" type="line"/>
      <point x="318" y="-162"/>
      <point x="410" y="-105"/>
      <point x="441" y="50" type="curve" smooth="yes"/>
      <point x="560" y="669" type="line"/>
    </contour>
  </outline>
</glyph>
<glyph name="periodcentered" format="1">
  <advance width="265"/>
  <unicode hex="00B7"/>
  <outline>
    <contour>
      <point x="138" y="422" type="curve" smooth="yes"/>
      <point x="75" y="422"/>
      <point x="37" y="377"/>
      <point x="37" y="324" type="curve" smooth="yes"/>
      <point x="37" y="274"/>
      <point x="65" y="239"/>
      <point x="126" y="239" type="curve" smooth="yes"/>
      <point x="188" y="239"/>
      <point x="228" y="284"/>
      <point x="228" y="337" type="curve" smooth="yes"/>
      <point x="228" y="390"/>
      <point x="199" y="422"/>
    </contour>
  </outline>
</glyph>
<glyph name="cedilla" format="1">
  <advance width="487"/>
  <unicode hex="00B8"/>
  <outline>
    <contour>
      <point x="257" y="0" type="move" name="_bottom"/>
    </contour>
    <contour>
      <point x="225" y="10" type="line"/>
      <point x="207" y="-12"/>
      <point x="191" y="-33"/>
      <point x="191" y="-54" type="curve" smooth="yes"/>
      <point x="191" y="-95"/>
      <point x="256" y="-95"/>
      <point x="256" y="-126" type="curve" smooth="yes"/>
      <point x="256" y="-137"/>
      <point x="246" y="-143"/>
      <point x="225" y="-143" type="curve" smooth="yes"/>
      <point x="199" y="-143"/>
      <point x="178" y="-133"/>
      <point x="158" y="-118" type="curve"/>
      <point x="120" y="-195" type="line"/>
      <point x="155" y="-217"/>
      <point x="189" y="-227"/>
      <point x="231" y="-227" type="curve" smooth="yes"/>
      <point x="294" y="-227"/>
      <point x="365" y="-194"/>
      <point x="365" y="-121" type="curve" smooth="yes"/>
      <point x="365" y="-59"/>
      <point x="289" y="-53"/>
      <point x="289" y="-26" type="curve" smooth="yes"/>
      <point x="289" y="-18"/>
      <point x="294" y="-4"/>
      <point x="305" y="10" type="curve"/>
    </contour>
  </outline>
</glyph>
<glyph name="uni00B9" format="1">
  <advance width="296"/>
  <unicode hex="00B9"/>
  <outline>
    <contour>
      <point x="78" y="316" type="line"/>
      <point x="206" y="316" type="line"/>
      <point x="273" y="677" type="line"/>
      <point x="179" y="677" type="line"/>
      <point x="134" y="633"/>
      <point x="75" y="615"/>
      <point x="32" y="604" type="curve"/>
      <point x="70" y="512" type="line"/>
      <point x="87" y="517"/>
      <point x="105" y="527"/>
      <point x="120" y="538" type="curve"/>
    </contour>
  </outline>
</glyph>
<glyph name="ordmasculine" format="1">
  <advance width="417"/>
  <unicode hex="00BA"/>
  <outline>
    <contour>
      <point x="184" y="304" type="curve" smooth="yes"/>
      <point x="305" y="304"/>
      <point x="384" y="408"/>
      <point x="384" y="541" type="curve" smooth="yes"/>
      <point x="384" y="624"/>
      <point x="340" y="671"/>
      <point x="253" y="671" type="curve" smooth="yes"/>
      <point x="131" y="671"/>
      <point x="52" y="567"/>
      <point x="52" y="433" type="curve" smooth="yes"/>
      <point x="52" y="350"/>
      <point x="97" y="304"/>
    </contour>
    <contour>
      <point x="198" y="400" type="curve" smooth="yes"/>
      <point x="186" y="400"/>
      <point x="178" y="405"/>
      <point x="178" y="428" type="curve" smooth="yes"/>
      <point x="178" y="468"/>
      <point x="200" y="575"/>
      <point x="238" y="575" type="curve" smooth="yes"/>
      <point x="250" y="575"/>
      <point x="259" y="569"/>
      <point x="259" y="547" type="curve" smooth="yes"/>
      <point x="259" y="507"/>
      <point x="237" y="400"/>
    </contour>
  </outline>
</glyph>
<glyph name="guillemotright" format="1">
  <advance width="632"/>
  <unicode hex="00BB"/>
  <outline>
    <contour>
      <point x="311" y="407" type="line"/>
      <point x="338" y="361"/>
      <point x="383" y="290"/>
      <point x="413" y="242" type="curve"/>
      <point x="264" y="95" type="line"/>
      <point x="329" y="15" type="line"/>
      <point x="370" y="46"/>
      <point x="492" y="140"/>
      <point x="586" y="242" type="curve"/>
      <point x="524" y="342"/>
      <point x="393" y="472"/>
      <point x="393" y="472" type="curve"/>
    </contour>
    <contour>
      <point x="55" y="407" type="line"/>
      <point x="82" y="361"/>
      <point x="127" y="290"/>
      <point x="157" y="242" type="curve"/>
      <point x="9" y="95" type="line"/>
      <point x="74" y="15" type="line"/>
      <point x="114" y="46"/>
      <point x="236" y="140"/>
      <point x="330" y="242" type="curve"/>
      <point x="268" y="342"/>
      <point x="138" y="472"/>
      <point x="138" y="472" type="curve"/>
    </contour>
  </outline>
</glyph>
<glyph name="onequarter" format="1">
  <advance width="777"/>
  <unicode hex="00BC"/>
  <outline>
    <contour>
      <point x="114" y="0" type="line"/>
      <point x="263" y="0" type="line"/>
      <point x="639" y="587" type="line"/>
      <point x="489" y="587" type="line"/>
    </contour>
    <contour>
      <point x="88" y="225" type="line"/>
      <point x="216" y="225" type="line"/>
      <point x="283" y="586" type="line"/>
      <point x="189" y="586" type="line"/>
      <point x="144" y="542"/>
      <point x="85" y="524"/>
      <point x="42" y="513" type="curve"/>
      <point x="80" y="421" type="line"/>
      <point x="97" y="426"/>
      <point x="115" y="436"/>
      <point x="130" y="447" type="curve"/>
    </contour>
    <contour>
      <point x="723" y="280" type="line"/>
      <point x="633" y="260" type="line"/>
      <point x="598" y="169" type="line"/>
      <point x="556" y="169" type="line"/>
      <point x="667" y="360" type="line"/>
      <point x="550" y="360" type="line"/>
      <point x="431" y="148" type="line"/>
      <point x="431" y="73" type="line"/>
      <point x="576" y="73" type="line"/>
      <point x="562" y="-2" type="line"/>
      <point x="670" y="-2" type="line"/>
      <point x="683" y="73" type="line"/>
      <point x="728" y="73" type="line"/>
      <point x="748" y="169" type="line"/>
      <point x="702" y="169" type="line"/>
    </contour>
  </outline>
</glyph>
<glyph name="onehalf" format="1">
  <advance width="794"/>
  <unicode hex="00BD"/>
  <outline>
    <contour>
      <point x="114" y="0" type="line"/>
      <point x="263" y="0" type="line"/>
      <point x="639" y="587" type="line"/>
      <point x="489" y="587" type="line"/>
    </contour>
    <contour>
      <point x="88" y="225" type="line"/>
      <point x="216" y="225" type="line"/>
      <point x="283" y="586" type="line"/>
      <point x="189" y="586" type="line"/>
      <point x="144" y="542"/>
      <point x="85" y="524"/>
      <point x="42" y="513" type="curve"/>
      <point x="80" y="421" type="line"/>
      <point x="97" y="426"/>
      <point x="115" y="436"/>
      <point x="130" y="447" type="curve"/>
    </contour>
    <contour>
      <point x="545" y="241" type="line"/>
      <point x="577" y="256"/>
      <point x="595" y="262"/>
      <point x="612" y="262" type="curve" smooth="yes"/>
      <point x="622" y="262"/>
      <point x="626" y="257"/>
      <point x="626" y="249" type="curve" smooth="yes"/>
      <point x="626" y="233"/>
      <point x="608" y="214"/>
      <point x="542" y="156" type="curve" smooth="yes"/>
      <point x="477" y="99" type="line"/>
      <point x="477" y="0" type="line"/>
      <point x="729" y="0" type="line"/>
      <point x="747" y="99" type="line"/>
      <point x="631" y="99" type="line"/>
      <point x="672" y="132" type="line" smooth="yes"/>
      <point x="736" y="183"/>
      <point x="768" y="220"/>
      <point x="768" y="275" type="curve" smooth="yes"/>
      <point x="768" y="337"/>
      <point x="712" y="364"/>
      <point x="651" y="364" type="curve" smooth="yes"/>
      <point x="603" y="364"/>
      <point x="557" y="353"/>
      <point x="511" y="332" type="curve"/>
    </contour>
  </outline>
</glyph>
<glyph name="questiondown" format="1">
  <advance width="424"/>
  <unicode hex="00BF"/>
  <outline>
    <contour>
      <point x="144" y="-190" type="curve" smooth="yes"/>
      <point x="209" y="-190"/>
      <point x="277" y="-162"/>
      <point x="342" y="-133" type="curve"/>
      <point x="296" y="-22" type="line"/>
      <point x="250" y="-47"/>
      <point x="217" y="-69"/>
      <point x="180" y="-69" type="curve" smooth="yes"/>
      <point x="154" y="-69"/>
      <point x="136" y="-54"/>
      <point x="136" y="-29" type="curve" smooth="yes"/>
      <point x="136" y="55"/>
      <point x="289" y="121"/>
      <point x="313" y="264" type="curve"/>
      <point x="205" y="294" type="line"/>
      <point x="180" y="239"/>
      <point x="148" y="203"/>
      <point x="109" y="166" type="curve" smooth="yes"/>
      <point x="39" y="100"/>
      <point x="-31" y="55"/>
      <point x="-31" y="-48" type="curve" smooth="yes"/>
      <point x="-31" y="-133"/>
      <point x="29" y="-190"/>
    </contour>
    <contour>
      <point x="285" y="316" type="curve" smooth="yes"/>
      <point x="348" y="316"/>
      <point x="385" y="361"/>
      <point x="385" y="414" type="curve" smooth="yes"/>
      <point x="385" y="463"/>
      <point x="357" y="498"/>
      <point x="297" y="498" type="curve" smooth="yes"/>
      <point x="235" y="498"/>
      <point x="195" y="453"/>
      <point x="195" y="401" type="curve" smooth="yes"/>
      <point x="195" y="348"/>
      <point x="225" y="316"/>
    </contour>
  </outline>
</glyph>
<glyph name="Agrave" format="1">
  <advance width="601"/>
  <unicode hex="00C0"/>
  <outline>
    <contour>
      <point x="-48" y="19" type="line"/>
      <point x="110" y="-8" type="line"/>
      <point x="196" y="160" type="line"/>
      <point x="392" y="160" type="line"/>
      <point x="417" y="0" type="line"/>
      <point x="583" y="0" type="line"/>
      <point x="455" y="669" type="line"/>
      <point x="317" y="669" type="line"/>
    </contour>
    <contour>
      <point x="373" y="281" type="curve"/>
      <point x="257" y="281" type="line"/>
      <point x="290" y="348"/>
      <point x="324" y="416"/>
      <point x="348" y="463" type="curve"/>
      <point x="354" y="418"/>
      <point x="362" y="349"/>
    </contour>
    <contour>
      <point x="440" y="785" type="line"/>
      <point x="440" y="785"/>
      <point x="337" y="845"/>
      <point x="260" y="944" type="curve"/>
      <point x="190" y="892"/>
      <point x="170" y="834"/>
      <point x="170" y="834" type="curve"/>
      <point x="251" y="740"/>
      <point x="385" y="704"/>
      <point x="385" y="704" type="curve"/>
    </contour>
  </outline>
</glyph>
<glyph name="Aacute" format="1">
  <advance width="601"/>
  <unicode hex="00C1"/>
  <outline>
    <contour>
      <point x="-48" y="19" type="line"/>
      <point x="110" y="-8" type="line"/>
      <point x="196" y="160" type="line"/>
      <point x="392" y="160" type="line"/>
      <point x="417" y="0" type="line"/>
      <point x="583" y="0" type="line"/>
      <point x="455" y="669" type="line"/>
      <point x="317" y="669" type="line"/>
    </contour>
    <contour>
      <point x="373" y="281" type="curve"/>
      <point x="257" y="281" type="line"/>
      <point x="290" y="348"/>
      <point x="324" y="416"/>
      <point x="348" y="463" type="curve"/>
      <point x="354" y="418"/>
      <point x="362" y="349"/>
    </contour>
    <contour>
      <point x="385" y="705" type="line"/>
      <point x="385" y="705"/>
      <point x="500" y="785"/>
      <point x="615" y="817" type="curve"/>
      <point x="598" y="898"/>
      <point x="551" y="942"/>
      <point x="551" y="942" type="curve"/>
      <point x="436" y="902"/>
      <point x="334" y="789"/>
      <point x="334" y="789" type="curve"/>
    </contour>
  </outline>
</glyph>
<glyph name="Acircumflex" format="1">
  <advance width="601"/>
  <unicode hex="00C2"/>
  <outline>
    <contour>
      <point x="-48" y="19" type="line"/>
      <point x="110" y="-8" type="line"/>
      <point x="196" y="160" type="line"/>
      <point x="392" y="160" type="line"/>
      <point x="417" y="0" type="line"/>
      <point x="583" y="0" type="line"/>
      <point x="455" y="669" type="line"/>
      <point x="317" y="669" type="line"/>
    </contour>
    <contour>
      <point x="373" y="281" type="curve"/>
      <point x="257" y="281" type="line"/>
      <point x="290" y="348"/>
      <point x="324" y="416"/>
      <point x="348" y="463" type="curve"/>
      <point x="354" y="418"/>
      <point x="362" y="349"/>
    </contour>
    <contour>
      <point x="280" y="719" type="line"/>
      <point x="280" y="719"/>
      <point x="341" y="757"/>
      <point x="408" y="799" type="curve"/>
      <point x="469" y="740"/>
      <point x="542" y="719"/>
      <point x="542" y="719" type="curve"/>
      <point x="596" y="801" type="line"/>
      <point x="596" y="801"/>
      <point x="501" y="867"/>
      <point x="440" y="953" type="curve"/>
      <point x="343" y="900"/>
      <point x="229" y="803"/>
      <point x="229" y="803" type="curve"/>
    </contour>
  </outline>
</glyph>
<glyph name="Atilde" format="1">
  <advance width="601"/>
  <unicode hex="00C3"/>
  <outline>
    <contour>
      <point x="-48" y="19" type="line"/>
      <point x="110" y="-8" type="line"/>
      <point x="196" y="160" type="line"/>
      <point x="392" y="160" type="line"/>
      <point x="417" y="0" type="line"/>
      <point x="583" y="0" type="line"/>
      <point x="455" y="669" type="line"/>
      <point x="317" y="669" type="line"/>
    </contour>
    <contour>
      <point x="373" y="281" type="curve"/>
      <point x="257" y="281" type="line"/>
      <point x="290" y="348"/>
      <point x="324" y="416"/>
      <point x="348" y="463" type="curve"/>
      <point x="354" y="418"/>
      <point x="362" y="349"/>
    </contour>
    <contour>
      <point x="509" y="867" type="line"/>
      <point x="509" y="867"/>
      <point x="477" y="858"/>
      <point x="455" y="858" type="curve" smooth="yes"/>
      <point x="424" y="858"/>
      <point x="413" y="870"/>
      <point x="389" y="870" type="curve" smooth="yes"/>
      <point x="357" y="870"/>
      <point x="333" y="856"/>
      <point x="333" y="856" type="curve"/>
      <point x="319" y="791" type="line"/>
      <point x="319" y="791"/>
      <point x="352" y="800"/>
      <point x="374" y="800" type="curve" smooth="yes"/>
      <point x="405" y="800"/>
      <point x="416" y="788"/>
      <point x="439" y="788" type="curve" smooth="yes"/>
      <point x="471" y="788"/>
      <point x="496" y="802"/>
      <point x="496" y="802" type="curve"/>
    </contour>
  </outline>
</glyph>
<glyph name="Adieresis" format="1">
  <advance width="601"/>
  <unicode hex="00C4"/>
  <outline>
    <contour>
      <point x="-48" y="19" type="line"/>
      <point x="110" y="-8" type="line"/>
      <point x="196" y="160" type="line"/>
      <point x="392" y="160" type="line"/>
      <point x="417" y="0" type="line"/>
      <point x="583" y="0" type="line"/>
      <point x="455" y="669" type="line"/>
      <point x="317" y="669" type="line"/>
    </contour>
    <contour>
      <point x="373" y="281" type="curve"/>
      <point x="257" y="281" type="line"/>
      <point x="290" y="348"/>
      <point x="324" y="416"/>
      <point x="348" y="463" type="curve"/>
      <point x="354" y="418"/>
      <point x="362" y="349"/>
    </contour>
    <contour>
      <point x="308" y="891" type="curve" smooth="yes"/>
      <point x="255" y="891"/>
      <point x="224" y="854"/>
      <point x="224" y="809" type="curve" smooth="yes"/>
      <point x="224" y="768"/>
      <point x="247" y="739"/>
      <point x="297" y="739" type="curve" smooth="yes"/>
      <point x="350" y="739"/>
      <point x="383" y="776"/>
      <point x="383" y="819" type="curve" smooth="yes"/>
      <point x="383" y="864"/>
      <point x="359" y="891"/>
    </contour>
    <contour>
      <point x="525" y="891" type="curve" smooth="yes"/>
      <point x="473" y="891"/>
      <point x="442" y="854"/>
      <point x="442" y="809" type="curve" smooth="yes"/>
      <point x="442" y="768"/>
      <point x="465" y="739"/>
      <point x="515" y="739" type="curve" smooth="yes"/>
      <point x="567" y="739"/>
      <point x="600" y="776"/>
      <point x="600" y="819" type="curve" smooth="yes"/>
      <point x="600" y="864"/>
      <point x="576" y="891"/>
    </contour>
  </outline>
</glyph>
<glyph name="Aring" format="1">
  <advance width="601"/>
  <unicode hex="00C5"/>
  <outline>
    <contour>
      <point x="-48" y="19" type="line"/>
      <point x="110" y="-8" type="line"/>
      <point x="196" y="160" type="line"/>
      <point x="392" y="160" type="line"/>
      <point x="417" y="0" type="line"/>
      <point x="583" y="0" type="line"/>
      <point x="457" y="660" type="line"/>
      <point x="492" y="685"/>
      <point x="513" y="724"/>
      <point x="513" y="769" type="curve" smooth="yes"/>
      <point x="513" y="823"/>
      <point x="478" y="864"/>
      <point x="417" y="864" type="curve" smooth="yes"/>
      <point x="339" y="864"/>
      <point x="285" y="804"/>
      <point x="285" y="732" type="curve" smooth="yes"/>
      <point x="285" y="703"/>
      <point x="295" y="678"/>
      <point x="313" y="661" type="curve"/>
    </contour>
    <contour>
      <point x="373" y="281" type="curve"/>
      <point x="257" y="281" type="line"/>
      <point x="290" y="348"/>
      <point x="324" y="416"/>
      <point x="348" y="463" type="curve"/>
      <point x="354" y="418"/>
      <point x="362" y="349"/>
    </contour>
    <contour>
      <point x="406" y="792" type="curve" smooth="yes"/>
      <point x="424" y="792"/>
      <point x="434" y="779"/>
      <point x="434" y="761" type="curve" smooth="yes"/>
      <point x="434" y="735"/>
      <point x="417" y="709"/>
      <point x="391" y="709" type="curve" smooth="yes"/>
      <point x="373" y="709"/>
      <point x="363" y="722"/>
      <point x="363" y="739" type="curve" smooth="yes"/>
      <point x="363" y="765"/>
      <point x="379" y="792"/>
    </contour>
  </outline>
</glyph>
<glyph name="AE" format="1">
  <advance width="852"/>
  <unicode hex="00C6"/>
  <outline>
    <contour>
      <point x="345" y="0" type="line"/>
      <point x="780" y="0" type="line"/>
      <point x="780" y="121" type="line"/>
      <point x="529" y="121" type="line"/>
      <point x="564" y="290" type="line"/>
      <point x="759" y="290" type="line"/>
      <point x="786" y="411" type="line"/>
      <point x="586" y="411" type="line"/>
      <point x="613" y="548" type="line"/>
      <point x="859" y="548" type="line"/>
      <point x="885" y="669" type="line"/>
      <point x="383" y="669" type="line"/>
      <point x="-53" y="27" type="line"/>
      <point x="106" y="-16" type="line"/>
      <point x="219" y="161" type="line"/>
      <point x="376" y="161" type="line"/>
    </contour>
    <contour>
      <point x="303" y="293" type="line" smooth="yes"/>
      <point x="370" y="400"/>
      <point x="434" y="518"/>
      <point x="445" y="540" type="curve"/>
      <point x="449" y="540" type="line"/>
      <point x="400" y="282" type="line"/>
      <point x="295" y="282" type="line"/>
    </contour>
  </outline>
</glyph>
<glyph name="Ccedilla" format="1">
  <advance width="524"/>
  <unicode hex="00C7"/>
  <outline>
    <contour>
      <point x="557" y="555" type="line"/>
      <point x="544" y="625"/>
      <point x="502" y="681"/>
      <point x="389" y="681" type="curve" smooth="yes"/>
      <point x="151" y="681"/>
      <point x="32" y="452"/>
      <point x="32" y="215" type="curve" smooth="yes"/>
      <point x="32" y="90"/>
      <point x="82" y="11"/>
      <point x="203" y="-8" type="curve"/>
      <point x="192" y="-24"/>
      <point x="185" y="-39"/>
      <point x="185" y="-54" type="curve" smooth="yes"/>
      <point x="185" y="-95"/>
      <point x="250" y="-95"/>
      <point x="250" y="-126" type="curve" smooth="yes"/>
      <point x="250" y="-137"/>
      <point x="240" y="-143"/>
      <point x="218" y="-143" type="curve" smooth="yes"/>
      <point x="193" y="-143"/>
      <point x="172" y="-133"/>
      <point x="152" y="-118" type="curve"/>
      <point x="113" y="-195" type="line"/>
      <point x="149" y="-217"/>
      <point x="183" y="-227"/>
      <point x="224" y="-227" type="curve" smooth="yes"/>
      <point x="287" y="-227"/>
      <point x="359" y="-194"/>
      <point x="359" y="-121" type="curve" smooth="yes"/>
      <point x="359" y="-59"/>
      <point x="283" y="-53"/>
      <point x="283" y="-26" type="curve" smooth="yes"/>
      <point x="283" y="-22"/>
      <point x="283" y="-18"/>
      <point x="285" y="-13" type="curve"/>
      <point x="359" y="-10"/>
      <point x="409" y="7"/>
      <point x="460" y="29" type="curve"/>
      <point x="433" y="144" type="line"/>
      <point x="378" y="122"/>
      <point x="345" y="109"/>
      <point x="297" y="109" type="curve" smooth="yes"/>
      <point x="227" y="109"/>
      <point x="206" y="164"/>
      <point x="206" y="233" type="curve" smooth="yes"/>
      <point x="206" y="366"/>
      <point x="256" y="557"/>
      <point x="372" y="557" type="curve" smooth="yes"/>
      <point x="408" y="557"/>
      <point x="422" y="530"/>
      <point x="429" y="499" type="curve"/>
    </contour>
  </outline>
</glyph>
<glyph name="Egrave" format="1">
  <advance width="520"/>
  <unicode hex="00C8"/>
  <outline>
    <contour>
      <point x="7" y="0" type="line"/>
      <point x="448" y="0" type="line"/>
      <point x="448" y="121" type="line"/>
      <point x="192" y="121" type="line"/>
      <point x="226" y="290" type="line"/>
      <point x="427" y="290" type="line"/>
      <point x="453" y="411" type="line"/>
      <point x="248" y="411" type="line"/>
      <point x="276" y="548" type="line"/>
      <point x="526" y="548" type="line"/>
      <point x="553" y="669" type="line"/>
      <point x="137" y="669" type="line"/>
    </contour>
    <contour>
      <point x="386" y="785" type="line"/>
      <point x="386" y="785"/>
      <point x="282" y="845"/>
      <point x="206" y="944" type="curve"/>
      <point x="135" y="892"/>
      <point x="116" y="834"/>
      <point x="116" y="834" type="curve"/>
      <point x="197" y="740"/>
      <point x="331" y="704"/>
      <point x="331" y="704" type="curve"/>
    </contour>
  </outline>
</glyph>
<glyph name="Eacute" format="1">
  <advance width="520"/>
  <unicode hex="00C9"/>
  <outline>
    <contour>
      <point x="7" y="0" type="line"/>
      <point x="448" y="0" type="line"/>
      <point x="448" y="121" type="line"/>
      <point x="192" y="121" type="line"/>
      <point x="226" y="290" type="line"/>
      <point x="427" y="290" type="line"/>
      <point x="453" y="411" type="line"/>
      <point x="248" y="411" type="line"/>
      <point x="276" y="548" type="line"/>
      <point x="526" y="548" type="line"/>
      <point x="553" y="669" type="line"/>
      <point x="137" y="669" type="line"/>
    </contour>
    <contour>
      <point x="331" y="705" type="line"/>
      <point x="331" y="705"/>
      <point x="446" y="785"/>
      <point x="561" y="817" type="curve"/>
      <point x="544" y="898"/>
      <point x="497" y="942"/>
      <point x="497" y="942" type="curve"/>
      <point x="382" y="902"/>
      <point x="279" y="789"/>
      <point x="279" y="789" type="curve"/>
    </contour>
  </outline>
</glyph>
<glyph name="Ecircumflex" format="1">
  <advance width="520"/>
  <unicode hex="00CA"/>
  <outline>
    <contour>
      <point x="7" y="0" type="line"/>
      <point x="448" y="0" type="line"/>
      <point x="448" y="121" type="line"/>
      <point x="192" y="121" type="line"/>
      <point x="226" y="290" type="line"/>
      <point x="427" y="290" type="line"/>
      <point x="453" y="411" type="line"/>
      <point x="248" y="411" type="line"/>
      <point x="276" y="548" type="line"/>
      <point x="526" y="548" type="line"/>
      <point x="553" y="669" type="line"/>
      <point x="137" y="669" type="line"/>
    </contour>
    <contour>
      <point x="226" y="719" type="line"/>
      <point x="226" y="719"/>
      <point x="286" y="757"/>
      <point x="354" y="799" type="curve"/>
      <point x="414" y="740"/>
      <point x="488" y="719"/>
      <point x="488" y="719" type="curve"/>
      <point x="542" y="801" type="line"/>
      <point x="542" y="801"/>
      <point x="447" y="867"/>
      <point x="386" y="953" type="curve"/>
      <point x="289" y="900"/>
      <point x="175" y="803"/>
      <point x="175" y="803" type="curve"/>
    </contour>
  </outline>
</glyph>
<glyph name="Edieresis" format="1">
  <advance width="520"/>
  <unicode hex="00CB"/>
  <outline>
    <contour>
      <point x="7" y="0" type="line"/>
      <point x="448" y="0" type="line"/>
      <point x="448" y="121" type="line"/>
      <point x="192" y="121" type="line"/>
      <point x="226" y="290" type="line"/>
      <point x="427" y="290" type="line"/>
      <point x="453" y="411" type="line"/>
      <point x="248" y="411" type="line"/>
      <point x="276" y="548" type="line"/>
      <point x="526" y="548" type="line"/>
      <point x="553" y="669" type="line"/>
      <point x="137" y="669" type="line"/>
    </contour>
    <contour>
      <point x="254" y="891" type="curve" smooth="yes"/>
      <point x="201" y="891"/>
      <point x="170" y="854"/>
      <point x="170" y="809" type="curve" smooth="yes"/>
      <point x="170" y="768"/>
      <point x="193" y="739"/>
      <point x="243" y="739" type="curve" smooth="yes"/>
      <point x="295" y="739"/>
      <point x="329" y="776"/>
      <point x="329" y="819" type="curve" smooth="yes"/>
      <point x="329" y="864"/>
      <point x="305" y="891"/>
    </contour>
    <contour>
      <point x="471" y="891" type="curve" smooth="yes"/>
      <point x="419" y="891"/>
      <point x="388" y="854"/>
      <point x="388" y="809" type="curve" smooth="yes"/>
      <point x="388" y="768"/>
      <point x="411" y="739"/>
      <point x="461" y="739" type="curve" smooth="yes"/>
      <point x="513" y="739"/>
      <point x="546" y="776"/>
      <point x="546" y="819" type="curve" smooth="yes"/>
      <point x="546" y="864"/>
      <point x="522" y="891"/>
    </contour>
  </outline>
</glyph>
<glyph name="Iacute" format="1">
  <advance width="307"/>
  <unicode hex="00CD"/>
  <outline>
    <contour>
      <point x="7" y="0" type="line"/>
      <point x="169" y="0" type="line"/>
      <point x="299" y="669" type="line"/>
      <point x="137" y="669" type="line"/>
    </contour>
    <contour>
      <point x="208" y="705" type="line"/>
      <point x="208" y="705"/>
      <point x="322" y="785"/>
      <point x="437" y="817" type="curve"/>
      <point x="420" y="898"/>
      <point x="374" y="942"/>
      <point x="374" y="942" type="curve"/>
      <point x="258" y="902"/>
      <point x="156" y="789"/>
      <point x="156" y="789" type="curve"/>
    </contour>
  </outline>
</glyph>
<glyph name="Idieresis" format="1">
  <advance width="307"/>
  <unicode hex="00CF"/>
  <outline>
    <contour>
      <point x="7" y="0" type="line"/>
      <point x="169" y="0" type="line"/>
      <point x="299" y="669" type="line"/>
      <point x="137" y="669" type="line"/>
    </contour>
    <contour>
      <point x="130" y="891" type="curve" smooth="yes"/>
      <point x="77" y="891"/>
      <point x="46" y="854"/>
      <point x="46" y="809" type="curve" smooth="yes"/>
      <point x="46" y="768"/>
      <point x="69" y="739"/>
      <point x="120" y="739" type="curve" smooth="yes"/>
      <point x="172" y="739"/>
      <point x="205" y="776"/>
      <point x="205" y="819" type="curve" smooth="yes"/>
      <point x="205" y="864"/>
      <point x="181" y="891"/>
    </contour>
    <contour>
      <point x="347" y="891" type="curve" smooth="yes"/>
      <point x="295" y="891"/>
      <point x="264" y="854"/>
      <point x="264" y="809" type="curve" smooth="yes"/>
      <point x="264" y="768"/>
      <point x="287" y="739"/>
      <point x="337" y="739" type="curve" smooth="yes"/>
      <point x="390" y="739"/>
      <point x="422" y="776"/>
      <point x="422" y="819" type="curve" smooth="yes"/>
      <point x="422" y="864"/>
      <point x="398" y="891"/>
    </contour>
  </outline>
</glyph>
<glyph name="Ntilde" format="1">
  <advance width="686"/>
  <unicode hex="00D1"/>
  <outline>
    <contour>
      <point x="462" y="326" type="line" smooth="yes"/>
      <point x="458" y="303"/>
      <point x="454" y="261"/>
      <point x="452" y="231" type="curve"/>
      <point x="440" y="260"/>
      <point x="424" y="303"/>
      <point x="413" y="329" type="curve" smooth="yes"/>
      <point x="265" y="669" type="line"/>
      <point x="131" y="669" type="line"/>
      <point x="7" y="18" type="line"/>
      <point x="161" y="-6" type="line"/>
      <point x="217" y="341" type="line" smooth="yes"/>
      <point x="221" y="367"/>
      <point x="224" y="406"/>
      <point x="227" y="435" type="curve"/>
      <point x="237" y="409"/>
      <point x="251" y="369"/>
      <point x="263" y="343" type="curve" smooth="yes"/>
      <point x="415" y="-1" type="line"/>
      <point x="550" y="-1" type="line"/>
      <point x="673" y="653" type="line"/>
      <point x="518" y="678" type="line"/>
    </contour>
    <contour>
      <point x="513" y="867" type="line"/>
      <point x="513" y="867"/>
      <point x="480" y="858"/>
      <point x="458" y="858" type="curve" smooth="yes"/>
      <point x="427" y="858"/>
      <point x="416" y="870"/>
      <point x="393" y="870" type="curve" smooth="yes"/>
      <point x="361" y="870"/>
      <point x="336" y="856"/>
      <point x="336" y="856" type="curve"/>
      <point x="323" y="791" type="line"/>
      <point x="323" y="791"/>
      <point x="355" y="800"/>
      <point x="377" y="800" type="curve" smooth="yes"/>
      <point x="408" y="800"/>
      <point x="419" y="788"/>
      <point x="443" y="788" type="curve" smooth="yes"/>
      <point x="475" y="788"/>
      <point x="499" y="802"/>
      <point x="499" y="802" type="curve"/>
    </contour>
  </outline>
</glyph>
<glyph name="Ograve" format="1">
  <advance width="669"/>
  <unicode hex="00D2"/>
  <outline>
    <contour>
      <point x="403" y="681" type="curve" smooth="yes"/>
      <point x="150" y="681"/>
      <point x="32" y="452"/>
      <point x="32" y="215" type="curve" smooth="yes"/>
      <point x="32" y="71"/>
      <point x="100" y="-15"/>
      <point x="264" y="-15" type="curve" smooth="yes"/>
      <point x="518" y="-15"/>
      <point x="636" y="217"/>
      <point x="636" y="453" type="curve" smooth="yes"/>
      <point x="636" y="598"/>
      <point x="567" y="681"/>
    </contour>
    <contour>
      <point x="372" y="557" type="curve" smooth="yes"/>
      <point x="441" y="557"/>
      <point x="463" y="505"/>
      <point x="463" y="437" type="curve" smooth="yes"/>
      <point x="463" y="303"/>
      <point x="412" y="109"/>
      <point x="297" y="109" type="curve" smooth="yes"/>
      <point x="227" y="109"/>
      <point x="206" y="164"/>
      <point x="206" y="233" type="curve" smooth="yes"/>
      <point x="206" y="366"/>
      <point x="257" y="557"/>
    </contour>
    <contour>
      <point x="450" y="785" type="line"/>
      <point x="450" y="785"/>
      <point x="346" y="845"/>
      <point x="269" y="944" type="curve"/>
      <point x="199" y="892"/>
      <point x="180" y="834"/>
      <point x="180" y="834" type="curve"/>
      <point x="260" y="740"/>
      <point x="395" y="704"/>
      <point x="395" y="704" type="curve"/>
    </contour>
  </outline>
</glyph>
<glyph name="Ocircumflex" format="1">
  <advance width="669"/>
  <unicode hex="00D4"/>
  <outline>
    <contour>
      <point x="403" y="681" type="curve" smooth="yes"/>
      <point x="150" y="681"/>
      <point x="32" y="452"/>
      <point x="32" y="215" type="curve" smooth="yes"/>
      <point x="32" y="71"/>
      <point x="100" y="-15"/>
      <point x="264" y="-15" type="curve" smooth="yes"/>
      <point x="518" y="-15"/>
      <point x="636" y="217"/>
      <point x="636" y="453" type="curve" smooth="yes"/>
      <point x="636" y="598"/>
      <point x="567" y="681"/>
    </contour>
    <contour>
      <point x="372" y="557" type="curve" smooth="yes"/>
      <point x="441" y="557"/>
      <point x="463" y="505"/>
      <point x="463" y="437" type="curve" smooth="yes"/>
      <point x="463" y="303"/>
      <point x="412" y="109"/>
      <point x="297" y="109" type="curve" smooth="yes"/>
      <point x="227" y="109"/>
      <point x="206" y="164"/>
      <point x="206" y="233" type="curve" smooth="yes"/>
      <point x="206" y="366"/>
      <point x="257" y="557"/>
    </contour>
    <contour>
      <point x="290" y="719" type="line"/>
      <point x="290" y="719"/>
      <point x="350" y="757"/>
      <point x="418" y="799" type="curve"/>
      <point x="478" y="740"/>
      <point x="551" y="719"/>
      <point x="551" y="719" type="curve"/>
      <point x="606" y="801" type="line"/>
      <point x="606" y="801"/>
      <point x="511" y="867"/>
      <point x="449" y="953" type="curve"/>
      <point x="352" y="900"/>
      <point x="239" y="803"/>
      <point x="239" y="803" type="curve"/>
    </contour>
  </outline>
</glyph>
<glyph name="Odieresis" format="1">
  <advance width="669"/>
  <unicode hex="00D6"/>
  <outline>
    <contour>
      <point x="403" y="681" type="curve" smooth="yes"/>
      <point x="150" y="681"/>
      <point x="32" y="452"/>
      <point x="32" y="215" type="curve" smooth="yes"/>
      <point x="32" y="71"/>
      <point x="100" y="-15"/>
      <point x="264" y="-15" type="curve" smooth="yes"/>
      <point x="518" y="-15"/>
      <point x="636" y="217"/>
      <point x="636" y="453" type="curve" smooth="yes"/>
      <point x="636" y="598"/>
      <point x="567" y="681"/>
    </contour>
    <contour>
      <point x="372" y="557" type="curve" smooth="yes"/>
      <point x="441" y="557"/>
      <point x="463" y="505"/>
      <point x="463" y="437" type="curve" smooth="yes"/>
      <point x="463" y="303"/>
      <point x="412" y="109"/>
      <point x="297" y="109" type="curve" smooth="yes"/>
      <point x="227" y="109"/>
      <point x="206" y="164"/>
      <point x="206" y="233" type="curve" smooth="yes"/>
      <point x="206" y="366"/>
      <point x="257" y="557"/>
    </contour>
    <contour>
      <point x="317" y="891" type="curve" smooth="yes"/>
      <point x="264" y="891"/>
      <point x="233" y="854"/>
      <point x="233" y="809" type="curve" smooth="yes"/>
      <point x="233" y="768"/>
      <point x="256" y="739"/>
      <point x="307" y="739" type="curve" smooth="yes"/>
      <point x="359" y="739"/>
      <point x="392" y="776"/>
      <point x="392" y="819" type="curve" smooth="yes"/>
      <point x="392" y="864"/>
      <point x="368" y="891"/>
    </contour>
    <contour>
      <point x="534" y="891" type="curve" smooth="yes"/>
      <point x="482" y="891"/>
      <point x="451" y="854"/>
      <point x="451" y="809" type="curve" smooth="yes"/>
      <point x="451" y="768"/>
      <point x="474" y="739"/>
      <point x="524" y="739" type="curve" smooth="yes"/>
      <point x="577" y="739"/>
      <point x="609" y="776"/>
      <point x="609" y="819" type="curve" smooth="yes"/>
      <point x="609" y="864"/>
      <point x="585" y="891"/>
    </contour>
  </outline>
</glyph>
<glyph name="multiply" format="1">
  <advance width="526"/>
  <unicode hex="00D7"/>
  <outline>
    <contour>
      <point x="418" y="505" type="line"/>
      <point x="278" y="385" type="line"/>
      <point x="187" y="502" type="line"/>
      <point x="83" y="417" type="line"/>
      <point x="176" y="298" type="line"/>
      <point x="32" y="175" type="line"/>
      <point x="109" y="79" type="line"/>
      <point x="253" y="202" type="line"/>
      <point x="348" y="80" type="line"/>
      <point x="452" y="165" type="line"/>
      <point x="355" y="289" type="line"/>
      <point x="493" y="408" type="line"/>
    </contour>
  </outline>
</glyph>
<glyph name="Oslash" format="1">
  <advance width="669"/>
  <unicode hex="00D8"/>
  <outline>
    <contour>
      <point x="403" y="681" type="curve" smooth="yes"/>
      <point x="150" y="681"/>
      <point x="32" y="452"/>
      <point x="32" y="215" type="curve" smooth="yes"/>
      <point x="32" y="138"/>
      <point x="51" y="79"/>
      <point x="94" y="39" type="curve"/>
      <point x="61" y="-18" type="line"/>
      <point x="164" y="-72" type="line"/>
      <point x="201" y="-9" type="line"/>
      <point x="220" y="-12"/>
      <point x="241" y="-15"/>
      <point x="264" y="-15" type="curve" smooth="yes"/>
      <point x="518" y="-15"/>
      <point x="636" y="217"/>
      <point x="636" y="453" type="curve" smooth="yes"/>
      <point x="636" y="529"/>
      <point x="617" y="588"/>
      <point x="576" y="627" type="curve"/>
      <point x="610" y="686" type="line"/>
      <point x="506" y="743" type="line"/>
      <point x="467" y="676" type="line"/>
      <point x="448" y="679"/>
      <point x="426" y="681"/>
    </contour>
    <contour>
      <point x="460" y="387" type="line" smooth="yes"/>
      <point x="453" y="260"/>
      <point x="398" y="109"/>
      <point x="297" y="109" type="curve" smooth="yes"/>
      <point x="288" y="109"/>
      <point x="280" y="109"/>
      <point x="272" y="111" type="curve"/>
      <point x="462" y="434" type="line"/>
    </contour>
    <contour>
      <point x="206" y="262" type="line" smooth="yes"/>
      <point x="212" y="391"/>
      <point x="264" y="559"/>
      <point x="372" y="559" type="curve" smooth="yes"/>
      <point x="384" y="559"/>
      <point x="391" y="558"/>
      <point x="397" y="557" type="curve"/>
      <point x="206" y="231" type="line"/>
    </contour>
  </outline>
</glyph>
<glyph name="Uacute" format="1">
  <advance width="656"/>
  <unicode hex="00DA"/>
  <outline>
    <contour>
      <point x="125" y="669" type="line"/>
      <point x="45" y="259" type="line" smooth="yes"/>
      <point x="40" y="234"/>
      <point x="37" y="209"/>
      <point x="37" y="187" type="curve" smooth="yes"/>
      <point x="37" y="76"/>
      <point x="95" y="-7"/>
      <point x="256" y="-7" type="curve" smooth="yes"/>
      <point x="452" y="-7"/>
      <point x="541" y="112"/>
      <point x="568" y="251" type="curve" smooth="yes"/>
      <point x="649" y="669" type="line"/>
      <point x="487" y="669" type="line"/>
      <point x="408" y="268" type="line" smooth="yes"/>
      <point x="390" y="177"/>
      <point x="348" y="112"/>
      <point x="283" y="112" type="curve" smooth="yes"/>
      <point x="233" y="112"/>
      <point x="202" y="146"/>
      <point x="202" y="208" type="curve" smooth="yes"/>
      <point x="202" y="224"/>
      <point x="203" y="241"/>
      <point x="207" y="260" type="curve" smooth="yes"/>
      <point x="287" y="669" type="line"/>
    </contour>
    <contour>
      <point x="386" y="705" type="line"/>
      <point x="386" y="705"/>
      <point x="500" y="785"/>
      <point x="615" y="817" type="curve"/>
      <point x="598" y="898"/>
      <point x="552" y="942"/>
      <point x="552" y="942" type="curve"/>
      <point x="436" y="902"/>
      <point x="334" y="789"/>
      <point x="334" y="789" type="curve"/>
    </contour>
  </outline>
</glyph>
<glyph name="Ucircumflex" format="1">
  <advance width="656"/>
  <unicode hex="00DB"/>
  <outline>
    <contour>
      <point x="125" y="669" type="line"/>
      <point x="45" y="259" type="line" smooth="yes"/>
      <point x="40" y="234"/>
      <point x="37" y="209"/>
      <point x="37" y="187" type="curve" smooth="yes"/>
      <point x="37" y="76"/>
      <point x="95" y="-7"/>
      <point x="256" y="-7" type="curve" smooth="yes"/>
      <point x="452" y="-7"/>
      <point x="541" y="112"/>
      <point x="568" y="251" type="curve" smooth="yes"/>
      <point x="649" y="669" type="line"/>
      <point x="487" y="669" type="line"/>
      <point x="408" y="268" type="line" smooth="yes"/>
      <point x="390" y="177"/>
      <point x="348" y="112"/>
      <point x="283" y="112" type="curve" smooth="yes"/>
      <point x="233" y="112"/>
      <point x="202" y="146"/>
      <point x="202" y="208" type="curve" smooth="yes"/>
      <point x="202" y="224"/>
      <point x="203" y="241"/>
      <point x="207" y="260" type="curve" smooth="yes"/>
      <point x="287" y="669" type="line"/>
    </contour>
    <contour>
      <point x="281" y="719" type="line"/>
      <point x="281" y="719"/>
      <point x="341" y="757"/>
      <point x="409" y="799" type="curve"/>
      <point x="469" y="740"/>
      <point x="542" y="719"/>
      <point x="542" y="719" type="curve"/>
      <point x="597" y="801" type="line"/>
      <point x="597" y="801"/>
      <point x="502" y="867"/>
      <point x="440" y="953" type="curve"/>
      <point x="343" y="900"/>
      <point x="230" y="803"/>
      <point x="230" y="803" type="curve"/>
    </contour>
  </outline>
</glyph>
<glyph name="Udieresis" format="1">
  <advance width="656"/>
  <unicode hex="00DC"/>
  <outline>
    <contour>
      <point x="125" y="669" type="line"/>
      <point x="45" y="259" type="line" smooth="yes"/>
      <point x="40" y="234"/>
      <point x="37" y="209"/>
      <point x="37" y="187" type="curve" smooth="yes"/>
      <point x="37" y="76"/>
      <point x="95" y="-7"/>
      <point x="256" y="-7" type="curve" smooth="yes"/>
      <point x="452" y="-7"/>
      <point x="541" y="112"/>
      <point x="568" y="251" type="curve" smooth="yes"/>
      <point x="649" y="669" type="line"/>
      <point x="487" y="669" type="line"/>
      <point x="408" y="268" type="line" smooth="yes"/>
      <point x="390" y="177"/>
      <point x="348" y="112"/>
      <point x="283" y="112" type="curve" smooth="yes"/>
      <point x="233" y="112"/>
      <point x="202" y="146"/>
      <point x="202" y="208" type="curve" smooth="yes"/>
      <point x="202" y="224"/>
      <point x="203" y="241"/>
      <point x="207" y="260" type="curve" smooth="yes"/>
      <point x="287" y="669" type="line"/>
    </contour>
    <contour>
      <point x="308" y="891" type="curve" smooth="yes"/>
      <point x="255" y="891"/>
      <point x="224" y="854"/>
      <point x="224" y="809" type="curve" smooth="yes"/>
      <point x="224" y="768"/>
      <point x="247" y="739"/>
      <point x="298" y="739" type="curve" smooth="yes"/>
      <point x="350" y="739"/>
      <point x="383" y="776"/>
      <point x="383" y="819" type="curve" smooth="yes"/>
      <point x="383" y="864"/>
      <point x="359" y="891"/>
    </contour>
    <contour>
      <point x="525" y="891" type="curve" smooth="yes"/>
      <point x="473" y="891"/>
      <point x="442" y="854"/>
      <point x="442" y="809" type="curve" smooth="yes"/>
      <point x="442" y="768"/>
      <point x="465" y="739"/>
      <point x="515" y="739" type="curve" smooth="yes"/>
      <point x="568" y="739"/>
      <point x="600" y="776"/>
      <point x="600" y="819" type="curve" smooth="yes"/>
      <point x="600" y="864"/>
      <point x="576" y="891"/>
    </contour>
  </outline>
</glyph>
<glyph name="Yacute" format="1">
  <advance width="469"/>
  <unicode hex="00DD"/>
  <outline>
    <contour>
      <point x="268" y="0" type="line"/>
      <point x="268" y="38" type="line" smooth="yes"/>
      <point x="268" y="345"/>
      <point x="387" y="466"/>
      <point x="536" y="608" type="curve"/>
      <point x="440" y="685" type="line"/>
      <point x="377" y="643"/>
      <point x="302" y="569"/>
      <point x="244" y="457" type="curve"/>
      <point x="192" y="669" type="line"/>
      <point x="28" y="669" type="line"/>
      <point x="152" y="273" type="line"/>
      <point x="123" y="205"/>
      <point x="107" y="126"/>
      <point x="107" y="40" type="curve" smooth="yes"/>
      <point x="107" y="0" type="line"/>
    </contour>
    <contour>
      <point x="284" y="705" type="line"/>
      <point x="284" y="705"/>
      <point x="399" y="785"/>
      <point x="514" y="817" type="curve"/>
      <point x="497" y="898"/>
      <point x="450" y="942"/>
      <point x="450" y="942" type="curve"/>
      <point x="335" y="902"/>
      <point x="232" y="789"/>
      <point x="232" y="789" type="curve"/>
    </contour>
  </outline>
</glyph>
<glyph name="Thorn" format="1">
  <advance width="543"/>
  <unicode hex="00DE"/>
  <outline>
    <contour>
      <point x="7" y="0" type="line"/>
      <point x="169" y="0" type="line"/>
      <point x="194" y="132" type="line"/>
      <point x="210" y="131"/>
      <point x="228" y="131"/>
      <point x="246" y="131" type="curve" smooth="yes"/>
      <point x="389" y="131"/>
      <point x="530" y="218"/>
      <point x="530" y="395" type="curve" smooth="yes"/>
      <point x="530" y="513"/>
      <point x="446" y="558"/>
      <point x="324" y="558" type="curve" smooth="yes"/>
      <point x="310" y="558"/>
      <point x="293" y="558"/>
      <point x="276" y="556" type="curve"/>
      <point x="298" y="669" type="line"/>
      <point x="136" y="669" type="line"/>
    </contour>
    <contour>
      <point x="289" y="442" type="curve" smooth="yes"/>
      <point x="329" y="442"/>
      <point x="360" y="424"/>
      <point x="360" y="369" type="curve" smooth="yes"/>
      <point x="360" y="298"/>
      <point x="309" y="257"/>
      <point x="248" y="257" type="curve" smooth="yes"/>
      <point x="219" y="257" type="line"/>
      <point x="254" y="439" type="line"/>
      <point x="264" y="441"/>
      <point x="275" y="442"/>
    </contour>
  </outline>
</glyph>
<glyph name="germandbls" format="1">
  <advance width="583"/>
  <unicode hex="00DF"/>
  <outline>
    <contour>
      <point x="21" y="48" type="line" smooth="yes"/>
      <point x="5" y="-35"/>
      <point x="-36" y="-75"/>
      <point x="-123" y="-115" type="curve"/>
      <point x="-67" y="-223" type="line"/>
      <point x="56" y="-162"/>
      <point x="148" y="-105"/>
      <point x="178" y="50" type="curve" smooth="yes"/>
      <point x="263" y="493" type="line"/>
      <point x="277" y="565"/>
      <point x="309" y="604"/>
      <point x="370" y="604" type="curve" smooth="yes"/>
      <point x="400" y="604"/>
      <point x="419" y="591"/>
      <point x="419" y="567" type="curve" smooth="yes"/>
      <point x="419" y="505"/>
      <point x="279" y="486"/>
      <point x="279" y="354" type="curve" smooth="yes"/>
      <point x="279" y="247"/>
      <point x="383" y="236"/>
      <point x="383" y="167" type="curve" smooth="yes"/>
      <point x="383" y="133"/>
      <point x="361" y="113"/>
      <point x="320" y="113" type="curve" smooth="yes"/>
      <point x="302" y="113"/>
      <point x="279" y="117"/>
      <point x="254" y="133" type="curve"/>
      <point x="199" y="28" type="line"/>
      <point x="236" y="2"/>
      <point x="290" y="-7"/>
      <point x="334" y="-7" type="curve" smooth="yes"/>
      <point x="459" y="-7"/>
      <point x="546" y="83"/>
      <point x="546" y="189" type="curve" smooth="yes"/>
      <point x="546" y="303"/>
      <point x="435" y="324"/>
      <point x="435" y="389" type="curve" smooth="yes"/>
      <point x="435" y="453"/>
      <point x="578" y="469"/>
      <point x="578" y="603" type="curve" smooth="yes"/>
      <point x="578" y="670"/>
      <point x="534" y="725"/>
      <point x="408" y="725" type="curve" smooth="yes"/>
      <point x="214" y="725"/>
      <point x="131" y="624"/>
      <point x="103" y="479" type="curve" smooth="yes"/>
    </contour>
  </outline>
</glyph>
<glyph name="aacute" format="1">
  <advance width="531"/>
  <unicode hex="00E1"/>
  <outline>
    <contour>
      <point x="207" y="109" type="curve" smooth="yes"/>
      <point x="188" y="109"/>
      <point x="184" y="132"/>
      <point x="184" y="160" type="curve" smooth="yes"/>
      <point x="184" y="230"/>
      <point x="210" y="387"/>
      <point x="302" y="387" type="curve" smooth="yes"/>
      <point x="316" y="387"/>
      <point x="324" y="386"/>
      <point x="332" y="383" type="curve"/>
      <point x="322" y="338" type="line" smooth="yes"/>
      <point x="299" y="241"/>
      <point x="248" y="109"/>
    </contour>
    <contour>
      <point x="159" y="-9" type="curve" smooth="yes"/>
      <point x="221" y="-9"/>
      <point x="276" y="27"/>
      <point x="319" y="118" type="curve" smooth="yes"/>
      <point x="332" y="146" type="line"/>
      <point x="329" y="119"/>
      <point x="329" y="100"/>
      <point x="329" y="84" type="curve" smooth="yes"/>
      <point x="329" y="44"/>
      <point x="345" y="11"/>
      <point x="365" y="-12" type="curve"/>
      <point x="491" y="38" type="line"/>
      <point x="464" y="79"/>
      <point x="451" y="114"/>
      <point x="451" y="170" type="curve" smooth="yes"/>
      <point x="451" y="194"/>
      <point x="454" y="223"/>
      <point x="461" y="255" type="curve" smooth="yes"/>
      <point x="503" y="473" type="line"/>
      <point x="423" y="478" type="line"/>
      <point x="386" y="495"/>
      <point x="353" y="502"/>
      <point x="309" y="502" type="curve" smooth="yes"/>
      <point x="123" y="502"/>
      <point x="22" y="354"/>
      <point x="22" y="163" type="curve" smooth="yes"/>
      <point x="22" y="81"/>
      <point x="59" y="-9"/>
    </contour>
    <contour>
      <point x="308" y="526" type="line"/>
      <point x="308" y="526"/>
      <point x="405" y="625"/>
      <point x="513" y="677" type="curve"/>
      <point x="482" y="754"/>
      <point x="428" y="789"/>
      <point x="428" y="789" type="curve"/>
      <point x="322" y="730"/>
      <point x="241" y="600"/>
      <point x="241" y="600" type="curve"/>
    </contour>
  </outline>
</glyph>
<glyph name="aring" format="1">
  <advance width="529"/>
  <unicode hex="00E5"/>
  <outline>
    <contour>
      <point x="216" y="109" type="curve" smooth="yes"/>
      <point x="196" y="109"/>
      <point x="192" y="132"/>
      <point x="192" y="160" type="curve" smooth="yes"/>
      <point x="192" y="230"/>
      <point x="218" y="387"/>
      <point x="311" y="387" type="curve" smooth="yes"/>
      <point x="324" y="387"/>
      <point x="332" y="386"/>
      <point x="340" y="383" type="curve"/>
      <point x="330" y="338" type="line" smooth="yes"/>
      <point x="308" y="241"/>
      <point x="256" y="109"/>
    </contour>
    <contour>
      <point x="167" y="-9" type="curve" smooth="yes"/>
      <point x="229" y="-9"/>
      <point x="285" y="27"/>
      <point x="327" y="118" type="curve" smooth="yes"/>
      <point x="340" y="146" type="line"/>
      <point x="338" y="119"/>
      <point x="337" y="100"/>
      <point x="337" y="84" type="curve" smooth="yes"/>
      <point x="337" y="44"/>
      <point x="353" y="11"/>
      <point x="373" y="-12" type="curve"/>
      <point x="500" y="38" type="line"/>
      <point x="472" y="79"/>
      <point x="460" y="114"/>
      <point x="460" y="170" type="curve" smooth="yes"/>
      <point x="460" y="194"/>
      <point x="463" y="223"/>
      <point x="469" y="255" type="curve" smooth="yes"/>
      <point x="512" y="473" type="line"/>
      <point x="431" y="478" type="line"/>
      <point x="394" y="495"/>
      <point x="361" y="502"/>
      <point x="317" y="502" type="curve" smooth="yes"/>
      <point x="132" y="502"/>
      <point x="31" y="354"/>
      <point x="31" y="163" type="curve" smooth="yes"/>
      <point x="31" y="81"/>
      <point x="67" y="-9"/>
    </contour>
    <contour>
      <point x="352" y="701" type="curve" smooth="yes"/>
      <point x="369" y="701"/>
      <point x="379" y="688"/>
      <point x="379" y="670" type="curve" smooth="yes"/>
      <point x="379" y="644"/>
      <point x="362" y="618"/>
      <point x="337" y="618" type="curve" smooth="yes"/>
      <point x="319" y="618"/>
      <point x="309" y="631"/>
      <point x="309" y="648" type="curve" smooth="yes"/>
      <point x="309" y="674"/>
      <point x="325" y="701"/>
    </contour>
    <contour>
      <point x="325" y="547" type="curve" smooth="yes"/>
      <point x="404" y="547"/>
      <point x="458" y="607"/>
      <point x="458" y="678" type="curve" smooth="yes"/>
      <point x="458" y="732"/>
      <point x="424" y="773"/>
      <point x="363" y="773" type="curve" smooth="yes"/>
      <point x="284" y="773"/>
      <point x="230" y="713"/>
      <point x="230" y="641" type="curve" smooth="yes"/>
      <point x="230" y="587"/>
      <point x="264" y="547"/>
    </contour>
  </outline>
</glyph>
<glyph name="ae" format="1">
  <advance width="739"/>
  <unicode hex="00E6"/>
  <outline>
    <contour>
      <point x="159" y="-9" type="curve" smooth="yes"/>
      <point x="214" y="-9"/>
      <point x="265" y="20"/>
      <point x="304" y="91" type="curve"/>
      <point x="325" y="32"/>
      <point x="375" y="-13"/>
      <point x="472" y="-13" type="curve" smooth="yes"/>
      <point x="568" y="-13"/>
      <point x="683" y="44"/>
      <point x="683" y="44" type="curve"/>
      <point x="650" y="146" type="line"/>
      <point x="650" y="146"/>
      <point x="538" y="105"/>
      <point x="500" y="105" type="curve" smooth="yes"/>
      <point x="472" y="105"/>
      <point x="451" y="119"/>
      <point x="451" y="152" type="curve" smooth="yes"/>
      <point x="451" y="160"/>
      <point x="453" y="171"/>
      <point x="453" y="174" type="curve"/>
      <point x="617" y="190"/>
      <point x="732" y="269"/>
      <point x="732" y="382" type="curve" smooth="yes"/>
      <point x="732" y="455"/>
      <point x="687" y="505"/>
      <point x="574" y="505" type="curve" smooth="yes"/>
      <point x="523" y="505"/>
      <point x="478" y="492"/>
      <point x="441" y="470" type="curve"/>
      <point x="401" y="490"/>
      <point x="356" y="502"/>
      <point x="309" y="502" type="curve" smooth="yes"/>
      <point x="123" y="502"/>
      <point x="22" y="354"/>
      <point x="22" y="163" type="curve" smooth="yes"/>
      <point x="22" y="81"/>
      <point x="59" y="-9"/>
    </contour>
    <contour>
      <point x="207" y="109" type="curve" smooth="yes"/>
      <point x="188" y="109"/>
      <point x="184" y="132"/>
      <point x="184" y="160" type="curve" smooth="yes"/>
      <point x="184" y="230"/>
      <point x="210" y="387"/>
      <point x="302" y="387" type="curve" smooth="yes"/>
      <point x="316" y="387"/>
      <point x="324" y="386"/>
      <point x="332" y="383" type="curve"/>
      <point x="322" y="338" type="line" smooth="yes"/>
      <point x="299" y="241"/>
      <point x="248" y="109"/>
    </contour>
    <contour>
      <point x="550" y="389" type="curve" smooth="yes"/>
      <point x="569" y="389"/>
      <point x="579" y="380"/>
      <point x="579" y="362" type="curve" smooth="yes"/>
      <point x="579" y="332"/>
      <point x="540" y="292"/>
      <point x="468" y="283" type="curve"/>
      <point x="484" y="345"/>
      <point x="516" y="389"/>
    </contour>
  </outline>
</glyph>
<glyph name="ccedilla" format="1">
  <advance width="402"/>
  <unicode hex="00E7"/>
  <outline>
    <contour>
      <point x="327" y="129" type="line"/>
      <point x="308" y="123"/>
      <point x="253" y="105"/>
      <point x="230" y="105" type="curve" smooth="yes"/>
      <point x="202" y="105"/>
      <point x="183" y="120"/>
      <point x="183" y="165" type="curve" smooth="yes"/>
      <point x="183" y="252"/>
      <point x="216" y="385"/>
      <point x="283" y="385" type="curve" smooth="yes"/>
      <point x="306" y="385"/>
      <point x="309" y="365"/>
      <point x="315" y="349" type="curve"/>
      <point x="429" y="393" type="line"/>
      <point x="415" y="453"/>
      <point x="385" y="505"/>
      <point x="304" y="505" type="curve" smooth="yes"/>
      <point x="123" y="505"/>
      <point x="22" y="347"/>
      <point x="22" y="163" type="curve" smooth="yes"/>
      <point x="22" y="88"/>
      <point x="54" y="13"/>
      <point x="148" y="-6" type="curve"/>
      <point x="137" y="-23"/>
      <point x="128" y="-38"/>
      <point x="128" y="-54" type="curve" smooth="yes"/>
      <point x="128" y="-95"/>
      <point x="194" y="-95"/>
      <point x="194" y="-126" type="curve" smooth="yes"/>
      <point x="194" y="-137"/>
      <point x="183" y="-143"/>
      <point x="162" y="-143" type="curve" smooth="yes"/>
      <point x="136" y="-143"/>
      <point x="116" y="-133"/>
      <point x="96" y="-118" type="curve"/>
      <point x="57" y="-195" type="line"/>
      <point x="92" y="-217"/>
      <point x="127" y="-227"/>
      <point x="168" y="-227" type="curve" smooth="yes"/>
      <point x="231" y="-227"/>
      <point x="303" y="-194"/>
      <point x="303" y="-121" type="curve" smooth="yes"/>
      <point x="303" y="-59"/>
      <point x="226" y="-53"/>
      <point x="226" y="-26" type="curve" smooth="yes"/>
      <point x="226" y="-22"/>
      <point x="228" y="-16"/>
      <point x="230" y="-11" type="curve"/>
      <point x="299" y="-4"/>
      <point x="358" y="21"/>
      <point x="362" y="23" type="curve"/>
    </contour>
  </outline>
</glyph>
<glyph name="eacute" format="1">
  <advance width="469"/>
  <unicode hex="00E9"/>
  <outline>
    <contour>
      <point x="22" y="163" type="curve" smooth="yes"/>
      <point x="22" y="75"/>
      <point x="66" y="-13"/>
      <point x="201" y="-13" type="curve" smooth="yes"/>
      <point x="298" y="-13"/>
      <point x="413" y="44"/>
      <point x="413" y="44" type="curve"/>
      <point x="379" y="146" type="line"/>
      <point x="379" y="146"/>
      <point x="267" y="105"/>
      <point x="230" y="105" type="curve" smooth="yes"/>
      <point x="202" y="105"/>
      <point x="181" y="119"/>
      <point x="181" y="152" type="curve" smooth="yes"/>
      <point x="181" y="159"/>
      <point x="182" y="169"/>
      <point x="182" y="174" type="curve"/>
      <point x="346" y="189"/>
      <point x="462" y="269"/>
      <point x="462" y="382" type="curve" smooth="yes"/>
      <point x="462" y="455"/>
      <point x="416" y="505"/>
      <point x="304" y="505" type="curve" smooth="yes"/>
      <point x="124" y="505"/>
      <point x="22" y="347"/>
    </contour>
    <contour>
      <point x="280" y="389" type="curve" smooth="yes"/>
      <point x="299" y="389"/>
      <point x="309" y="380"/>
      <point x="309" y="362" type="curve" smooth="yes"/>
      <point x="309" y="332"/>
      <point x="270" y="292"/>
      <point x="198" y="283" type="curve"/>
      <point x="214" y="345"/>
      <point x="245" y="389"/>
    </contour>
    <contour>
      <point x="312" y="530" type="line"/>
      <point x="312" y="530"/>
      <point x="410" y="629"/>
      <point x="518" y="681" type="curve"/>
      <point x="487" y="758"/>
      <point x="433" y="793"/>
      <point x="433" y="793" type="curve"/>
      <point x="327" y="734"/>
      <point x="246" y="604"/>
      <point x="246" y="604" type="curve"/>
    </contour>
  </outline>
</glyph>
<glyph name="igrave" format="1">
  <advance width="297"/>
  <unicode hex="00EC"/>
  <outline>
    <contour>
      <point x="138" y="-7" type="curve" smooth="yes"/>
      <point x="194" y="-7"/>
      <point x="247" y="18"/>
      <point x="247" y="18" type="curve"/>
      <point x="247" y="126" type="line"/>
      <point x="244" y="125"/>
      <point x="216" y="115"/>
      <point x="202" y="115" type="curve" smooth="yes"/>
      <point x="190" y="115"/>
      <point x="189" y="124"/>
      <point x="189" y="133" type="curve" smooth="yes"/>
      <point x="189" y="139"/>
      <point x="190" y="142"/>
      <point x="193" y="159" type="curve" smooth="yes"/>
      <point x="258" y="490" type="line"/>
      <point x="105" y="490" type="line"/>
      <point x="31" y="121" type="line" smooth="yes"/>
      <point x="29" y="110"/>
      <point x="27" y="99"/>
      <point x="27" y="90" type="curve" smooth="yes"/>
      <point x="27" y="32"/>
      <point x="68" y="-7"/>
    </contour>
    <contour>
      <point x="261" y="581" type="line"/>
      <point x="261" y="581"/>
      <point x="203" y="681"/>
      <point x="158" y="789" type="curve"/>
      <point x="85" y="762"/>
      <point x="35" y="721"/>
      <point x="35" y="721" type="curve"/>
      <point x="93" y="612"/>
      <point x="180" y="526"/>
      <point x="180" y="526" type="curve"/>
    </contour>
  </outline>
</glyph>
<glyph name="iacute" format="1">
  <advance width="297"/>
  <unicode hex="00ED"/>
  <outline>
    <contour>
      <point x="138" y="-7" type="curve" smooth="yes"/>
      <point x="194" y="-7"/>
      <point x="247" y="18"/>
      <point x="247" y="18" type="curve"/>
      <point x="247" y="126" type="line"/>
      <point x="244" y="125"/>
      <point x="216" y="115"/>
      <point x="202" y="115" type="curve" smooth="yes"/>
      <point x="190" y="115"/>
      <point x="189" y="124"/>
      <point x="189" y="133" type="curve" smooth="yes"/>
      <point x="189" y="139"/>
      <point x="190" y="142"/>
      <point x="193" y="159" type="curve" smooth="yes"/>
      <point x="258" y="490" type="line"/>
      <point x="105" y="490" type="line"/>
      <point x="31" y="121" type="line" smooth="yes"/>
      <point x="29" y="110"/>
      <point x="27" y="99"/>
      <point x="27" y="90" type="curve" smooth="yes"/>
      <point x="27" y="32"/>
      <point x="68" y="-7"/>
    </contour>
    <contour>
      <point x="194" y="526" type="line"/>
      <point x="194" y="526"/>
      <point x="269" y="624"/>
      <point x="351" y="698" type="curve"/>
      <point x="303" y="757"/>
      <point x="245" y="789"/>
      <point x="245" y="789" type="curve"/>
      <point x="162" y="698"/>
      <point x="113" y="582"/>
      <point x="113" y="582" type="curve"/>
    </contour>
  </outline>
</glyph>
<glyph name="idieresis" format="1">
  <advance width="297"/>
  <unicode hex="00EF"/>
  <outline>
    <contour>
      <point x="138" y="-7" type="curve" smooth="yes"/>
      <point x="194" y="-7"/>
      <point x="247" y="18"/>
      <point x="247" y="18" type="curve"/>
      <point x="247" y="126" type="line"/>
      <point x="244" y="125"/>
      <point x="216" y="115"/>
      <point x="202" y="115" type="curve" smooth="yes"/>
      <point x="190" y="115"/>
      <point x="189" y="124"/>
      <point x="189" y="133" type="curve" smooth="yes"/>
      <point x="189" y="139"/>
      <point x="190" y="142"/>
      <point x="193" y="159" type="curve" smooth="yes"/>
      <point x="258" y="490" type="line"/>
      <point x="105" y="490" type="line"/>
      <point x="31" y="121" type="line" smooth="yes"/>
      <point x="29" y="110"/>
      <point x="27" y="99"/>
      <point x="27" y="90" type="curve" smooth="yes"/>
      <point x="27" y="32"/>
      <point x="68" y="-7"/>
    </contour>
    <contour>
      <point x="121" y="730" type="curve" smooth="yes"/>
      <point x="69" y="730"/>
      <point x="38" y="694"/>
      <point x="38" y="650" type="curve" smooth="yes"/>
      <point x="38" y="609"/>
      <point x="61" y="580"/>
      <point x="111" y="580" type="curve" smooth="yes"/>
      <point x="162" y="580"/>
      <point x="195" y="617"/>
      <point x="195" y="660" type="curve" smooth="yes"/>
      <point x="195" y="704"/>
      <point x="171" y="730"/>
    </contour>
    <contour>
      <point x="302" y="730" type="curve" smooth="yes"/>
      <point x="250" y="730"/>
      <point x="220" y="694"/>
      <point x="220" y="650" type="curve" smooth="yes"/>
      <point x="220" y="609"/>
      <point x="243" y="580"/>
      <point x="292" y="580" type="curve" smooth="yes"/>
      <point x="344" y="580"/>
      <point x="376" y="617"/>
      <point x="376" y="660" type="curve" smooth="yes"/>
      <point x="376" y="704"/>
      <point x="352" y="730"/>
    </contour>
  </outline>
</glyph>
<glyph name="ntilde" format="1">
  <advance width="552"/>
  <unicode hex="00F1"/>
  <outline>
    <contour>
      <point x="504" y="378" type="curve" smooth="yes"/>
      <point x="504" y="457"/>
      <point x="467" y="502"/>
      <point x="379" y="502" type="curve" smooth="yes"/>
      <point x="300" y="502"/>
      <point x="243" y="463"/>
      <point x="202" y="375" type="curve" smooth="yes"/>
      <point x="189" y="347" type="line"/>
      <point x="196" y="399"/>
      <point x="196" y="406"/>
      <point x="196" y="421" type="curve" smooth="yes"/>
      <point x="196" y="453"/>
      <point x="187" y="483"/>
      <point x="168" y="504" type="curve"/>
      <point x="42" y="455" type="line"/>
      <point x="50" y="442"/>
      <point x="73" y="404"/>
      <point x="73" y="342" type="curve" smooth="yes"/>
      <point x="73" y="318"/>
      <point x="70" y="289"/>
      <point x="63" y="256" type="curve" smooth="yes"/>
      <point x="12" y="0" type="line"/>
      <point x="167" y="0" type="line"/>
      <point x="198" y="162" type="line" smooth="yes"/>
      <point x="216" y="254"/>
      <point x="273" y="374"/>
      <point x="324" y="374" type="curve" smooth="yes"/>
      <point x="342" y="374"/>
      <point x="348" y="361"/>
      <point x="348" y="343" type="curve" smooth="yes"/>
      <point x="348" y="261"/>
      <point x="294" y="171"/>
      <point x="294" y="76" type="curve" smooth="yes"/>
      <point x="294" y="59"/>
      <point x="294" y="40"/>
      <point x="301" y="0" type="curve"/>
      <point x="457" y="0" type="line"/>
      <point x="447" y="44"/>
      <point x="444" y="84"/>
      <point x="444" y="108" type="curve" smooth="yes"/>
      <point x="444" y="182"/>
      <point x="504" y="266"/>
    </contour>
    <contour>
      <point x="565" y="719" type="line"/>
      <point x="565" y="719"/>
      <point x="515" y="703"/>
      <point x="471" y="703" type="curve" smooth="yes"/>
      <point x="416" y="703"/>
      <point x="380" y="725"/>
      <point x="333" y="725" type="curve" smooth="yes"/>
      <point x="279" y="725"/>
      <point x="236" y="700"/>
      <point x="236" y="700" type="curve"/>
      <point x="215" y="597" type="line"/>
      <point x="215" y="597"/>
      <point x="265" y="613"/>
      <point x="309" y="613" type="curve" smooth="yes"/>
      <point x="364" y="613"/>
      <point x="400" y="591"/>
      <point x="447" y="591" type="curve" smooth="yes"/>
      <point x="501" y="591"/>
      <point x="544" y="616"/>
      <point x="544" y="616" type="curve"/>
    </contour>
  </outline>
</glyph>
<glyph name="oacute" format="1">
  <advance width="505"/>
  <unicode hex="00F3"/>
  <outline>
    <contour>
      <point x="304" y="505" type="curve" smooth="yes"/>
      <point x="123" y="505"/>
      <point x="22" y="347"/>
      <point x="22" y="163" type="curve" smooth="yes"/>
      <point x="22" y="75"/>
      <point x="66" y="-13"/>
      <point x="201" y="-13" type="curve" smooth="yes"/>
      <point x="383" y="-13"/>
      <point x="483" y="141"/>
      <point x="483" y="327" type="curve" smooth="yes"/>
      <point x="483" y="415"/>
      <point x="440" y="505"/>
    </contour>
    <contour>
      <point x="283" y="393" type="curve" smooth="yes"/>
      <point x="306" y="393"/>
      <point x="321" y="375"/>
      <point x="321" y="334" type="curve" smooth="yes"/>
      <point x="321" y="241"/>
      <point x="286" y="99"/>
      <point x="222" y="99" type="curve" smooth="yes"/>
      <point x="198" y="99"/>
      <point x="183" y="116"/>
      <point x="183" y="156" type="curve" smooth="yes"/>
      <point x="183" y="251"/>
      <point x="218" y="393"/>
    </contour>
    <contour>
      <point x="312" y="530" type="line"/>
      <point x="312" y="530"/>
      <point x="410" y="629"/>
      <point x="518" y="681" type="curve"/>
      <point x="487" y="758"/>
      <point x="433" y="793"/>
      <point x="433" y="793" type="curve"/>
      <point x="326" y="734"/>
      <point x="246" y="604"/>
      <point x="246" y="604" type="curve"/>
    </contour>
  </outline>
</glyph>
<glyph name="ocircumflex" format="1">
  <advance width="505"/>
  <unicode hex="00F4"/>
  <outline>
    <contour>
      <point x="304" y="505" type="curve" smooth="yes"/>
      <point x="123" y="505"/>
      <point x="22" y="347"/>
      <point x="22" y="163" type="curve" smooth="yes"/>
      <point x="22" y="75"/>
      <point x="66" y="-13"/>
      <point x="201" y="-13" type="curve" smooth="yes"/>
      <point x="383" y="-13"/>
      <point x="483" y="141"/>
      <point x="483" y="327" type="curve" smooth="yes"/>
      <point x="483" y="415"/>
      <point x="440" y="505"/>
    </contour>
    <contour>
      <point x="283" y="393" type="curve" smooth="yes"/>
      <point x="306" y="393"/>
      <point x="321" y="375"/>
      <point x="321" y="334" type="curve" smooth="yes"/>
      <point x="321" y="241"/>
      <point x="286" y="99"/>
      <point x="222" y="99" type="curve" smooth="yes"/>
      <point x="198" y="99"/>
      <point x="183" y="116"/>
      <point x="183" y="156" type="curve" smooth="yes"/>
      <point x="183" y="251"/>
      <point x="218" y="393"/>
    </contour>
    <contour>
      <point x="209" y="538" type="line"/>
      <point x="209" y="538"/>
      <point x="262" y="582"/>
      <point x="324" y="630" type="curve"/>
      <point x="378" y="572"/>
      <point x="435" y="538"/>
      <point x="435" y="538" type="curve"/>
      <point x="508" y="604" type="line"/>
      <point x="508" y="604"/>
      <point x="424" y="700"/>
      <point x="357" y="801" type="curve"/>
      <point x="266" y="740"/>
      <point x="135" y="604"/>
      <point x="135" y="604" type="curve"/>
    </contour>
  </outline>
</glyph>
<glyph name="otilde" format="1">
  <advance width="505"/>
  <unicode hex="00F5"/>
  <outline>
    <contour>
      <point x="304" y="505" type="curve" smooth="yes"/>
      <point x="123" y="505"/>
      <point x="22" y="347"/>
      <point x="22" y="163" type="curve" smooth="yes"/>
      <point x="22" y="75"/>
      <point x="66" y="-13"/>
      <point x="201" y="-13" type="curve" smooth="yes"/>
      <point x="383" y="-13"/>
      <point x="483" y="141"/>
      <point x="483" y="327" type="curve" smooth="yes"/>
      <point x="483" y="415"/>
      <point x="440" y="505"/>
    </contour>
    <contour>
      <point x="283" y="393" type="curve" smooth="yes"/>
      <point x="306" y="393"/>
      <point x="321" y="375"/>
      <point x="321" y="334" type="curve" smooth="yes"/>
      <point x="321" y="241"/>
      <point x="286" y="99"/>
      <point x="222" y="99" type="curve" smooth="yes"/>
      <point x="198" y="99"/>
      <point x="183" y="116"/>
      <point x="183" y="156" type="curve" smooth="yes"/>
      <point x="183" y="251"/>
      <point x="218" y="393"/>
    </contour>
    <contour>
      <point x="502" y="723" type="line"/>
      <point x="502" y="723"/>
      <point x="452" y="707"/>
      <point x="408" y="707" type="curve" smooth="yes"/>
      <point x="354" y="707"/>
      <point x="317" y="729"/>
      <point x="270" y="729" type="curve" smooth="yes"/>
      <point x="216" y="729"/>
      <point x="173" y="704"/>
      <point x="173" y="704" type="curve"/>
      <point x="152" y="601" type="line"/>
      <point x="152" y="601"/>
      <point x="202" y="617"/>
      <point x="246" y="617" type="curve" smooth="yes"/>
      <point x="301" y="617"/>
      <point x="338" y="595"/>
      <point x="385" y="595" type="curve" smooth="yes"/>
      <point x="438" y="595"/>
      <point x="481" y="620"/>
      <point x="481" y="620" type="curve"/>
    </contour>
  </outline>
</glyph>
<glyph name="odieresis" format="1">
  <advance width="505"/>
  <unicode hex="00F6"/>
  <outline>
    <contour>
      <point x="304" y="505" type="curve" smooth="yes"/>
      <point x="123" y="505"/>
      <point x="22" y="347"/>
      <point x="22" y="163" type="curve" smooth="yes"/>
      <point x="22" y="75"/>
      <point x="66" y="-13"/>
      <point x="201" y="-13" type="curve" smooth="yes"/>
      <point x="383" y="-13"/>
      <point x="483" y="141"/>
      <point x="483" y="327" type="curve" smooth="yes"/>
      <point x="483" y="415"/>
      <point x="440" y="505"/>
    </contour>
    <contour>
      <point x="283" y="393" type="curve" smooth="yes"/>
      <point x="306" y="393"/>
      <point x="321" y="375"/>
      <point x="321" y="334" type="curve" smooth="yes"/>
      <point x="321" y="241"/>
      <point x="286" y="99"/>
      <point x="222" y="99" type="curve" smooth="yes"/>
      <point x="198" y="99"/>
      <point x="183" y="116"/>
      <point x="183" y="156" type="curve" smooth="yes"/>
      <point x="183" y="251"/>
      <point x="218" y="393"/>
    </contour>
    <contour>
      <point x="226" y="724" type="curve" smooth="yes"/>
      <point x="173" y="724"/>
      <point x="142" y="687"/>
      <point x="142" y="642" type="curve" smooth="yes"/>
      <point x="142" y="601"/>
      <point x="165" y="572"/>
      <point x="215" y="572" type="curve" smooth="yes"/>
      <point x="267" y="572"/>
      <point x="301" y="609"/>
      <point x="301" y="652" type="curve" smooth="yes"/>
      <point x="301" y="697"/>
      <point x="277" y="724"/>
    </contour>
    <contour>
      <point x="443" y="724" type="curve" smooth="yes"/>
      <point x="390" y="724"/>
      <point x="359" y="687"/>
      <point x="359" y="642" type="curve" smooth="yes"/>
      <point x="359" y="601"/>
      <point x="382" y="572"/>
      <point x="433" y="572" type="curve" smooth="yes"/>
      <point x="485" y="572"/>
      <point x="518" y="609"/>
      <point x="518" y="652" type="curve" smooth="yes"/>
      <point x="518" y="697"/>
      <point x="494" y="724"/>
    </contour>
  </outline>
</glyph>
<glyph name="divide" format="1">
  <advance width="480"/>
  <unicode hex="00F7"/>
  <outline>
    <contour>
      <point x="272" y="574" type="curve" smooth="yes"/>
      <point x="220" y="574"/>
      <point x="188" y="537"/>
      <point x="188" y="493" type="curve" smooth="yes"/>
      <point x="188" y="452"/>
      <point x="212" y="424"/>
      <point x="263" y="424" type="curve" smooth="yes"/>
      <point x="315" y="424"/>
      <point x="346" y="460"/>
      <point x="346" y="503" type="curve" smooth="yes"/>
      <point x="346" y="547"/>
      <point x="323" y="574"/>
    </contour>
    <contour>
      <point x="216" y="209" type="curve" smooth="yes"/>
      <point x="163" y="209"/>
      <point x="131" y="173"/>
      <point x="131" y="128" type="curve" smooth="yes"/>
      <point x="131" y="88"/>
      <point x="155" y="60"/>
      <point x="206" y="60" type="curve" smooth="yes"/>
      <point x="258" y="60"/>
      <point x="290" y="96"/>
      <point x="290" y="139" type="curve" smooth="yes"/>
      <point x="290" y="182"/>
      <point x="266" y="209"/>
    </contour>
    <contour>
      <point x="22" y="257" type="line"/>
      <point x="431" y="257" type="line"/>
      <point x="453" y="379" type="line"/>
      <point x="45" y="379" type="line"/>
    </contour>
  </outline>
</glyph>
<glyph name="oslash" format="1">
  <advance width="505"/>
  <unicode hex="00F8"/>
  <outline>
    <contour>
      <point x="304" y="505" type="curve" smooth="yes"/>
      <point x="123" y="505"/>
      <point x="22" y="347"/>
      <point x="22" y="163" type="curve" smooth="yes"/>
      <point x="22" y="116"/>
      <point x="34" y="69"/>
      <point x="67" y="35" type="curve"/>
      <point x="30" y="-19" type="line"/>
      <point x="95" y="-63" type="line"/>
      <point x="134" y="-4" type="line"/>
      <point x="153" y="-9"/>
      <point x="175" y="-13"/>
      <point x="201" y="-13" type="curve" smooth="yes"/>
      <point x="383" y="-13"/>
      <point x="483" y="141"/>
      <point x="483" y="327" type="curve" smooth="yes"/>
      <point x="483" y="374"/>
      <point x="470" y="423"/>
      <point x="437" y="457" type="curve"/>
      <point x="472" y="511" type="line"/>
      <point x="408" y="554" type="line"/>
      <point x="369" y="496" type="line"/>
      <point x="350" y="501"/>
      <point x="328" y="505"/>
    </contour>
    <contour>
      <point x="283" y="397" type="curve" smooth="yes"/>
      <point x="289" y="397"/>
      <point x="296" y="396"/>
      <point x="301" y="393" type="curve"/>
      <point x="185" y="216" type="line"/>
      <point x="192" y="300"/>
      <point x="224" y="397"/>
    </contour>
    <contour>
      <point x="222" y="95" type="curve" smooth="yes"/>
      <point x="215" y="95"/>
      <point x="208" y="96"/>
      <point x="202" y="99" type="curve"/>
      <point x="319" y="277" type="line"/>
      <point x="312" y="193"/>
      <point x="280" y="95"/>
    </contour>
  </outline>
</glyph>
<glyph name="ugrave" format="1">
  <advance width="547"/>
  <unicode hex="00F9"/>
  <outline>
    <contour>
      <point x="84" y="391" type="curve" smooth="yes"/>
      <point x="84" y="313"/>
      <point x="27" y="220"/>
      <point x="27" y="115" type="curve" smooth="yes"/>
      <point x="27" y="35"/>
      <point x="65" y="-9"/>
      <point x="152" y="-9" type="curve" smooth="yes"/>
      <point x="231" y="-9"/>
      <point x="288" y="30"/>
      <point x="329" y="118" type="curve" smooth="yes"/>
      <point x="342" y="146" type="line"/>
      <point x="337" y="103"/>
      <point x="336" y="88"/>
      <point x="336" y="75" type="curve" smooth="yes"/>
      <point x="336" y="43"/>
      <point x="346" y="11"/>
      <point x="366" y="-12" type="curve"/>
      <point x="492" y="38" type="line"/>
      <point x="482" y="54"/>
      <point x="458" y="92"/>
      <point x="458" y="152" type="curve" smooth="yes"/>
      <point x="458" y="176"/>
      <point x="461" y="204"/>
      <point x="468" y="237" type="curve" smooth="yes"/>
      <point x="519" y="493" type="line"/>
      <point x="365" y="493" type="line"/>
      <point x="333" y="331" type="line"/>
      <point x="315" y="239"/>
      <point x="258" y="119"/>
      <point x="207" y="119" type="curve" smooth="yes"/>
      <point x="190" y="119"/>
      <point x="184" y="132"/>
      <point x="184" y="149" type="curve" smooth="yes"/>
      <point x="184" y="225"/>
      <point x="236" y="304"/>
      <point x="236" y="385" type="curve" smooth="yes"/>
      <point x="236" y="415"/>
      <point x="229" y="458"/>
      <point x="208" y="501" type="curve"/>
      <point x="74" y="468" type="line"/>
      <point x="81" y="445"/>
      <point x="84" y="413"/>
    </contour>
    <contour>
      <point x="385" y="592" type="line"/>
      <point x="385" y="592"/>
      <point x="298" y="675"/>
      <point x="248" y="789" type="curve"/>
      <point x="167" y="756"/>
      <point x="134" y="704"/>
      <point x="134" y="704" type="curve"/>
      <point x="190" y="594"/>
      <point x="312" y="526"/>
      <point x="312" y="526" type="curve"/>
    </contour>
  </outline>
</glyph>
<glyph name="uacute" format="1">
  <advance width="547"/>
  <unicode hex="00FA"/>
  <outline>
    <contour>
      <point x="84" y="391" type="curve" smooth="yes"/>
      <point x="84" y="313"/>
      <point x="27" y="220"/>
      <point x="27" y="115" type="curve" smooth="yes"/>
      <point x="27" y="35"/>
      <point x="65" y="-9"/>
      <point x="152" y="-9" type="curve" smooth="yes"/>
      <point x="231" y="-9"/>
      <point x="288" y="30"/>
      <point x="329" y="118" type="curve" smooth="yes"/>
      <point x="342" y="146" type="line"/>
      <point x="337" y="103"/>
      <point x="336" y="88"/>
      <point x="336" y="75" type="curve" smooth="yes"/>
      <point x="336" y="43"/>
      <point x="346" y="11"/>
      <point x="366" y="-12" type="curve"/>
      <point x="492" y="38" type="line"/>
      <point x="482" y="54"/>
      <point x="458" y="92"/>
      <point x="458" y="152" type="curve" smooth="yes"/>
      <point x="458" y="176"/>
      <point x="461" y="204"/>
      <point x="468" y="237" type="curve" smooth="yes"/>
      <point x="519" y="493" type="line"/>
      <point x="365" y="493" type="line"/>
      <point x="333" y="331" type="line"/>
      <point x="315" y="239"/>
      <point x="258" y="119"/>
      <point x="207" y="119" type="curve" smooth="yes"/>
      <point x="190" y="119"/>
      <point x="184" y="132"/>
      <point x="184" y="149" type="curve" smooth="yes"/>
      <point x="184" y="225"/>
      <point x="236" y="304"/>
      <point x="236" y="385" type="curve" smooth="yes"/>
      <point x="236" y="415"/>
      <point x="229" y="458"/>
      <point x="208" y="501" type="curve"/>
      <point x="74" y="468" type="line"/>
      <point x="81" y="445"/>
      <point x="84" y="413"/>
    </contour>
    <contour>
      <point x="319" y="526" type="line"/>
      <point x="319" y="526"/>
      <point x="416" y="625"/>
      <point x="524" y="677" type="curve"/>
      <point x="493" y="754"/>
      <point x="439" y="789"/>
      <point x="439" y="789" type="curve"/>
      <point x="333" y="730"/>
      <point x="252" y="600"/>
      <point x="252" y="600" type="curve"/>
    </contour>
  </outline>
</glyph>
<glyph name="ucircumflex" format="1">
  <advance width="547"/>
  <unicode hex="00FB"/>
  <outline>
    <contour>
      <point x="84" y="391" type="curve" smooth="yes"/>
      <point x="84" y="313"/>
      <point x="27" y="220"/>
      <point x="27" y="115" type="curve" smooth="yes"/>
      <point x="27" y="35"/>
      <point x="65" y="-9"/>
      <point x="152" y="-9" type="curve" smooth="yes"/>
      <point x="231" y="-9"/>
      <point x="288" y="30"/>
      <point x="329" y="118" type="curve" smooth="yes"/>
      <point x="342" y="146" type="line"/>
      <point x="337" y="103"/>
      <point x="336" y="88"/>
      <point x="336" y="75" type="curve" smooth="yes"/>
      <point x="336" y="43"/>
      <point x="346" y="11"/>
      <point x="366" y="-12" type="curve"/>
      <point x="492" y="38" type="line"/>
      <point x="482" y="54"/>
      <point x="458" y="92"/>
      <point x="458" y="152" type="curve" smooth="yes"/>
      <point x="458" y="176"/>
      <point x="461" y="204"/>
      <point x="468" y="237" type="curve" smooth="yes"/>
      <point x="519" y="493" type="line"/>
      <point x="365" y="493" type="line"/>
      <point x="333" y="331" type="line"/>
      <point x="315" y="239"/>
      <point x="258" y="119"/>
      <point x="207" y="119" type="curve" smooth="yes"/>
      <point x="190" y="119"/>
      <point x="184" y="132"/>
      <point x="184" y="149" type="curve" smooth="yes"/>
      <point x="184" y="225"/>
      <point x="236" y="304"/>
      <point x="236" y="385" type="curve" smooth="yes"/>
      <point x="236" y="415"/>
      <point x="229" y="458"/>
      <point x="208" y="501" type="curve"/>
      <point x="74" y="468" type="line"/>
      <point x="81" y="445"/>
      <point x="84" y="413"/>
    </contour>
    <contour>
      <point x="215" y="534" type="line"/>
      <point x="215" y="534"/>
      <point x="269" y="578"/>
      <point x="331" y="626" type="curve"/>
      <point x="384" y="568"/>
      <point x="441" y="534"/>
      <point x="441" y="534" type="curve"/>
      <point x="514" y="600" type="line"/>
      <point x="514" y="600"/>
      <point x="430" y="696"/>
      <point x="363" y="797" type="curve"/>
      <point x="273" y="736"/>
      <point x="142" y="600"/>
      <point x="142" y="600" type="curve"/>
    </contour>
  </outline>
</glyph>
<glyph name="udieresis" format="1">
  <advance width="547"/>
  <unicode hex="00FC"/>
  <outline>
    <contour>
      <point x="84" y="391" type="curve" smooth="yes"/>
      <point x="84" y="313"/>
      <point x="27" y="220"/>
      <point x="27" y="115" type="curve" smooth="yes"/>
      <point x="27" y="35"/>
      <point x="65" y="-9"/>
      <point x="152" y="-9" type="curve" smooth="yes"/>
      <point x="231" y="-9"/>
      <point x="288" y="30"/>
      <point x="329" y="118" type="curve" smooth="yes"/>
      <point x="342" y="146" type="line"/>
      <point x="337" y="103"/>
      <point x="336" y="88"/>
      <point x="336" y="75" type="curve" smooth="yes"/>
      <point x="336" y="43"/>
      <point x="346" y="11"/>
      <point x="366" y="-12" type="curve"/>
      <point x="492" y="38" type="line"/>
      <point x="482" y="54"/>
      <point x="458" y="92"/>
      <point x="458" y="152" type="curve" smooth="yes"/>
      <point x="458" y="176"/>
      <point x="461" y="204"/>
      <point x="468" y="237" type="curve" smooth="yes"/>
      <point x="519" y="493" type="line"/>
      <point x="365" y="493" type="line"/>
      <point x="333" y="331" type="line"/>
      <point x="315" y="239"/>
      <point x="258" y="119"/>
      <point x="207" y="119" type="curve" smooth="yes"/>
      <point x="190" y="119"/>
      <point x="184" y="132"/>
      <point x="184" y="149" type="curve" smooth="yes"/>
      <point x="184" y="225"/>
      <point x="236" y="304"/>
      <point x="236" y="385" type="curve" smooth="yes"/>
      <point x="236" y="415"/>
      <point x="229" y="458"/>
      <point x="208" y="501" type="curve"/>
      <point x="74" y="468" type="line"/>
      <point x="81" y="445"/>
      <point x="84" y="413"/>
    </contour>
    <contour>
      <point x="232" y="720" type="curve" smooth="yes"/>
      <point x="179" y="720"/>
      <point x="148" y="683"/>
      <point x="148" y="638" type="curve" smooth="yes"/>
      <point x="148" y="597"/>
      <point x="171" y="568"/>
      <point x="221" y="568" type="curve" smooth="yes"/>
      <point x="274" y="568"/>
      <point x="307" y="605"/>
      <point x="307" y="648" type="curve" smooth="yes"/>
      <point x="307" y="693"/>
      <point x="283" y="720"/>
    </contour>
    <contour>
      <point x="449" y="720" type="curve" smooth="yes"/>
      <point x="397" y="720"/>
      <point x="366" y="683"/>
      <point x="366" y="638" type="curve" smooth="yes"/>
      <point x="366" y="597"/>
      <point x="389" y="568"/>
      <point x="439" y="568" type="curve" smooth="yes"/>
      <point x="491" y="568"/>
      <point x="524" y="605"/>
      <point x="524" y="648" type="curve" smooth="yes"/>
      <point x="524" y="693"/>
      <point x="500" y="720"/>
    </contour>
  </outline>
</glyph>
<glyph name="yacute" format="1">
  <advance width="550"/>
  <unicode hex="00FD"/>
  <outline>
    <contour>
      <point x="523" y="493" type="curve"/>
      <point x="369" y="493" type="line"/>
      <point x="337" y="331" type="line" smooth="yes"/>
      <point x="319" y="239"/>
      <point x="262" y="119"/>
      <point x="211" y="119" type="curve" smooth="yes"/>
      <point x="194" y="119"/>
      <point x="187" y="132"/>
      <point x="187" y="149" type="curve" smooth="yes"/>
      <point x="187" y="225"/>
      <point x="240" y="304"/>
      <point x="240" y="385" type="curve" smooth="yes"/>
      <point x="240" y="415"/>
      <point x="233" y="458"/>
      <point x="212" y="501" type="curve"/>
      <point x="78" y="468" type="line"/>
      <point x="85" y="445"/>
      <point x="88" y="413"/>
      <point x="88" y="391" type="curve" smooth="yes"/>
      <point x="88" y="313"/>
      <point x="31" y="220"/>
      <point x="31" y="115" type="curve" smooth="yes"/>
      <point x="31" y="35"/>
      <point x="69" y="-9"/>
      <point x="156" y="-9" type="curve" smooth="yes"/>
      <point x="235" y="-9"/>
      <point x="292" y="30"/>
      <point x="333" y="118" type="curve" smooth="yes"/>
      <point x="346" y="147" type="line"/>
      <point x="343" y="119"/>
      <point x="338" y="85"/>
      <point x="338" y="62" type="curve" smooth="yes"/>
      <point x="338" y="25"/>
      <point x="339" y="13"/>
      <point x="339" y="-12" type="curve" smooth="yes"/>
      <point x="339" y="-52"/>
      <point x="312" y="-89"/>
      <point x="257" y="-89" type="curve" smooth="yes"/>
      <point x="203" y="-89"/>
      <point x="134" y="-63"/>
      <point x="86" y="-43" type="curve"/>
      <point x="30" y="-162" type="line"/>
      <point x="76" y="-184"/>
      <point x="158" y="-222"/>
      <point x="266" y="-222" type="curve" smooth="yes"/>
      <point x="395" y="-222"/>
      <point x="478" y="-158"/>
      <point x="478" y="-27" type="curve" smooth="yes"/>
      <point x="478" y="45"/>
      <point x="462" y="86"/>
      <point x="462" y="156" type="curve" smooth="yes"/>
      <point x="462" y="190"/>
      <point x="484" y="295"/>
    </contour>
    <contour>
      <point x="315" y="526" type="line"/>
      <point x="315" y="526"/>
      <point x="413" y="625"/>
      <point x="520" y="677" type="curve"/>
      <point x="489" y="754"/>
      <point x="436" y="789"/>
      <point x="436" y="789" type="curve"/>
      <point x="329" y="730"/>
      <point x="249" y="600"/>
      <point x="249" y="600" type="curve"/>
    </contour>
  </outline>
</glyph>
<glyph name="thorn" format="1">
  <advance width="527"/>
  <unicode hex="00FE"/>
  <outline>
    <contour>
      <point x="202" y="364" type="curve"/>
      <point x="247" y="472"/>
      <point x="277" y="528"/>
      <point x="292" y="611" type="curve" smooth="yes"/>
      <point x="313" y="725" type="line"/>
      <point x="157" y="705" type="line"/>
      <point x="-23" y="-222" type="line"/>
      <point x="133" y="-202" type="line"/>
      <point x="171" y="-5" type="line"/>
      <point x="185" y="-7"/>
      <point x="201" y="-9"/>
      <point x="218" y="-9" type="curve" smooth="yes"/>
      <point x="404" y="-9"/>
      <point x="505" y="139"/>
      <point x="505" y="330" type="curve" smooth="yes"/>
      <point x="505" y="411"/>
      <point x="468" y="502"/>
      <point x="368" y="502" type="curve" smooth="yes"/>
      <point x="311" y="502"/>
      <point x="259" y="470"/>
    </contour>
    <contour>
      <point x="202" y="143" type="line" smooth="yes"/>
      <point x="229" y="253"/>
      <point x="279" y="384"/>
      <point x="320" y="384" type="curve" smooth="yes"/>
      <point x="339" y="384"/>
      <point x="343" y="361"/>
      <point x="343" y="333" type="curve" smooth="yes"/>
      <point x="343" y="263"/>
      <point x="317" y="106"/>
      <point x="225" y="106" type="curve" smooth="yes"/>
      <point x="212" y="106"/>
      <point x="204" y="107"/>
      <point x="194" y="110" type="curve"/>
    </contour>
  </outline>
</glyph>
